<svg id="exl8rnycgafi1" xmlns="http://www.w3.org/2000/svg" xmlns:xlink="http://www.w3.org/1999/xlink" viewBox="0 0 284 170" shape-rendering="geometricPrecision" text-rendering="geometricPrecision"><style><![CDATA[#exl8rnycgafi47_to {animation: exl8rnycgafi47_to__to 1000ms linear infinite normal forwards}@keyframes exl8rnycgafi47_to__to { 0% {transform: translate(77.299999px,79.299999px)} 50% {transform: translate(77.299999px,89.299999px)} 100% {transform: translate(77.299999px,79.299999px)} }#exl8rnycgafi48_to {animation: exl8rnycgafi48_to__to 1000ms linear infinite normal forwards}@keyframes exl8rnycgafi48_to__to { 0% {transform: translate(110.349998px,78.200001px)} 50% {transform: translate(110.349998px,88.200001px)} 100% {transform: translate(110.349998px,78.200001px)} }]]></style><rect id="exl8rnycgafi2" width="0.100000" height="1.500000" rx="0" ry="0" transform="matrix(1 0 0 1 104.80000000000000 66.59999999999999)" fill="none" stroke="none" stroke-width="1"/><rect id="exl8rnycgafi3" width="0.100000" height="2.400000" rx="0" ry="0" transform="matrix(1 0 0 1 121.50000000000000 65.30000000000000)" fill="none" stroke="none" stroke-width="1"/><polygon id="exl8rnycgafi4" points="179.600000,70.700000 179.600000,70.700000 179.600000,71.800000 179.600000,72.600000 179.600000,72.600000 179.600000,71.900000" fill="none" stroke="none" stroke-width="1"/><polygon id="exl8rnycgafi5" points="126.200000,71.600000 126.100000,71.600000 126.100000,74.100000 126.100000,77.800000 126.200000,77.800000 126.200000,74.100000" fill="none" stroke="none" stroke-width="1"/><rect id="exl8rnycgafi6" width="0.600000" height="6.800000" rx="0" ry="0" transform="matrix(1 0 0 1 55.50000000000000 162.90000000000001)" fill="none" stroke="none" stroke-width="1"/><polygon id="exl8rnycgafi7" points="165.200000,71.800000 165.200000,71.900000 165.400000,71.900000 167.800000,71.900000 167.800000,71.800000 165.500000,71.800000" fill="none" stroke="none" stroke-width="1"/><rect id="exl8rnycgafi8" width="1.100000" height="0.100000" rx="0" ry="0" transform="matrix(1 0 0 1 164 79.90000000000001)" fill="none" stroke="none" stroke-width="1"/><polygon id="exl8rnycgafi9" points="114.100000,74.300000 114.200000,74.300000 114.200000,71.600000 114.200000,70.500000 114.100000,70.500000 114.100000,71.500000" fill="none" stroke="none" stroke-width="1"/><polygon id="exl8rnycgafi10" points="172.600000,53.700000 167.900000,53.700000 167.900000,53.800000 172.500000,53.800000 231,53.800000 231,53.700000" fill="none" stroke="none" stroke-width="1"/><rect id="exl8rnycgafi11" width="1.700000" height="0.100000" rx="0" ry="0" transform="matrix(1 0 0 1 86.50000000000000 65.20000000000000)" fill="none" stroke="none" stroke-width="1"/><polygon id="exl8rnycgafi12" points="234.200000,59.200000 231,59.200000 231,59.300000 234.200000,59.300000 236.600000,59.300000 236.600000,59.200000" fill="none" stroke="none" stroke-width="1"/><rect id="exl8rnycgafi13" width="0.100000" height="2.100000" rx="0" ry="0" transform="matrix(1 0 0 1 69.70000000000000 63.30000000000000)" fill="none" stroke="none" stroke-width="1"/><rect id="exl8rnycgafi14" width="4.700000" height="0.100000" rx="0" ry="0" transform="matrix(1 0 0 1 88 152.50000000000000)" fill="none" stroke="none" stroke-width="1"/><rect id="exl8rnycgafi15" width="2.400000" height="0.100000" rx="0" ry="0" transform="matrix(1 0 0 1 101.30000000000000 71.50000000000000)" fill="none" stroke="none" stroke-width="1"/><polygon id="exl8rnycgafi16" points="123.600000,53.500000 123.500000,53.500000 123.500000,56 123.500000,71.600000 123.600000,71.600000 123.600000,56" fill="none" stroke="none" stroke-width="1"/><polygon id="exl8rnycgafi17" points="179.600000,70.700000 179.600000,70.700000 179.600000,71.900000 179.600000,72.600000 196.700000,72.600000 196.700000,71.900000 196.700000,71.800000 196.700000,66.900000 190.500000,66.900000 190.500000,65 173.400000,65 173.400000,70.600000 179.600000,70.600000" fill="rgb(0,0,0)" stroke="none" stroke-width="1"/><polygon id="exl8rnycgafi18" points="203.900000,148.900000 203.900000,148.900000 203.900000,148.100000 203.900000,142.500000 199.200000,142.500000 199.200000,148.100000 199.200000,148.900000 199.200000,148.900000 199.200000,151.300000 203.900000,151.300000" fill="rgb(84,254,84)" stroke="none" stroke-width="1"/><polygon id="exl8rnycgafi19" points="203.900000,167 203.900000,159.400000 203.900000,156.700000 203.900000,156.500000 199.200000,156.500000 199.200000,156.700000 199.200000,159.400000 199.200000,167 199.200000,169.700000 203.900000,169.700000" fill="rgb(84,254,84)" stroke="none" stroke-width="1"/><path id="exl8rnycgafi20" d="M55.500000,162.900000L56.100000,162.900000L56.100000,169.700000L88,169.700000L88,168.300000L88,168.200000L88,160.700000L88,160.600000L88,160.400000L88,160.300000L88,158L88,157.900000L88,157.800000L88,157.700000L92.800000,157.700000L92.800000,157.900000L92.800000,160.300000L92.800000,160.600000L92.800000,168.200000L92.800000,169.700000L130.300000,169.700000L130.300000,164.600000L126.900000,164.600000L126.900000,160.500000L120,160.500000L120,159.900000L125.800000,159.800000L125.700000,145.200000L118.700000,145.300000L118.700000,137.800000L106.300000,137.800000L106.300000,131.100000L98.600000,131.100000L98.600000,131.200000L98.600000,137.900000L98.600000,139.800000L98.600000,141.500000L78,141.500000L78,141.400000L78,139.800000L78,139.700000L78,137.900000L78,137.800000L78,131.200000L78,131.100000L72.700000,131.100000L72.700000,137.800000L57.200000,137.800000L57.200000,141.300000L48.700000,141.300000L48.700000,149.400000L44.300000,149.400000L44.300000,154.400000L42,154.400000L42,162.200000L37.400000,162.200000L37.400000,169.700000L55.500000,169.700000L55.500000,162.900000ZM88,152.500000L88,150.200000L88,150.100000L88,149.400000L88,149.300000L88,145.900000L88,145.800000L88,143.700000L92.700000,143.700000L92.800000,143.700000L92.800000,145.700000L92.800000,149.300000L92.800000,150.100000L92.800000,152.500000L92.700000,152.500000L92.700000,152.600000L88,152.500000L88,152.500000Z" fill="rgb(0,0,0)" stroke="none" stroke-width="1"/><path id="exl8rnycgafi21" d="M246,162.500000L246,150.700000L239.100000,150.700000L239.100000,142.500000L229.900000,142.500000L229.900000,136.700000L217.600000,136.700000L217.600000,130L209.800000,130L209.800000,136.700000L209.800000,138.600000L209.800000,140.300000L189.200000,140.300000L189.200000,138.600000L189.200000,136.700000L189.200000,130L183.900000,130L183.900000,136.700000L174.600000,136.700000L168.400000,136.700000L168.400000,140.200000L159.900000,140.200000L159.900000,142.300000L159.900000,148.300000L158.400000,148.300000L155.500000,148.300000L155.500000,149L150.900000,149L150.900000,145.900000L150.900000,142.300000L146.800000,142.300000L146.800000,145.900000L143.200000,145.900000L143.200000,154.100000L141.100000,154.100000L141.100000,161.600000L137,161.600000L137,167.200000L133.500000,167.200000L133.500000,169.700000L148.600000,169.700000L162.100000,169.700000L167.200000,169.700000L188.300000,169.700000L199.200000,169.700000L199.200000,167L199.200000,159.400000L199.200000,156.700000L199.200000,156.500000L203.900000,156.500000L203.900000,156.700000L203.900000,159.400000L203.900000,167L203.900000,169.700000L217.600000,169.700000L217.600000,169.700000L231.200000,169.700000L231.900000,169.700000L250,169.700000L250,162.500000L246,162.500000ZM203.900000,148.100000L203.900000,148.900000L203.900000,148.900000L203.900000,151.300000L199.200000,151.300000L199.200000,148.900000L199.200000,148.900000L199.200000,148.100000L199.200000,142.500000L203.900000,142.500000L203.900000,148.100000Z" fill="rgb(0,0,0)" stroke="none" stroke-width="1"/><polygon id="exl8rnycgafi22" points="92.700000,150.200000 92.700000,149.400000 92.700000,145.800000 92.700000,143.700000 88,143.700000 88,145.800000 88,145.900000 88,149.300000 88,149.400000 88,150.100000 88,150.200000 88,152.500000 92.700000,152.500000" fill="rgb(84,254,84)" stroke="none" stroke-width="1"/><polygon id="exl8rnycgafi23" points="92.700000,149.400000 92.700000,150.200000 92.700000,152.500000 92.800000,152.500000 92.800000,150.100000 92.800000,149.300000 92.800000,145.700000 92.800000,143.700000 92.700000,143.700000 92.700000,145.800000" fill="rgb(84,254,84)" stroke="none" stroke-width="1"/><polygon id="exl8rnycgafi24" points="92.800000,168.200000 92.800000,160.600000 92.800000,160.300000 92.800000,157.900000 92.700000,157.900000 92.700000,157.800000 88,157.800000 88,157.900000 88,158 88,160.300000 88,160.400000 88,160.600000 88,160.700000 88,168.200000 88,168.300000 88,169.700000 92.800000,169.700000" fill="rgb(84,254,84)" stroke="none" stroke-width="1"/><polygon id="exl8rnycgafi25" points="92.700000,157.900000 92.800000,157.900000 92.800000,157.700000 88,157.700000 88,157.800000 92.700000,157.800000" fill="rgb(84,254,84)" stroke="none" stroke-width="1"/><polygon id="exl8rnycgafi26" points="150.900000,149 155.500000,149 155.500000,148.300000 158.400000,148.300000 159.900000,148.300000 159.900000,142.300000 159.900000,140.200000 168.400000,140.200000 168.400000,136.700000 174.600000,136.700000 174.600000,135.600000 150.900000,135.600000 150.900000,142.300000 150.900000,145.900000" fill="rgb(84,254,84)" stroke="none" stroke-width="1"/><polygon id="exl8rnycgafi27" points="154.700000,80.300000 158.900000,80.300000 158.900000,80.200000 154.700000,80.200000 153.900000,80.200000 153.900000,80.300000" fill="rgb(84,254,84)" stroke="none" stroke-width="1"/><rect id="exl8rnycgafi28" width="0.100000" height="8" rx="0" ry="0" transform="matrix(1 0 0 1 165.09999999999999 71.90000000000001)" fill="rgb(84,254,84)" stroke="none" stroke-width="1"/><rect id="exl8rnycgafi29" width="0.100000" height="18" rx="0" ry="0" transform="matrix(1 0 0 1 167.80000000000001 53.80000000000000)" fill="rgb(84,254,84)" stroke="none" stroke-width="1"/><rect id="exl8rnycgafi30" width="6.200000" height="0.100000" rx="0" ry="0" transform="matrix(1 0 0 1 173.40000000000001 70.59999999999999)" fill="rgb(84,254,84)" stroke="none" stroke-width="1"/><rect id="exl8rnycgafi31" width="2.700000" height="1.500000" rx="0" ry="0" transform="matrix(1 0 0 1 68 70.09999999999999)" fill="rgb(211,229,239)" stroke="none" stroke-width="1"/><rect id="exl8rnycgafi32" width="2.700000" height="0.900000" rx="0" ry="0" transform="matrix(1 0 0 1 68 87.50000000000000)" fill="rgb(211,229,239)" stroke="none" stroke-width="1"/><rect id="exl8rnycgafi33" width="2.700000" height="15.900000" rx="0" ry="0" transform="matrix(1 0 0 1 68 71.59999999999999)" fill="rgb(211,229,239)" stroke="none" stroke-width="1"/><g id="exl8rnycgafi34"><polygon id="exl8rnycgafi35" points="103.700000,70.500000 103.700000,70.300000 101.300000,70.300000 101.300000,70.500000 101.300000,71.500000 103.700000,71.500000" fill="rgb(211,229,239)" stroke="none" stroke-width="1"/><polygon id="exl8rnycgafi36" points="103.700000,88.600000 103.700000,87.500000 103.700000,87.400000 103.700000,77.800000 103.700000,77.700000 103.700000,71.600000 101.300000,71.600000 101.300000,71.700000 101.300000,77.800000 101.300000,77.900000 101.300000,86.300000 102.300000,86.300000 102.300000,87.500000 102.300000,88.700000 103.800000,88.700000 103.800000,88.600000" fill="rgb(211,229,239)" stroke="none" stroke-width="1"/></g><polygon id="exl8rnycgafi37" points="81.100000,87.500000 81.100000,83.200000 78.300000,83.200000 75.500000,83.200000 73.500000,83.200000 73.500000,75.400000 75.500000,75.400000 78.300000,75.400000 81.100000,75.400000 81.100000,71.600000 81,71.600000 81,70.100000 75.500000,70.100000 73.500000,70.100000 70.700000,70.100000 70.700000,71.600000 70.700000,87.500000 70.700000,88.400000 70.800000,88.400000 73.500000,88.400000 73.600000,88.400000 75.500000,88.400000 75.600000,88.400000 78.300000,88.400000 81.100000,88.400000" fill="rgb(0,0,0)" stroke="none" stroke-width="1"/><rect id="exl8rnycgafi38" width="0.100000" height="1.500000" rx="0" ry="0" transform="matrix(1 0 0 1 81 70.09999999999999)" fill="rgb(0,0,0)" stroke="none" stroke-width="1"/><polygon id="exl8rnycgafi39" points="114.100000,82.100000 111.400000,82.100000 111.300000,82.100000 108.900000,82.100000 106.600000,82.100000 106.600000,77.800000 106.600000,74.300000 108.900000,74.300000 111.300000,74.300000 111.400000,74.300000 114.100000,74.300000 114.100000,71.500000 114.100000,70.500000 114.100000,70.300000 111.300000,70.300000 108.800000,70.300000 103.800000,70.300000 103.800000,70.500000 103.800000,71.500000 103.700000,71.500000 103.700000,71.600000 103.800000,71.600000 103.800000,77.800000 103.800000,87.500000 103.800000,88.600000 103.800000,88.700000 106.600000,88.700000 108.900000,88.700000 111.400000,88.700000 114.200000,88.700000 114.200000,87.500000 114.200000,82.100000" fill="rgb(0,0,0)" stroke="none" stroke-width="1"/><rect id="exl8rnycgafi40" width="0.100000" height="1" rx="0" ry="0" transform="matrix(1 0 0 1 103.70000000000000 70.50000000000000)" fill="rgb(0,0,0)" stroke="none" stroke-width="1"/><rect id="exl8rnycgafi41" width="0.100000" height="0.200000" rx="0" ry="0" transform="matrix(1 0 0 1 103.70000000000000 70.30000000000000)" fill="rgb(0,0,0)" stroke="none" stroke-width="1"/><polygon id="exl8rnycgafi42" points="103.800000,71.600000 103.700000,71.600000 103.700000,77.700000 103.700000,77.800000 103.800000,77.800000" fill="rgb(0,0,0)" stroke="none" stroke-width="1"/><rect id="exl8rnycgafi43" width="0.100000" height="1.100000" rx="0" ry="0" transform="matrix(1 0 0 1 103.70000000000000 87.50000000000000)" fill="rgb(0,0,0)" stroke="none" stroke-width="1"/><polygon id="exl8rnycgafi44" points="103.800000,77.800000 103.700000,77.800000 103.700000,87.400000 103.700000,87.500000 103.800000,87.500000" fill="rgb(0,0,0)" stroke="none" stroke-width="1"/><polygon id="exl8rnycgafi45" points="213.400000,74.900000 211.100000,74.900000 211.100000,82.700000 213.400000,82.700000 215.900000,82.700000 218.700000,82.700000 218.700000,74.900000 215.900000,74.900000" fill="rgb(0,0,0)" stroke="none" stroke-width="1"/><rect id="exl8rnycgafi46" width="16.500000" height="3.900000" rx="0" ry="0" transform="matrix(1 0 0 1 175.30000000000001 76)" fill="rgb(0,0,0)" stroke="none" stroke-width="1"/><g id="exl8rnycgafi47_to" transform="translate(77.299999,79.299999)"><polygon id="exl8rnycgafi47" points="75.500000,75.400000 73.500000,75.400000 73.500000,83.200000 75.500000,83.200000 78.300000,83.200000 81.100000,83.200000 81.100000,75.400000 78.300000,75.400000" transform="translate(-77.299999,-79.299999)" fill="rgb(0,0,0)" stroke="none" stroke-width="1"/></g><g id="exl8rnycgafi48_to" transform="translate(110.349998,78.200001)"><polygon id="exl8rnycgafi48" points="114.100000,74.300000 111.400000,74.300000 111.300000,74.300000 108.900000,74.300000 106.600000,74.300000 106.600000,77.800000 106.600000,82.100000 108.900000,82.100000 111.300000,82.100000 111.400000,82.100000 114.100000,82.100000 114.100000,77.700000" transform="translate(-110.349998,-78.200001)" fill="rgb(0,0,0)" stroke="none" stroke-width="1"/></g><polygon id="exl8rnycgafi49" points="114.100000,77.700000 114.100000,82.100000 114.200000,82.100000 114.200000,77.800000 114.200000,74.300000 114.100000,74.300000" fill="rgb(0,0,0)" stroke="none" stroke-width="1"/><path id="exl8rnycgafi50" d="M251.700000,81.600000L250.700000,81.600000L244.500000,81.600000L242.800000,81.600000L242.800000,88.200000L242.800000,91L237.700000,91L237.700000,88.200000L237.700000,81.600000L236.600000,81.600000L236.600000,59.300000L234.200000,59.300000L231,59.300000L231,59.200000L231,53.800000L172.500000,53.800000L167.900000,53.800000L167.900000,71.800000L167.800000,71.800000L167.800000,71.900000L165.400000,71.900000L165.200000,71.900000L165.200000,79.900000L165.100000,79.900000L165.100000,80L164,80L164,88.200000L164,88.300000L164,91L162.700000,91L160.700000,91L159.400000,91L158.900000,91L158.900000,88.300000L158.900000,88.200000L158.900000,84.700000L158.900000,84.600000L158.900000,80.300000L154.700000,80.300000L153.900000,80.300000L153.900000,80.200000L148.600000,80.200000L148.600000,98.300000L160.800000,98.300000L160.800000,115L165.300000,115L165.300000,119.900000L174.500000,119.900000L174.500000,125.200000L182,125.200000L182,127.800000L189.200000,127.800000L189.200000,130L189.200000,136.700000L189.200000,138.600000L189.200000,140.300000L209.800000,140.300000L209.800000,138.600000L209.800000,136.700000L209.800000,130L209.800000,127.800000L222.400000,127.800000L222.400000,125.200000L230,125.200000L230,119.900000L235.300000,119.900000L235.300000,109.600000L236.600000,109.600000L236.600000,106.900000L236.600000,106.800000L244.500000,106.800000L244.500000,99.800000L244.600000,99.800000L256.300000,99.800000L256.300000,81.600000L251.700000,81.600000ZM191.800000,79.900000L175.300000,79.900000L175.300000,76L191.800000,76L191.800000,79.900000ZM196.700000,71.800000L196.700000,71.900000L196.700000,72.600000L179.600000,72.600000L179.600000,72.600000L179.600000,71.800000L179.600000,70.700000L173.400000,70.700000L173.400000,70.600000L173.400000,65L190.500000,65L190.500000,66.900000L196.700000,66.900000L196.700000,71.800000ZM218.700000,82.700000L215.900000,82.700000L213.400000,82.700000L211.100000,82.700000L211.100000,74.900000L213.400000,74.900000L215.900000,74.900000L218.700000,74.900000L218.700000,82.700000ZM222.600000,68.900000L222.600000,71.500000L219.300000,71.500000L216.400000,71.500000L214,71.500000L211.700000,71.500000L208.900000,71.500000L206.400000,71.500000L205.400000,71.500000L205.400000,68.900000L205.400000,65.800000L222.600000,65.800000L222.600000,68.900000Z" fill="rgb(84,254,84)" stroke="none" stroke-width="1"/><polygon id="exl8rnycgafi51" points="250.700000,40.400000 250.700000,31.600000 244.500000,31.600000 244.500000,24.700000 234.100000,24.700000 234.100000,20 221.200000,20 221.200000,16 183.200000,16 183.200000,20 172.500000,20 172.500000,24.700000 165.500000,24.700000 165.500000,31.600000 159.400000,31.600000 159.400000,40.400000 154.700000,40.400000 154.700000,47.300000 153.900000,47.300000 153.900000,61.700000 153.900000,70.300000 153.900000,80.200000 154.700000,80.200000 158.900000,80.200000 158.900000,80.300000 158.900000,84.600000 158.900000,84.700000 158.900000,88.200000 158.900000,88.300000 158.900000,91 159.400000,91 160.700000,91 162.700000,91 164,91 164,88.300000 164,88.200000 164,80 164,79.900000 165.100000,79.900000 165.100000,71.900000 165.200000,71.900000 165.200000,71.800000 165.500000,71.800000 167.800000,71.800000 167.800000,53.800000 167.900000,53.800000 167.900000,53.700000 172.600000,53.700000 231,53.700000 231,53.800000 231,59.200000 234.200000,59.200000 236.600000,59.200000 236.600000,59.300000 236.600000,81.600000 237.700000,81.600000 237.700000,88.200000 237.700000,91 242.800000,91 242.800000,88.200000 242.800000,81.600000 244.500000,81.600000 250.700000,81.600000 251.700000,81.600000 251.700000,40.400000" fill="rgb(0,0,0)" stroke="none" stroke-width="1"/><rect id="exl8rnycgafi52" width="4.100000" height="7.100000" rx="0" ry="0" transform="matrix(1 0 0 1 46.80000000000000 99.40000000000001)" fill="rgb(41,41,41)" stroke="none" stroke-width="1"/><polygon id="exl8rnycgafi53" points="138.200000,32.800000 138.200000,26.300000 134.700000,26.300000 134.700000,17.600000 133,17.600000 133,13.300000 126.700000,13.300000 126.700000,17.600000 119.900000,17.600000 119.900000,24.300000 118.800000,24.300000 118.800000,19.600000 108.100000,19.600000 108.100000,15.600000 70.100000,15.600000 70.100000,19.600000 57.200000,19.600000 57.200000,24.300000 46.800000,24.300000 46.800000,31.200000 40.600000,31.200000 40.600000,39.600000 38,39.600000 38,47.400000 34.300000,47.400000 34.300000,88.700000 35.100000,88.700000 35.100000,81.300000 38,81.300000 40.600000,81.300000 46.800000,81.300000 48.500000,81.300000 48.500000,87.400000 48.500000,87.400000 48.500000,90.600000 50.900000,90.600000 53.600000,90.600000 53.600000,87.400000 53.600000,87.400000 53.600000,81.300000 53.600000,61 50.900000,61 50.900000,59 57.200000,59 60.400000,59 60.400000,53.500000 118.800000,53.500000 118.900000,53.500000 119.900000,53.500000 120,53.500000 123.500000,53.500000 123.600000,53.500000 123.600000,56 123.600000,71.600000 124.800000,71.600000 124.900000,71.600000 125.800000,71.600000 125.900000,71.600000 126.100000,71.600000 126.200000,71.600000 126.200000,74.100000 126.200000,77.800000 129,77.800000 129.100000,77.800000 129.100000,87.500000 129.100000,93.400000 131.700000,93.400000 131.700000,94.100000 132.100000,94.100000 132.100000,93.400000 134.300000,93.400000 134.300000,87.500000 135.200000,87.500000 135.200000,84.300000 137.600000,84.300000 137.600000,74.100000 140.200000,74.100000 140.200000,32.800000" fill="rgb(0,0,0)" stroke="none" stroke-width="1"/><polygon id="exl8rnycgafi54" points="104.800000,68.100000 104.800000,66.600000 104.900000,66.600000 112.300000,66.600000 112.400000,66.600000 112.400000,67.700000 118.800000,67.700000 118.900000,67.700000 121.500000,67.700000 121.500000,65.300000 118.900000,65.300000 118.800000,65.300000 118.700000,65.300000 118.700000,63.500000 101.900000,63.500000 101.900000,65.700000 95.700000,65.700000 95.700000,68.100000" fill="rgb(41,41,41)" stroke="none" stroke-width="1"/><rect id="exl8rnycgafi55" width="0.200000" height="2.400000" rx="0" ry="0" transform="matrix(1 0 0 1 95.50000000000000 65.70000000000000)" fill="rgb(41,41,41)" stroke="none" stroke-width="1"/><rect id="exl8rnycgafi56" width="0.100000" height="1.100000" rx="0" ry="0" transform="matrix(1 0 0 1 112.30000000000000 66.59999999999999)" fill="rgb(41,41,41)" stroke="none" stroke-width="1"/><polygon id="exl8rnycgafi57" points="69.900000,67.800000 69.900000,66.500000 69.900000,66.400000 79,66.400000 79,66.500000 79,67.600000 88.200000,67.600000 88.200000,65.300000 86.500000,65.300000 86.500000,65.200000 86.500000,63.300000 69.800000,63.300000 69.800000,65.400000 69.700000,65.400000 60.700000,65.400000 60.700000,67.800000" fill="rgb(41,41,41)" stroke="none" stroke-width="1"/><polygon id="exl8rnycgafi58" points="69.900000,67.800000 60.700000,67.800000 60.700000,65.400000 60.600000,65.400000 60.600000,67.900000 69.900000,67.900000" fill="rgb(41,41,41)" stroke="none" stroke-width="1"/><rect id="exl8rnycgafi59" width="9.100000" height="0.100000" rx="0" ry="0" transform="matrix(1 0 0 1 69.90000000000001 66.40000000000001)" fill="rgb(41,41,41)" stroke="none" stroke-width="1"/><rect id="exl8rnycgafi60" width="9.200000" height="0.100000" rx="0" ry="0" transform="matrix(1 0 0 1 79 67.59999999999999)" fill="rgb(41,41,41)" stroke="none" stroke-width="1"/><path id="exl8rnycgafi61" d="M129,93.400000L129,87.500000L129,77.800000L126.200000,77.800000L126.100000,77.800000L126.100000,74.100000L126.100000,71.600000L125.900000,71.600000L125.800000,71.600000L124.900000,71.600000L124.800000,71.600000L123.600000,71.600000L123.500000,71.600000L123.500000,56L123.500000,53.500000L120,53.500000L119.900000,53.500000L118.900000,53.500000L118.800000,53.500000L60.400000,53.500000L60.400000,59L57.200000,59L50.900000,59L50.900000,61L53.600000,61L53.600000,81.300000L53.600000,87.400000L53.600000,87.400000L53.600000,90.600000L50.900000,90.600000L48.500000,90.600000L48.500000,87.400000L48.500000,87.400000L48.500000,81.300000L46.800000,81.300000L40.600000,81.300000L38,81.300000L35.100000,81.300000L35.100000,88.700000L35.100000,99.400000L46.800000,99.400000L50.900000,99.400000L50.900000,106.500000L50.900000,113.800000L56,113.800000L56,119.600000L61.300000,119.600000L61.300000,124.900000L68.900000,124.900000L68.900000,127.500000L78,127.500000L78,131.100000L78,131.200000L78,137.800000L78,137.900000L78,139.700000L78,139.800000L78,141.400000L78,141.500000L98.600000,141.500000L98.600000,139.800000L98.600000,137.900000L98.600000,131.200000L98.600000,131.100000L98.600000,127.500000L109.400000,127.500000L109.400000,124.900000L117,124.900000L117,119.600000L126.200000,119.600000L126.200000,112.800000L131.600000,112.800000L131.600000,94.100000L131.600000,93.400000L129,93.400000ZM81.100000,71.600000L81.100000,75.400000L81.100000,83.200000L81.100000,87.500000L81.100000,88.400000L78.300000,88.400000L75.600000,88.400000L75.500000,88.400000L73.600000,88.400000L73.500000,88.400000L70.800000,88.400000L70.700000,88.400000L68,88.400000L68,87.500000L68,71.600000L68,70.100000L70.700000,70.100000L73.500000,70.100000L75.500000,70.100000L81,70.100000L81.100000,70.100000L81.100000,71.600000ZM88.200000,65.300000L88.200000,67.600000L88.200000,67.700000L79,67.700000L79,67.600000L79,66.500000L69.900000,66.500000L69.900000,67.800000L69.900000,67.900000L60.600000,67.900000L60.600000,65.400000L60.700000,65.400000L69.700000,65.400000L69.700000,63.300000L69.800000,63.300000L86.500000,63.300000L86.500000,65.200000L88.200000,65.300000L88.200000,65.300000ZM114.200000,71.600000L114.200000,74.300000L114.200000,77.800000L114.200000,82.100000L114.200000,87.500000L114.200000,88.700000L111.400000,88.700000L108.900000,88.700000L106.600000,88.700000L103.800000,88.700000L102.300000,88.700000L102.300000,87.500000L102.300000,86.300000L101.300000,86.300000L101.300000,77.900000L101.300000,77.800000L101.300000,71.700000L101.300000,71.600000L101.300000,71.500000L101.300000,70.500000L101.300000,70.300000L103.700000,70.300000L103.800000,70.300000L108.800000,70.300000L111.300000,70.300000L114.100000,70.300000L114.100000,70.500000L114.200000,70.500000L114.200000,71.600000ZM121.600000,67.700000L121.600000,67.700000L118.900000,67.700000L118.800000,67.700000L112.400000,67.700000L112.300000,67.700000L112.300000,66.600000L104.900000,66.600000L104.900000,68.100000L104.800000,68.100000L95.700000,68.100000L95.500000,68.100000L95.500000,65.700000L95.700000,65.700000L101.900000,65.700000L101.900000,63.500000L118.700000,63.500000L118.700000,65.300000L118.800000,65.300000L118.900000,65.300000L121.500000,65.300000L121.600000,65.300000L121.600000,67.700000Z" fill="rgb(84,254,84)" stroke="none" stroke-width="1"/><polygon id="exl8rnycgafi62" points="208.900000,71.500000 211.700000,71.500000 214,71.500000 216.400000,71.500000 219.300000,71.500000 222.600000,71.500000 222.600000,68.900000 222.600000,65.800000 205.400000,65.800000 205.400000,68.900000 205.400000,71.500000 206.400000,71.500000" fill="rgb(0,0,0)" stroke="none" stroke-width="1"/></svg>