<svg id="efb60oy7ea6v1" xmlns="http://www.w3.org/2000/svg" xmlns:xlink="http://www.w3.org/1999/xlink" viewBox="0 0 1223 387" shape-rendering="geometricPrecision" text-rendering="geometricPrecision"><style><![CDATA[#efb60oy7ea6v42_to {animation: efb60oy7ea6v42_to__to 1000ms linear infinite normal forwards}@keyframes efb60oy7ea6v42_to__to { 0% {transform: translate(1119.399963px,154.900002px)} 50% {transform: translate(1128.199963px,154.900002px)} 100% {transform: translate(1119.399963px,154.900002px)} }#efb60oy7ea6v78_to {animation: efb60oy7ea6v78_to__to 1000ms linear infinite normal forwards}@keyframes efb60oy7ea6v78_to__to { 0% {transform: translate(1148.299988px,182.299995px)} 50% {transform: translate(1139.299988px,182.525385px)} 100% {transform: translate(1148.299988px,182.299995px)} }#efb60oy7ea6v115_to {animation: efb60oy7ea6v115_to__to 1000ms linear infinite normal forwards}@keyframes efb60oy7ea6v115_to__to { 0% {transform: translate(59.500000px,154.900002px)} 50% {transform: translate(68.400000px,154.900002px)} 100% {transform: translate(59.500000px,154.900002px)} }#efb60oy7ea6v151_to {animation: efb60oy7ea6v151_to__to 1000ms linear infinite normal forwards}@keyframes efb60oy7ea6v151_to__to { 0% {transform: translate(88.299999px,182.299995px)} 50% {transform: translate(79.499999px,182.092385px)} 100% {transform: translate(88.299999px,182.299995px)} }#efb60oy7ea6v154_to {animation: efb60oy7ea6v154_to__to 1000ms linear infinite normal forwards}@keyframes efb60oy7ea6v154_to__to { 0% {transform: translate(315.700012px,175.500000px)} 50% {transform: translate(315.700012px,185.500000px)} 100% {transform: translate(315.700012px,175.500000px)} }#efb60oy7ea6v172_to {animation: efb60oy7ea6v172_to__to 1000ms linear infinite normal forwards}@keyframes efb60oy7ea6v172_to__to { 0% {transform: translate(375.500000px,185.500000px)} 50% {transform: translate(375.500000px,175.500000px)} 100% {transform: translate(375.500000px,185.500000px)} }#efb60oy7ea6v192_to {animation: efb60oy7ea6v192_to__to 1000ms linear infinite normal forwards}@keyframes efb60oy7ea6v192_to__to { 0% {transform: translate(850.899963px,185.500000px)} 50% {transform: translate(850.899963px,175.500000px)} 100% {transform: translate(850.899963px,185.500000px)} }#efb60oy7ea6v206_to {animation: efb60oy7ea6v206_to__to 1000ms linear infinite normal forwards}@keyframes efb60oy7ea6v206_to__to { 0% {transform: translate(910.700012px,175.500000px)} 50% {transform: translate(910.700012px,185.500000px)} 100% {transform: translate(910.700012px,175.500000px)} }]]></style><defs><circle id="efb60oy7ea6v2" r="10.900000"/><circle id="efb60oy7ea6v3" r="10.900000"/><circle id="efb60oy7ea6v4" r="10.900000"/><circle id="efb60oy7ea6v5" r="10.900000"/></defs><rect id="efb60oy7ea6v6" display="none" width="1223" height="387" rx="0" ry="0" fill="rgb(0,0,0)" stroke="none" stroke-width="1"/><g id="efb60oy7ea6v7"><g id="efb60oy7ea6v8"><rect id="efb60oy7ea6v9" width="4.400000" height="4.400000" rx="0" ry="0" transform="matrix(1 0 0 1 1112.79999999999995 128.30000000000001)" fill="rgb(84,254,84)" stroke="none" stroke-width="1"/><rect id="efb60oy7ea6v10" width="4.400000" height="4.400000" rx="0" ry="0" transform="matrix(1 0 0 1 1112.79999999999995 132.69999999999999)" fill="rgb(84,254,84)" stroke="none" stroke-width="1"/><rect id="efb60oy7ea6v11" width="4.400000" height="4.400000" rx="0" ry="0" transform="matrix(1 0 0 1 1117.20000000000005 128.30000000000001)" fill="rgb(84,254,84)" stroke="none" stroke-width="1"/><rect id="efb60oy7ea6v12" width="4.400000" height="4.400000" rx="0" ry="0" transform="matrix(1 0 0 1 1121.59999999999991 128.30000000000001)" fill="rgb(84,254,84)" stroke="none" stroke-width="1"/><rect id="efb60oy7ea6v13" width="4.400000" height="4.400000" rx="0" ry="0" transform="matrix(1 0 0 1 1126.09999999999991 128.30000000000001)" fill="rgb(84,254,84)" stroke="none" stroke-width="1"/><rect id="efb60oy7ea6v14" width="4.400000" height="4.400000" rx="0" ry="0" transform="matrix(1 0 0 1 1130.50000000000000 128.30000000000001)" fill="rgb(84,254,84)" stroke="none" stroke-width="1"/><rect id="efb60oy7ea6v15" width="4.400000" height="4.400000" rx="0" ry="0" transform="matrix(1 0 0 1 1117.20000000000005 123.90000000000001)" fill="rgb(84,254,84)" stroke="none" stroke-width="1"/><rect id="efb60oy7ea6v16" width="4.400000" height="4.400000" rx="0" ry="0" transform="matrix(1 0 0 1 1121.59999999999991 123.90000000000001)" fill="rgb(84,254,84)" stroke="none" stroke-width="1"/><rect id="efb60oy7ea6v17" width="4.400000" height="4.400000" rx="0" ry="0" transform="matrix(1 0 0 1 1126.09999999999991 123.90000000000001)" fill="rgb(84,254,84)" stroke="none" stroke-width="1"/><rect id="efb60oy7ea6v18" width="4.400000" height="4.400000" rx="0" ry="0" transform="matrix(1 0 0 1 1130.50000000000000 123.90000000000001)" fill="rgb(84,254,84)" stroke="none" stroke-width="1"/><rect id="efb60oy7ea6v19" width="4.400000" height="4.400000" rx="0" ry="0" transform="matrix(1 0 0 1 1117.20000000000005 119.40000000000001)" fill="rgb(84,254,84)" stroke="none" stroke-width="1"/><rect id="efb60oy7ea6v20" width="4.400000" height="4.400000" rx="0" ry="0" transform="matrix(1 0 0 1 1121.59999999999991 119.40000000000001)" fill="rgb(84,254,84)" stroke="none" stroke-width="1"/><rect id="efb60oy7ea6v21" width="4.400000" height="4.400000" rx="0" ry="0" transform="matrix(1 0 0 1 1126.09999999999991 119.40000000000001)" fill="rgb(84,254,84)" stroke="none" stroke-width="1"/><rect id="efb60oy7ea6v22" width="4.400000" height="4.400000" rx="0" ry="0" transform="matrix(1 0 0 1 1130.50000000000000 119.40000000000001)" fill="rgb(84,254,84)" stroke="none" stroke-width="1"/><rect id="efb60oy7ea6v23" width="4.400000" height="4.400000" rx="0" ry="0" transform="matrix(1 0 0 1 1117.20000000000005 115)" fill="rgb(84,254,84)" stroke="none" stroke-width="1"/><rect id="efb60oy7ea6v24" width="4.400000" height="4.400000" rx="0" ry="0" transform="matrix(1 0 0 1 1112.79999999999995 123.90000000000001)" fill="rgb(84,254,84)" stroke="none" stroke-width="1"/><rect id="efb60oy7ea6v25" width="4.400000" height="4.400000" rx="0" ry="0" transform="matrix(1 0 0 1 1112.79999999999995 119.40000000000001)" fill="rgb(84,254,84)" stroke="none" stroke-width="1"/><rect id="efb60oy7ea6v26" width="4.400000" height="4.400000" rx="0" ry="0" transform="matrix(1 0 0 1 1112.79999999999995 115)" fill="rgb(84,254,84)" stroke="none" stroke-width="1"/><rect id="efb60oy7ea6v27" width="4.400000" height="4.400000" rx="0" ry="0" transform="matrix(1 0 0 1 1121.59999999999991 115)" fill="rgb(84,254,84)" stroke="none" stroke-width="1"/><rect id="efb60oy7ea6v28" width="4.400000" height="4.400000" rx="0" ry="0" transform="matrix(1 0 0 1 1126.09999999999991 115)" fill="rgb(84,254,84)" stroke="none" stroke-width="1"/><rect id="efb60oy7ea6v29" width="4.400000" height="4.400000" rx="0" ry="0" transform="matrix(1 0 0 1 1130.50000000000000 115)" fill="rgb(84,254,84)" stroke="none" stroke-width="1"/><rect id="efb60oy7ea6v30" width="4.400000" height="4.400000" rx="0" ry="0" transform="matrix(1 0 0 1 1117.20000000000005 110.50000000000000)" fill="rgb(84,254,84)" stroke="none" stroke-width="1"/><rect id="efb60oy7ea6v31" width="4.400000" height="4.400000" rx="0" ry="0" transform="matrix(1 0 0 1 1121.59999999999991 110.50000000000000)" fill="rgb(84,254,84)" stroke="none" stroke-width="1"/><rect id="efb60oy7ea6v32" width="4.400000" height="4.400000" rx="0" ry="0" transform="matrix(1 0 0 1 1126.09999999999991 110.50000000000000)" fill="rgb(84,254,84)" stroke="none" stroke-width="1"/><rect id="efb60oy7ea6v33" width="4.400000" height="4.400000" rx="0" ry="0" transform="matrix(1 0 0 1 1117.20000000000005 132.69999999999999)" fill="rgb(84,254,84)" stroke="none" stroke-width="1"/><rect id="efb60oy7ea6v34" width="4.400000" height="4.400000" rx="0" ry="0" transform="matrix(1 0 0 1 1121.59999999999991 132.69999999999999)" fill="rgb(84,254,84)" stroke="none" stroke-width="1"/><rect id="efb60oy7ea6v35" width="4.400000" height="4.400000" rx="0" ry="0" transform="matrix(1 0 0 1 1126.09999999999991 132.69999999999999)" fill="rgb(84,254,84)" stroke="none" stroke-width="1"/><rect id="efb60oy7ea6v36" width="4.400000" height="4.400000" rx="0" ry="0" transform="matrix(1 0 0 1 1130.50000000000000 132.69999999999999)" fill="rgb(84,254,84)" stroke="none" stroke-width="1"/><rect id="efb60oy7ea6v37" width="4.400000" height="4.400000" rx="0" ry="0" transform="matrix(1 0 0 1 1117.20000000000005 137.19999999999999)" fill="rgb(84,254,84)" stroke="none" stroke-width="1"/><rect id="efb60oy7ea6v38" width="4.400000" height="4.400000" rx="0" ry="0" transform="matrix(1 0 0 1 1121.59999999999991 137.19999999999999)" fill="rgb(84,254,84)" stroke="none" stroke-width="1"/><rect id="efb60oy7ea6v39" width="4.400000" height="4.400000" rx="0" ry="0" transform="matrix(1 0 0 1 1126.09999999999991 137.19999999999999)" fill="rgb(84,254,84)" stroke="none" stroke-width="1"/><rect id="efb60oy7ea6v40" width="4.400000" height="4.400000" rx="0" ry="0" transform="matrix(1 0 0 1 1121.59999999999991 141.59999999999999)" fill="rgb(84,254,84)" stroke="none" stroke-width="1"/><rect id="efb60oy7ea6v41" width="4.400000" height="4.400000" rx="0" ry="0" transform="matrix(1 0 0 1 1121.59999999999991 146.09999999999999)" fill="rgb(84,254,84)" stroke="none" stroke-width="1"/><g id="efb60oy7ea6v42_to" transform="translate(1119.399963,154.900002)"><polygon id="efb60oy7ea6v42" points="1117.200000,150.500000 1117.200000,154.900000 1117.200000,159.300000 1121.600000,159.300000 1121.600000,154.900000 1121.600000,150.500000" transform="translate(-1119.399963,-154.900002)" fill="rgb(84,254,84)" stroke="none" stroke-width="1"/></g><rect id="efb60oy7ea6v43" width="4.400000" height="4.400000" rx="0" ry="0" transform="matrix(1 0 0 1 1121.59999999999991 159.40000000000001)" fill="rgb(84,254,84)" stroke="none" stroke-width="1"/><rect id="efb60oy7ea6v44" width="4.400000" height="4.400000" rx="0" ry="0" transform="matrix(1 0 0 1 1121.59999999999991 163.80000000000001)" fill="rgb(84,254,84)" stroke="none" stroke-width="1"/><rect id="efb60oy7ea6v45" width="4.400000" height="4.400000" rx="0" ry="0" transform="matrix(1 0 0 1 1132.70000000000005 155.69999999999999)" fill="rgb(84,254,84)" stroke="none" stroke-width="1"/><rect id="efb60oy7ea6v46" width="4.400000" height="4.400000" rx="0" ry="0" transform="matrix(1 0 0 1 1132.70000000000005 160.09999999999999)" fill="rgb(84,254,84)" stroke="none" stroke-width="1"/><rect id="efb60oy7ea6v47" width="4.400000" height="4.400000" rx="0" ry="0" transform="matrix(1 0 0 1 1137.20000000000005 155.69999999999999)" fill="rgb(84,254,84)" stroke="none" stroke-width="1"/><rect id="efb60oy7ea6v48" width="4.400000" height="4.400000" rx="0" ry="0" transform="matrix(1 0 0 1 1141.59999999999991 155.69999999999999)" fill="rgb(84,254,84)" stroke="none" stroke-width="1"/><rect id="efb60oy7ea6v49" width="4.400000" height="4.400000" rx="0" ry="0" transform="matrix(1 0 0 1 1146 155.69999999999999)" fill="rgb(84,254,84)" stroke="none" stroke-width="1"/><rect id="efb60oy7ea6v50" width="4.400000" height="4.400000" rx="0" ry="0" transform="matrix(1 0 0 1 1150.50000000000000 155.69999999999999)" fill="rgb(84,254,84)" stroke="none" stroke-width="1"/><rect id="efb60oy7ea6v51" width="4.400000" height="4.400000" rx="0" ry="0" transform="matrix(1 0 0 1 1137.20000000000005 151.30000000000001)" fill="rgb(84,254,84)" stroke="none" stroke-width="1"/><rect id="efb60oy7ea6v52" width="4.400000" height="4.400000" rx="0" ry="0" transform="matrix(1 0 0 1 1141.59999999999991 151.30000000000001)" fill="rgb(84,254,84)" stroke="none" stroke-width="1"/><rect id="efb60oy7ea6v53" width="4.400000" height="4.400000" rx="0" ry="0" transform="matrix(1 0 0 1 1146 151.30000000000001)" fill="rgb(84,254,84)" stroke="none" stroke-width="1"/><rect id="efb60oy7ea6v54" width="4.400000" height="4.400000" rx="0" ry="0" transform="matrix(1 0 0 1 1150.50000000000000 151.30000000000001)" fill="rgb(84,254,84)" stroke="none" stroke-width="1"/><rect id="efb60oy7ea6v55" width="4.400000" height="4.400000" rx="0" ry="0" transform="matrix(1 0 0 1 1137.20000000000005 146.80000000000001)" fill="rgb(84,254,84)" stroke="none" stroke-width="1"/><rect id="efb60oy7ea6v56" width="4.400000" height="4.400000" rx="0" ry="0" transform="matrix(1 0 0 1 1141.59999999999991 146.80000000000001)" fill="rgb(84,254,84)" stroke="none" stroke-width="1"/><rect id="efb60oy7ea6v57" width="4.400000" height="4.400000" rx="0" ry="0" transform="matrix(1 0 0 1 1146 146.80000000000001)" fill="rgb(84,254,84)" stroke="none" stroke-width="1"/><rect id="efb60oy7ea6v58" width="4.400000" height="4.400000" rx="0" ry="0" transform="matrix(1 0 0 1 1150.50000000000000 146.80000000000001)" fill="rgb(84,254,84)" stroke="none" stroke-width="1"/><rect id="efb60oy7ea6v59" width="4.400000" height="4.400000" rx="0" ry="0" transform="matrix(1 0 0 1 1137.20000000000005 142.40000000000001)" fill="rgb(84,254,84)" stroke="none" stroke-width="1"/><rect id="efb60oy7ea6v60" width="4.400000" height="4.400000" rx="0" ry="0" transform="matrix(1 0 0 1 1132.70000000000005 151.30000000000001)" fill="rgb(84,254,84)" stroke="none" stroke-width="1"/><rect id="efb60oy7ea6v61" width="4.400000" height="4.400000" rx="0" ry="0" transform="matrix(1 0 0 1 1132.70000000000005 146.80000000000001)" fill="rgb(84,254,84)" stroke="none" stroke-width="1"/><rect id="efb60oy7ea6v62" width="4.400000" height="4.400000" rx="0" ry="0" transform="matrix(1 0 0 1 1132.70000000000005 142.40000000000001)" fill="rgb(84,254,84)" stroke="none" stroke-width="1"/><rect id="efb60oy7ea6v63" width="4.400000" height="4.400000" rx="0" ry="0" transform="matrix(1 0 0 1 1141.59999999999991 142.40000000000001)" fill="rgb(84,254,84)" stroke="none" stroke-width="1"/><rect id="efb60oy7ea6v64" width="4.400000" height="4.400000" rx="0" ry="0" transform="matrix(1 0 0 1 1146 142.40000000000001)" fill="rgb(84,254,84)" stroke="none" stroke-width="1"/><rect id="efb60oy7ea6v65" width="4.400000" height="4.400000" rx="0" ry="0" transform="matrix(1 0 0 1 1150.50000000000000 142.40000000000001)" fill="rgb(84,254,84)" stroke="none" stroke-width="1"/><rect id="efb60oy7ea6v66" width="4.400000" height="4.400000" rx="0" ry="0" transform="matrix(1 0 0 1 1137.20000000000005 137.90000000000001)" fill="rgb(84,254,84)" stroke="none" stroke-width="1"/><rect id="efb60oy7ea6v67" width="4.400000" height="4.400000" rx="0" ry="0" transform="matrix(1 0 0 1 1141.59999999999991 137.90000000000001)" fill="rgb(84,254,84)" stroke="none" stroke-width="1"/><rect id="efb60oy7ea6v68" width="4.400000" height="4.400000" rx="0" ry="0" transform="matrix(1 0 0 1 1146 137.90000000000001)" fill="rgb(84,254,84)" stroke="none" stroke-width="1"/><rect id="efb60oy7ea6v69" width="4.400000" height="4.400000" rx="0" ry="0" transform="matrix(1 0 0 1 1137.20000000000005 160.09999999999999)" fill="rgb(84,254,84)" stroke="none" stroke-width="1"/><rect id="efb60oy7ea6v70" width="4.400000" height="4.400000" rx="0" ry="0" transform="matrix(1 0 0 1 1141.59999999999991 160.09999999999999)" fill="rgb(84,254,84)" stroke="none" stroke-width="1"/><rect id="efb60oy7ea6v71" width="4.400000" height="4.400000" rx="0" ry="0" transform="matrix(1 0 0 1 1146 160.09999999999999)" fill="rgb(84,254,84)" stroke="none" stroke-width="1"/><rect id="efb60oy7ea6v72" width="4.400000" height="4.400000" rx="0" ry="0" transform="matrix(1 0 0 1 1150.50000000000000 160.09999999999999)" fill="rgb(84,254,84)" stroke="none" stroke-width="1"/><rect id="efb60oy7ea6v73" width="4.400000" height="4.400000" rx="0" ry="0" transform="matrix(1 0 0 1 1137.20000000000005 164.59999999999999)" fill="rgb(84,254,84)" stroke="none" stroke-width="1"/><rect id="efb60oy7ea6v74" width="4.400000" height="4.400000" rx="0" ry="0" transform="matrix(1 0 0 1 1141.59999999999991 164.59999999999999)" fill="rgb(84,254,84)" stroke="none" stroke-width="1"/><rect id="efb60oy7ea6v75" width="4.400000" height="4.400000" rx="0" ry="0" transform="matrix(1 0 0 1 1146 164.59999999999999)" fill="rgb(84,254,84)" stroke="none" stroke-width="1"/><rect id="efb60oy7ea6v76" width="4.400000" height="4.400000" rx="0" ry="0" transform="matrix(1 0 0 1 1141.59999999999991 169)" fill="rgb(84,254,84)" stroke="none" stroke-width="1"/><rect id="efb60oy7ea6v77" width="4.400000" height="4.400000" rx="0" ry="0" transform="matrix(1 0 0 1 1141.59999999999991 173.50000000000000)" fill="rgb(84,254,84)" stroke="none" stroke-width="1"/><g id="efb60oy7ea6v78_to" transform="translate(1148.299988,182.299995)"><polygon id="efb60oy7ea6v78" points="1146.100000,177.900000 1146.100000,182.300000 1146.100000,186.700000 1150.500000,186.700000 1150.500000,182.300000 1150.500000,177.900000" transform="translate(-1148.299988,-182.299995)" fill="rgb(84,254,84)" stroke="none" stroke-width="1"/></g><rect id="efb60oy7ea6v79" width="4.400000" height="4.400000" rx="0" ry="0" transform="matrix(1 0 0 1 1141.59999999999991 186.80000000000001)" fill="rgb(84,254,84)" stroke="none" stroke-width="1"/><rect id="efb60oy7ea6v80" width="4.400000" height="4.400000" rx="0" ry="0" transform="matrix(1 0 0 1 1141.59999999999991 191.19999999999999)" fill="rgb(84,254,84)" stroke="none" stroke-width="1"/></g><g id="efb60oy7ea6v81"><rect id="efb60oy7ea6v82" width="4.400000" height="4.400000" rx="0" ry="0" transform="matrix(1 0 0 1 52.80000000000000 128.30000000000001)" fill="rgb(84,254,84)" stroke="none" stroke-width="1"/><rect id="efb60oy7ea6v83" width="4.400000" height="4.400000" rx="0" ry="0" transform="matrix(1 0 0 1 52.80000000000000 132.69999999999999)" fill="rgb(84,254,84)" stroke="none" stroke-width="1"/><rect id="efb60oy7ea6v84" width="4.400000" height="4.400000" rx="0" ry="0" transform="matrix(1 0 0 1 57.20000000000000 128.30000000000001)" fill="rgb(84,254,84)" stroke="none" stroke-width="1"/><rect id="efb60oy7ea6v85" width="4.400000" height="4.400000" rx="0" ry="0" transform="matrix(1 0 0 1 61.70000000000000 128.30000000000001)" fill="rgb(84,254,84)" stroke="none" stroke-width="1"/><rect id="efb60oy7ea6v86" width="4.400000" height="4.400000" rx="0" ry="0" transform="matrix(1 0 0 1 66.09999999999999 128.30000000000001)" fill="rgb(84,254,84)" stroke="none" stroke-width="1"/><rect id="efb60oy7ea6v87" width="4.400000" height="4.400000" rx="0" ry="0" transform="matrix(1 0 0 1 70.59999999999999 128.30000000000001)" fill="rgb(84,254,84)" stroke="none" stroke-width="1"/><rect id="efb60oy7ea6v88" width="4.400000" height="4.400000" rx="0" ry="0" transform="matrix(1 0 0 1 57.20000000000000 123.90000000000001)" fill="rgb(84,254,84)" stroke="none" stroke-width="1"/><rect id="efb60oy7ea6v89" width="4.400000" height="4.400000" rx="0" ry="0" transform="matrix(1 0 0 1 61.70000000000000 123.90000000000001)" fill="rgb(84,254,84)" stroke="none" stroke-width="1"/><rect id="efb60oy7ea6v90" width="4.400000" height="4.400000" rx="0" ry="0" transform="matrix(1 0 0 1 66.09999999999999 123.90000000000001)" fill="rgb(84,254,84)" stroke="none" stroke-width="1"/><rect id="efb60oy7ea6v91" width="4.400000" height="4.400000" rx="0" ry="0" transform="matrix(1 0 0 1 70.59999999999999 123.90000000000001)" fill="rgb(84,254,84)" stroke="none" stroke-width="1"/><rect id="efb60oy7ea6v92" width="4.400000" height="4.400000" rx="0" ry="0" transform="matrix(1 0 0 1 57.20000000000000 119.40000000000001)" fill="rgb(84,254,84)" stroke="none" stroke-width="1"/><rect id="efb60oy7ea6v93" width="4.400000" height="4.400000" rx="0" ry="0" transform="matrix(1 0 0 1 61.70000000000000 119.40000000000001)" fill="rgb(84,254,84)" stroke="none" stroke-width="1"/><rect id="efb60oy7ea6v94" width="4.400000" height="4.400000" rx="0" ry="0" transform="matrix(1 0 0 1 66.09999999999999 119.40000000000001)" fill="rgb(84,254,84)" stroke="none" stroke-width="1"/><rect id="efb60oy7ea6v95" width="4.400000" height="4.400000" rx="0" ry="0" transform="matrix(1 0 0 1 70.59999999999999 119.40000000000001)" fill="rgb(84,254,84)" stroke="none" stroke-width="1"/><rect id="efb60oy7ea6v96" width="4.400000" height="4.400000" rx="0" ry="0" transform="matrix(1 0 0 1 57.20000000000000 115)" fill="rgb(84,254,84)" stroke="none" stroke-width="1"/><rect id="efb60oy7ea6v97" width="4.400000" height="4.400000" rx="0" ry="0" transform="matrix(1 0 0 1 52.80000000000000 123.90000000000001)" fill="rgb(84,254,84)" stroke="none" stroke-width="1"/><rect id="efb60oy7ea6v98" width="4.400000" height="4.400000" rx="0" ry="0" transform="matrix(1 0 0 1 52.80000000000000 119.40000000000001)" fill="rgb(84,254,84)" stroke="none" stroke-width="1"/><rect id="efb60oy7ea6v99" width="4.400000" height="4.400000" rx="0" ry="0" transform="matrix(1 0 0 1 52.80000000000000 115)" fill="rgb(84,254,84)" stroke="none" stroke-width="1"/><rect id="efb60oy7ea6v100" width="4.400000" height="4.400000" rx="0" ry="0" transform="matrix(1 0 0 1 61.70000000000000 115)" fill="rgb(84,254,84)" stroke="none" stroke-width="1"/><rect id="efb60oy7ea6v101" width="4.400000" height="4.400000" rx="0" ry="0" transform="matrix(1 0 0 1 66.09999999999999 115)" fill="rgb(84,254,84)" stroke="none" stroke-width="1"/><rect id="efb60oy7ea6v102" width="4.400000" height="4.400000" rx="0" ry="0" transform="matrix(1 0 0 1 70.59999999999999 115)" fill="rgb(84,254,84)" stroke="none" stroke-width="1"/><rect id="efb60oy7ea6v103" width="4.400000" height="4.400000" rx="0" ry="0" transform="matrix(1 0 0 1 57.20000000000000 110.50000000000000)" fill="rgb(84,254,84)" stroke="none" stroke-width="1"/><rect id="efb60oy7ea6v104" width="4.400000" height="4.400000" rx="0" ry="0" transform="matrix(1 0 0 1 61.70000000000000 110.50000000000000)" fill="rgb(84,254,84)" stroke="none" stroke-width="1"/><rect id="efb60oy7ea6v105" width="4.400000" height="4.400000" rx="0" ry="0" transform="matrix(1 0 0 1 66.09999999999999 110.50000000000000)" fill="rgb(84,254,84)" stroke="none" stroke-width="1"/><rect id="efb60oy7ea6v106" width="4.400000" height="4.400000" rx="0" ry="0" transform="matrix(1 0 0 1 57.20000000000000 132.69999999999999)" fill="rgb(84,254,84)" stroke="none" stroke-width="1"/><rect id="efb60oy7ea6v107" width="4.400000" height="4.400000" rx="0" ry="0" transform="matrix(1 0 0 1 61.70000000000000 132.69999999999999)" fill="rgb(84,254,84)" stroke="none" stroke-width="1"/><rect id="efb60oy7ea6v108" width="4.400000" height="4.400000" rx="0" ry="0" transform="matrix(1 0 0 1 66.09999999999999 132.69999999999999)" fill="rgb(84,254,84)" stroke="none" stroke-width="1"/><rect id="efb60oy7ea6v109" width="4.400000" height="4.400000" rx="0" ry="0" transform="matrix(1 0 0 1 70.59999999999999 132.69999999999999)" fill="rgb(84,254,84)" stroke="none" stroke-width="1"/><rect id="efb60oy7ea6v110" width="4.400000" height="4.400000" rx="0" ry="0" transform="matrix(1 0 0 1 57.20000000000000 137.19999999999999)" fill="rgb(84,254,84)" stroke="none" stroke-width="1"/><rect id="efb60oy7ea6v111" width="4.400000" height="4.400000" rx="0" ry="0" transform="matrix(1 0 0 1 61.70000000000000 137.19999999999999)" fill="rgb(84,254,84)" stroke="none" stroke-width="1"/><rect id="efb60oy7ea6v112" width="4.400000" height="4.400000" rx="0" ry="0" transform="matrix(1 0 0 1 66.09999999999999 137.19999999999999)" fill="rgb(84,254,84)" stroke="none" stroke-width="1"/><rect id="efb60oy7ea6v113" width="4.400000" height="4.400000" rx="0" ry="0" transform="matrix(1 0 0 1 61.70000000000000 141.59999999999999)" fill="rgb(84,254,84)" stroke="none" stroke-width="1"/><rect id="efb60oy7ea6v114" width="4.400000" height="4.400000" rx="0" ry="0" transform="matrix(1 0 0 1 61.70000000000000 146.09999999999999)" fill="rgb(84,254,84)" stroke="none" stroke-width="1"/><g id="efb60oy7ea6v115_to" transform="translate(59.500000,154.900002)"><polygon id="efb60oy7ea6v115" points="57.200000,150.500000 57.200000,154.900000 57.200000,159.300000 61.600000,159.300000 61.600000,154.900000 61.600000,150.500000" transform="translate(-59.400000,-154.900002)" fill="rgb(84,254,84)" stroke="none" stroke-width="1"/></g><rect id="efb60oy7ea6v116" width="4.400000" height="4.400000" rx="0" ry="0" transform="matrix(1 0 0 1 61.70000000000000 159.40000000000001)" fill="rgb(84,254,84)" stroke="none" stroke-width="1"/><rect id="efb60oy7ea6v117" width="4.400000" height="4.400000" rx="0" ry="0" transform="matrix(1 0 0 1 61.70000000000000 163.80000000000001)" fill="rgb(84,254,84)" stroke="none" stroke-width="1"/><rect id="efb60oy7ea6v118" width="4.400000" height="4.400000" rx="0" ry="0" transform="matrix(1 0 0 1 72.80000000000000 155.69999999999999)" fill="rgb(84,254,84)" stroke="none" stroke-width="1"/><rect id="efb60oy7ea6v119" width="4.400000" height="4.400000" rx="0" ry="0" transform="matrix(1 0 0 1 72.80000000000000 160.09999999999999)" fill="rgb(84,254,84)" stroke="none" stroke-width="1"/><rect id="efb60oy7ea6v120" width="4.400000" height="4.400000" rx="0" ry="0" transform="matrix(1 0 0 1 77.20000000000000 155.69999999999999)" fill="rgb(84,254,84)" stroke="none" stroke-width="1"/><rect id="efb60oy7ea6v121" width="4.400000" height="4.400000" rx="0" ry="0" transform="matrix(1 0 0 1 81.70000000000000 155.69999999999999)" fill="rgb(84,254,84)" stroke="none" stroke-width="1"/><rect id="efb60oy7ea6v122" width="4.400000" height="4.400000" rx="0" ry="0" transform="matrix(1 0 0 1 86.09999999999999 155.69999999999999)" fill="rgb(84,254,84)" stroke="none" stroke-width="1"/><rect id="efb60oy7ea6v123" width="4.400000" height="4.400000" rx="0" ry="0" transform="matrix(1 0 0 1 90.50000000000000 155.69999999999999)" fill="rgb(84,254,84)" stroke="none" stroke-width="1"/><rect id="efb60oy7ea6v124" width="4.400000" height="4.400000" rx="0" ry="0" transform="matrix(1 0 0 1 77.20000000000000 151.30000000000001)" fill="rgb(84,254,84)" stroke="none" stroke-width="1"/><rect id="efb60oy7ea6v125" width="4.400000" height="4.400000" rx="0" ry="0" transform="matrix(1 0 0 1 81.70000000000000 151.30000000000001)" fill="rgb(84,254,84)" stroke="none" stroke-width="1"/><rect id="efb60oy7ea6v126" width="4.400000" height="4.400000" rx="0" ry="0" transform="matrix(1 0 0 1 86.09999999999999 151.30000000000001)" fill="rgb(84,254,84)" stroke="none" stroke-width="1"/><rect id="efb60oy7ea6v127" width="4.400000" height="4.400000" rx="0" ry="0" transform="matrix(1 0 0 1 90.50000000000000 151.30000000000001)" fill="rgb(84,254,84)" stroke="none" stroke-width="1"/><rect id="efb60oy7ea6v128" width="4.400000" height="4.400000" rx="0" ry="0" transform="matrix(1 0 0 1 77.20000000000000 146.80000000000001)" fill="rgb(84,254,84)" stroke="none" stroke-width="1"/><rect id="efb60oy7ea6v129" width="4.400000" height="4.400000" rx="0" ry="0" transform="matrix(1 0 0 1 81.70000000000000 146.80000000000001)" fill="rgb(84,254,84)" stroke="none" stroke-width="1"/><rect id="efb60oy7ea6v130" width="4.400000" height="4.400000" rx="0" ry="0" transform="matrix(1 0 0 1 86.09999999999999 146.80000000000001)" fill="rgb(84,254,84)" stroke="none" stroke-width="1"/><rect id="efb60oy7ea6v131" width="4.400000" height="4.400000" rx="0" ry="0" transform="matrix(1 0 0 1 90.50000000000000 146.80000000000001)" fill="rgb(84,254,84)" stroke="none" stroke-width="1"/><rect id="efb60oy7ea6v132" width="4.400000" height="4.400000" rx="0" ry="0" transform="matrix(1 0 0 1 77.20000000000000 142.40000000000001)" fill="rgb(84,254,84)" stroke="none" stroke-width="1"/><rect id="efb60oy7ea6v133" width="4.400000" height="4.400000" rx="0" ry="0" transform="matrix(1 0 0 1 72.80000000000000 151.30000000000001)" fill="rgb(84,254,84)" stroke="none" stroke-width="1"/><rect id="efb60oy7ea6v134" width="4.400000" height="4.400000" rx="0" ry="0" transform="matrix(1 0 0 1 72.80000000000000 146.80000000000001)" fill="rgb(84,254,84)" stroke="none" stroke-width="1"/><rect id="efb60oy7ea6v135" width="4.400000" height="4.400000" rx="0" ry="0" transform="matrix(1 0 0 1 72.80000000000000 142.40000000000001)" fill="rgb(84,254,84)" stroke="none" stroke-width="1"/><rect id="efb60oy7ea6v136" width="4.400000" height="4.400000" rx="0" ry="0" transform="matrix(1 0 0 1 81.70000000000000 142.40000000000001)" fill="rgb(84,254,84)" stroke="none" stroke-width="1"/><rect id="efb60oy7ea6v137" width="4.400000" height="4.400000" rx="0" ry="0" transform="matrix(1 0 0 1 86.09999999999999 142.40000000000001)" fill="rgb(84,254,84)" stroke="none" stroke-width="1"/><rect id="efb60oy7ea6v138" width="4.400000" height="4.400000" rx="0" ry="0" transform="matrix(1 0 0 1 90.50000000000000 142.40000000000001)" fill="rgb(84,254,84)" stroke="none" stroke-width="1"/><rect id="efb60oy7ea6v139" width="4.400000" height="4.400000" rx="0" ry="0" transform="matrix(1 0 0 1 77.20000000000000 137.90000000000001)" fill="rgb(84,254,84)" stroke="none" stroke-width="1"/><rect id="efb60oy7ea6v140" width="4.400000" height="4.400000" rx="0" ry="0" transform="matrix(1 0 0 1 81.70000000000000 137.90000000000001)" fill="rgb(84,254,84)" stroke="none" stroke-width="1"/><rect id="efb60oy7ea6v141" width="4.400000" height="4.400000" rx="0" ry="0" transform="matrix(1 0 0 1 86.09999999999999 137.90000000000001)" fill="rgb(84,254,84)" stroke="none" stroke-width="1"/><rect id="efb60oy7ea6v142" width="4.400000" height="4.400000" rx="0" ry="0" transform="matrix(1 0 0 1 77.20000000000000 160.09999999999999)" fill="rgb(84,254,84)" stroke="none" stroke-width="1"/><rect id="efb60oy7ea6v143" width="4.400000" height="4.400000" rx="0" ry="0" transform="matrix(1 0 0 1 81.70000000000000 160.09999999999999)" fill="rgb(84,254,84)" stroke="none" stroke-width="1"/><rect id="efb60oy7ea6v144" width="4.400000" height="4.400000" rx="0" ry="0" transform="matrix(1 0 0 1 86.09999999999999 160.09999999999999)" fill="rgb(84,254,84)" stroke="none" stroke-width="1"/><rect id="efb60oy7ea6v145" width="4.400000" height="4.400000" rx="0" ry="0" transform="matrix(1 0 0 1 90.50000000000000 160.09999999999999)" fill="rgb(84,254,84)" stroke="none" stroke-width="1"/><rect id="efb60oy7ea6v146" width="4.400000" height="4.400000" rx="0" ry="0" transform="matrix(1 0 0 1 77.20000000000000 164.59999999999999)" fill="rgb(84,254,84)" stroke="none" stroke-width="1"/><rect id="efb60oy7ea6v147" width="4.400000" height="4.400000" rx="0" ry="0" transform="matrix(1 0 0 1 81.70000000000000 164.59999999999999)" fill="rgb(84,254,84)" stroke="none" stroke-width="1"/><rect id="efb60oy7ea6v148" width="4.400000" height="4.400000" rx="0" ry="0" transform="matrix(1 0 0 1 86.09999999999999 164.59999999999999)" fill="rgb(84,254,84)" stroke="none" stroke-width="1"/><rect id="efb60oy7ea6v149" width="4.400000" height="4.400000" rx="0" ry="0" transform="matrix(1 0 0 1 81.70000000000000 169)" fill="rgb(84,254,84)" stroke="none" stroke-width="1"/><rect id="efb60oy7ea6v150" width="4.400000" height="4.400000" rx="0" ry="0" transform="matrix(1 0 0 1 81.70000000000000 173.50000000000000)" fill="rgb(84,254,84)" stroke="none" stroke-width="1"/><g id="efb60oy7ea6v151_to" transform="translate(88.299999,182.299995)"><polygon id="efb60oy7ea6v151" points="86.100000,177.900000 86.100000,182.300000 86.100000,186.700000 90.500000,186.700000 90.500000,182.300000 90.500000,177.900000" transform="translate(-88.299999,-182.299995)" fill="rgb(84,254,84)" stroke="none" stroke-width="1"/></g><rect id="efb60oy7ea6v152" width="4.400000" height="4.400000" rx="0" ry="0" transform="matrix(1 0 0 1 81.70000000000000 186.80000000000001)" fill="rgb(84,254,84)" stroke="none" stroke-width="1"/><rect id="efb60oy7ea6v153" width="4.400000" height="4.400000" rx="0" ry="0" transform="matrix(1 0 0 1 81.70000000000000 191.19999999999999)" fill="rgb(84,254,84)" stroke="none" stroke-width="1"/></g><g id="efb60oy7ea6v154_to" transform="translate(315.700012,175.500000)"><g id="efb60oy7ea6v154" transform="translate(-315.700012,-185.500000)"><g id="efb60oy7ea6v155"><path id="efb60oy7ea6v156" d="M336.600000,171.200000L334.900000,171.200000L334.900000,169.500000C334.900000,169.400000,334.800000,169.200000,334.600000,169.200000L333,169.200000L333,167.500000C333,167.400000,332.900000,167.200000,332.700000,167.200000L330.700000,167.200000L328.700000,167.200000L326.700000,167.200000L324.700000,167.200000L322.700000,167.200000L320.700000,167.200000L318.700000,167.200000L316.700000,167.200000L314.700000,167.200000L312.700000,167.200000L310.700000,167.200000L308.700000,167.200000L306.700000,167.200000L304.700000,167.200000L302.700000,167.200000L300.700000,167.200000L298.700000,167.200000C298.600000,167.200000,298.400000,167.300000,298.400000,167.500000L298.400000,169.200000L296.700000,169.200000C296.600000,169.200000,296.400000,169.300000,296.400000,169.500000L296.400000,171.200000L294.700000,171.200000C294.600000,171.200000,294.400000,171.300000,294.400000,171.500000L294.400000,173.500000L294.400000,175.500000L294.400000,177.500000L294.400000,179.500000L294.400000,181.500000L294.400000,183.500000L294.400000,185.500000L294.400000,187.500000L294.400000,189.500000L294.400000,191.500000C294.400000,191.600000,294.500000,191.800000,294.700000,191.800000L296.400000,191.800000L296.400000,193.500000C296.400000,193.600000,296.500000,193.800000,296.700000,193.800000L298.400000,193.800000L298.400000,195.500000C298.400000,195.600000,298.500000,195.800000,298.700000,195.800000L300.700000,195.800000L302.700000,195.800000L304.700000,195.800000L306.700000,195.800000L308.700000,195.800000L310.700000,195.800000L312.700000,195.800000L314.700000,195.800000L316.700000,195.800000L318.700000,195.800000L320.700000,195.800000L322.700000,195.800000L324.700000,195.800000L326.400000,195.800000L326.400000,197.500000C326.400000,197.600000,326.500000,197.800000,326.700000,197.800000L328.400000,197.800000L328.400000,199.500000C328.400000,199.600000,328.500000,199.800000,328.700000,199.800000L330.400000,199.800000L330.400000,201.500000C330.400000,201.600000,330.500000,201.800000,330.700000,201.800000L332.700000,201.800000L334.400000,201.800000L334.400000,203.500000C334.400000,203.600000,334.500000,203.800000,334.700000,203.800000L336.700000,203.800000C336.800000,203.800000,337,203.700000,337,203.500000L337,201.500000L337,199.500000L337,197.500000L337,195.500000L337,193.500000L337,191.500000L337,189.500000L337,187.500000L337,185.500000L337,183.500000L337,181.500000L337,179.500000L337,177.500000L337,175.500000L337,173.500000L337,171.500000C336.900000,171.300000,336.800000,171.200000,336.600000,171.200000ZM301.200000,169.800000L303.200000,169.800000L305.200000,169.800000L307.200000,169.800000L309.200000,169.800000L311.200000,169.800000L313.200000,169.800000L315.200000,169.800000L317.200000,169.800000L319.200000,169.800000L321.200000,169.800000L323.200000,169.800000L325.200000,169.800000L327.200000,169.800000L329.200000,169.800000L331.200000,169.800000L332.900000,169.800000L332.900000,169.800000L300,169.800000L300,169.800000L301.200000,169.800000Z" opacity="0.63" fill="rgb(255,255,255)" stroke="none" stroke-width="1"/></g><g id="efb60oy7ea6v157"><g id="efb60oy7ea6v158"><g id="efb60oy7ea6v159"><g id="efb60oy7ea6v160" clip-path="url(#efb60oy7ea6v169)"><g id="efb60oy7ea6v161"><g id="efb60oy7ea6v162"><rect id="efb60oy7ea6v163" width="3.700000" height="12.500000" rx="0" ry="0" transform="matrix(0.71440000000000 -0.69970000000000 0.69970000000000 0.71440000000000 318.13964000000004 180.28127999999998)" fill="rgb(0,0,0)" stroke="none" stroke-width="1"/><rect id="efb60oy7ea6v164" width="3.700000" height="12.500000" rx="0" ry="0" transform="matrix(0.71440000000000 -0.69970000000000 0.69970000000000 0.71440000000000 308.45013000000012 170.38380999999998)" fill="rgb(0,0,0)" stroke="none" stroke-width="1"/></g><g id="efb60oy7ea6v165"><rect id="efb60oy7ea6v166" width="3.700000" height="12.500000" rx="0" ry="0" transform="matrix(0.71440000000000 -0.69970000000000 0.69970000000000 0.71440000000000 301.52656000000002 177.08122000000006)" fill="rgb(0,0,0)" stroke="none" stroke-width="1"/><rect id="efb60oy7ea6v167" width="3.700000" height="12.500000" rx="0" ry="0" transform="matrix(0.71440000000000 -0.69970000000000 0.69970000000000 0.71440000000000 311.21607000000006 186.97869000000006)" fill="rgb(0,0,0)" stroke="none" stroke-width="1"/></g><polygon id="efb60oy7ea6v168" points="317.400000,181.100000 316.400000,180.100000 307.600000,171.200000 305,173.700000 313.800000,182.600000 314.700000,183.600000 323.500000,192.600000 326.100000,190" fill="rgb(0,0,0)" stroke="none" stroke-width="1"/></g><clipPath id="efb60oy7ea6v169"><use id="efb60oy7ea6v170" width="21.799999" height="21.799999" xlink:href="#efb60oy7ea6v2" transform="matrix(1 0 0 1 315.80000000000001 181.59999999999999)" fill="rgb(0,0,0)" stroke="none" stroke-width="1"/></clipPath></g></g></g><circle id="efb60oy7ea6v171" r="10.900000" transform="matrix(1 0 0 1 315.80000000000001 181.40000000000001)" fill="none" stroke="rgb(29,29,27)" stroke-width="0.937000" stroke-miterlimit="10"/></g></g></g><g id="efb60oy7ea6v172_to" transform="translate(375.500000,185.500000)"><g id="efb60oy7ea6v172" transform="translate(-375.500000,-185.500000)"><g id="efb60oy7ea6v173"><path id="efb60oy7ea6v174" d="M396.500000,171.200000L394.800000,171.200000L394.800000,169.500000C394.800000,169.400000,394.700000,169.200000,394.500000,169.200000L392.800000,169.200000L392.800000,167.500000C392.800000,167.400000,392.700000,167.200000,392.500000,167.200000L390.500000,167.200000L388.500000,167.200000L386.500000,167.200000L384.500000,167.200000L382.500000,167.200000L380.500000,167.200000L378.500000,167.200000L376.500000,167.200000L374.500000,167.200000L372.500000,167.200000L370.500000,167.200000L368.500000,167.200000L366.500000,167.200000L364.500000,167.200000L362.500000,167.200000L360.500000,167.200000L358.500000,167.200000C358.400000,167.200000,358.200000,167.300000,358.200000,167.500000L358.200000,169.200000L356.500000,169.200000C356.400000,169.200000,356.200000,169.300000,356.200000,169.500000L356.200000,171.200000L354.500000,171.200000C354.400000,171.200000,354.200000,171.300000,354.200000,171.500000L354.200000,173.500000L354.200000,175.500000L354.200000,177.500000L354.200000,179.500000L354.200000,181.500000L354.200000,183.500000L354.200000,185.500000L354.200000,187.500000L354.200000,189.500000L354.200000,191.500000C354.200000,191.600000,354.300000,191.800000,354.500000,191.800000L356.200000,191.800000L356.200000,193.500000C356.200000,193.600000,356.300000,193.800000,356.500000,193.800000L358.200000,193.800000L358.200000,195.500000C358.200000,195.600000,358.300000,195.800000,358.500000,195.800000L360.500000,195.800000L362.500000,195.800000L364.500000,195.800000L366.500000,195.800000L368.500000,195.800000L370.500000,195.800000L372.500000,195.800000L374.500000,195.800000L376.500000,195.800000L378.500000,195.800000L380.500000,195.800000L382.500000,195.800000L384.500000,195.800000L386.200000,195.800000L386.200000,197.500000C386.200000,197.600000,386.300000,197.800000,386.500000,197.800000L388.200000,197.800000L388.200000,199.500000C388.200000,199.600000,388.300000,199.800000,388.500000,199.800000L390.200000,199.800000L390.200000,201.500000C390.200000,201.600000,390.300000,201.800000,390.500000,201.800000L392.500000,201.800000L394.200000,201.800000L394.200000,203.500000C394.200000,203.600000,394.300000,203.800000,394.500000,203.800000L396.500000,203.800000C396.600000,203.800000,396.800000,203.700000,396.800000,203.500000L396.800000,201.500000L396.800000,199.500000L396.800000,197.500000L396.800000,195.500000L396.800000,193.500000L396.800000,191.500000L396.800000,189.500000L396.800000,187.500000L396.800000,185.500000L396.800000,183.500000L396.800000,181.500000L396.800000,179.500000L396.800000,177.500000L396.800000,175.500000L396.800000,173.500000L396.800000,171.500000C396.700000,171.300000,396.600000,171.200000,396.500000,171.200000ZM361.100000,169.800000L363.100000,169.800000L365.100000,169.800000L367.100000,169.800000L369.100000,169.800000L371.100000,169.800000L373.100000,169.800000L375.100000,169.800000L377.100000,169.800000L379.100000,169.800000L381.100000,169.800000L383.100000,169.800000L385.100000,169.800000L387.100000,169.800000L389.100000,169.800000L391.100000,169.800000L392.800000,169.800000L392.800000,169.800000L359.900000,169.800000L359.900000,169.800000L361.100000,169.800000Z" opacity="0.63" fill="rgb(255,255,255)" stroke="none" stroke-width="1"/></g><g id="efb60oy7ea6v175"><g id="efb60oy7ea6v176"><g id="efb60oy7ea6v177"><g id="efb60oy7ea6v178" clip-path="url(#efb60oy7ea6v189)"><g id="efb60oy7ea6v179"><g id="efb60oy7ea6v180"><rect id="efb60oy7ea6v181" width="12.500000" height="3.700000" rx="0" ry="0" transform="matrix(0.71440000000000 -0.69970000000000 0.69970000000000 0.71440000000000 370.76994000000008 176.51013000000000)" fill="rgb(0,0,0)" stroke="none" stroke-width="1"/><rect id="efb60oy7ea6v182" width="12.500000" height="3.700000" rx="0" ry="0" transform="matrix(0.71440000000000 -0.69970000000000 0.69970000000000 0.71440000000000 360.87177000000008 186.19984000000005)" fill="rgb(0,0,0)" stroke="none" stroke-width="1"/></g><g id="efb60oy7ea6v183"><rect id="efb60oy7ea6v184" width="12.500000" height="3.700000" rx="0" ry="0" transform="matrix(0.71440000000000 -0.69970000000000 0.69970000000000 0.71440000000000 364.31078000000008 189.71226000000004)" fill="rgb(0,0,0)" stroke="none" stroke-width="1"/><rect id="efb60oy7ea6v185" width="12.500000" height="3.700000" rx="0" ry="0" transform="matrix(0.71440000000000 -0.69970000000000 0.69970000000000 0.71440000000000 374.16898000000003 179.88211000000001)" fill="rgb(0,0,0)" stroke="none" stroke-width="1"/></g><g id="efb60oy7ea6v186"><rect id="efb60oy7ea6v187" width="12.500000" height="3.700000" rx="0" ry="0" transform="matrix(0.71440000000000 -0.69970000000000 0.69970000000000 0.71440000000000 367.56898000000007 193.12321000000003)" fill="rgb(0,0,0)" stroke="none" stroke-width="1"/><rect id="efb60oy7ea6v188" width="12.500000" height="3.700000" rx="0" ry="0" transform="matrix(0.71440000000000 -0.69970000000000 0.69970000000000 0.71440000000000 377.46725000000009 183.43450000000004)" fill="rgb(0,0,0)" stroke="none" stroke-width="1"/></g></g><clipPath id="efb60oy7ea6v189"><use id="efb60oy7ea6v190" width="21.799999" height="21.799999" xlink:href="#efb60oy7ea6v3" transform="matrix(1 0 0 1 375.10000000000002 181.59999999999999)" fill="rgb(0,0,0)" stroke="none" stroke-width="1"/></clipPath></g></g></g><circle id="efb60oy7ea6v191" r="10.900000" transform="matrix(1 0 0 1 375.10000000000002 181.40000000000001)" fill="none" stroke="rgb(29,29,27)" stroke-width="0.937000" stroke-miterlimit="10"/></g></g></g><g id="efb60oy7ea6v192_to" transform="translate(850.899963,185.500000)"><g id="efb60oy7ea6v192" transform="translate(-850.899963,-185.500000)"><g id="efb60oy7ea6v193" opacity="0.63"><path id="efb60oy7ea6v194" d="M829.600000,171.500000L829.600000,173.500000L829.600000,175.500000L829.600000,177.500000L829.600000,179.500000L829.600000,181.500000L829.600000,183.500000L829.600000,185.500000L829.600000,187.500000L829.600000,189.500000L829.600000,191.500000L829.600000,193.500000L829.600000,195.500000L829.600000,197.500000L829.600000,199.500000L829.600000,201.500000L829.600000,203.500000C829.600000,203.600000,829.700000,203.800000,829.900000,203.800000L831.900000,203.800000C832,203.800000,832.200000,203.700000,832.200000,203.500000L832.200000,201.800000L833.900000,201.800000L835.900000,201.800000C836,201.800000,836.200000,201.700000,836.200000,201.500000L836.200000,199.800000L837.900000,199.800000C838,199.800000,838.200000,199.700000,838.200000,199.500000L838.200000,197.800000L839.900000,197.800000C840,197.800000,840.200000,197.700000,840.200000,197.500000L840.200000,195.800000L841.900000,195.800000L843.900000,195.800000L845.900000,195.800000L847.900000,195.800000L849.900000,195.800000L851.900000,195.800000L853.900000,195.800000L855.900000,195.800000L857.900000,195.800000L859.900000,195.800000L861.900000,195.800000L863.900000,195.800000L865.900000,195.800000L867.900000,195.800000C868,195.800000,868.200000,195.700000,868.200000,195.500000L868.200000,193.800000L869.900000,193.800000C870,193.800000,870.200000,193.700000,870.200000,193.500000L870.200000,191.800000L871.900000,191.800000C872,191.800000,872.200000,191.700000,872.200000,191.500000L872.200000,189.500000L872.200000,187.500000L872.200000,185.500000L872.200000,183.500000L872.200000,181.500000L872.200000,179.500000L872.200000,177.500000L872.200000,175.500000L872.200000,173.500000L872.200000,171.500000C872.200000,171.400000,872.100000,171.200000,871.900000,171.200000L870.200000,171.200000L870.200000,169.500000C870.200000,169.400000,870.100000,169.200000,869.900000,169.200000L868.200000,169.200000L868.200000,167.500000C868.200000,167.400000,868.100000,167.200000,867.900000,167.200000L865.900000,167.200000L863.900000,167.200000L861.900000,167.200000L859.900000,167.200000L857.900000,167.200000L855.900000,167.200000L853.900000,167.200000L851.900000,167.200000L849.900000,167.200000L847.900000,167.200000L845.900000,167.200000L843.900000,167.200000L841.900000,167.200000L839.900000,167.200000L837.900000,167.200000L835.900000,167.200000L833.900000,167.200000C833.800000,167.200000,833.600000,167.300000,833.600000,167.500000L833.600000,169.200000L831.900000,169.200000C831.800000,169.200000,831.600000,169.300000,831.600000,169.500000L831.600000,171.200000L829.900000,171.200000C829.700000,171.200000,829.600000,171.300000,829.600000,171.500000ZM866.900000,169.800000L866.900000,169.800000L834,169.800000L834,169.800000L835.700000,169.800000L837.700000,169.800000L839.700000,169.800000L841.700000,169.800000L843.700000,169.800000L845.700000,169.800000L847.700000,169.800000L849.700000,169.800000L851.700000,169.800000L853.700000,169.800000L855.700000,169.800000L857.700000,169.800000L859.700000,169.800000L861.700000,169.800000L863.700000,169.800000L865.700000,169.800000L866.900000,169.800000Z" fill="rgb(255,255,255)" stroke="none" stroke-width="1"/></g><g id="efb60oy7ea6v195"><g id="efb60oy7ea6v196"><g id="efb60oy7ea6v197"><g id="efb60oy7ea6v198" clip-path="url(#efb60oy7ea6v203)"><g id="efb60oy7ea6v199"><polygon id="efb60oy7ea6v200" points="855.100000,187 856.100000,186 865.100000,177.300000 862.500000,174.700000 853.600000,183.400000 852.600000,184.400000 843.700000,193.100000 846.200000,195.700000" fill="rgb(0,0,0)" stroke="none" stroke-width="1"/><polygon id="efb60oy7ea6v201" points="851.800000,183.500000 852.800000,182.600000 861.700000,173.800000 859.100000,171.200000 850.200000,180 849.200000,180.900000 840.300000,189.700000 842.900000,192.300000" fill="rgb(0,0,0)" stroke="none" stroke-width="1"/><polygon id="efb60oy7ea6v202" points="848.400000,180.100000 849.400000,179.100000 858.300000,170.400000 855.800000,167.800000 846.800000,176.500000 845.800000,177.500000 836.900000,186.200000 839.500000,188.900000" fill="rgb(0,0,0)" stroke="none" stroke-width="1"/></g><clipPath id="efb60oy7ea6v203"><use id="efb60oy7ea6v204" width="21.799999" height="21.799999" xlink:href="#efb60oy7ea6v4" transform="matrix(1 0 0 1 851 181.59999999999999)" fill="rgb(0,0,0)" stroke="none" stroke-width="1"/></clipPath></g></g></g><circle id="efb60oy7ea6v205" r="10.900000" transform="matrix(1 0 0 1 850.89999999999998 181.40000000000001)" fill="none" stroke="rgb(29,29,27)" stroke-width="0.937000" stroke-miterlimit="10"/></g></g></g><g id="efb60oy7ea6v206_to" transform="translate(910.700012,175.500000)"><g id="efb60oy7ea6v206" transform="translate(-910.700012,-185.500000)"><g id="efb60oy7ea6v207"><path id="efb60oy7ea6v208" d="M889.400000,171.500000L889.400000,173.500000L889.400000,175.500000L889.400000,177.500000L889.400000,179.500000L889.400000,181.500000L889.400000,183.500000L889.400000,185.500000L889.400000,187.500000L889.400000,189.500000L889.400000,191.500000L889.400000,193.500000L889.400000,195.500000L889.400000,197.500000L889.400000,199.500000L889.400000,201.500000L889.400000,203.500000C889.400000,203.600000,889.500000,203.800000,889.700000,203.800000L891.700000,203.800000C891.800000,203.800000,892,203.700000,892,203.500000L892,201.800000L893.700000,201.800000L895.700000,201.800000C895.800000,201.800000,896,201.700000,896,201.500000L896,199.800000L897.700000,199.800000C897.800000,199.800000,898,199.700000,898,199.500000L898,197.800000L899.700000,197.800000C899.800000,197.800000,900,197.700000,900,197.500000L900,195.800000L901.700000,195.800000L903.700000,195.800000L905.700000,195.800000L907.700000,195.800000L909.700000,195.800000L911.700000,195.800000L913.700000,195.800000L915.700000,195.800000L917.700000,195.800000L919.700000,195.800000L921.700000,195.800000L923.700000,195.800000L925.700000,195.800000L927.700000,195.800000C927.800000,195.800000,928,195.700000,928,195.500000L928,193.800000L929.700000,193.800000C929.800000,193.800000,930,193.700000,930,193.500000L930,191.800000L931.700000,191.800000C931.800000,191.800000,932,191.700000,932,191.500000L932,189.500000L932,187.500000L932,185.500000L932,183.500000L932,181.500000L932,179.500000L932,177.500000L932,175.500000L932,173.500000L932,171.500000C932,171.400000,931.900000,171.200000,931.700000,171.200000L930,171.200000L930,169.500000C930,169.400000,929.900000,169.200000,929.700000,169.200000L928,169.200000L928,167.500000C928,167.400000,927.900000,167.200000,927.700000,167.200000L925.700000,167.200000L923.700000,167.200000L921.700000,167.200000L919.700000,167.200000L917.700000,167.200000L915.700000,167.200000L913.700000,167.200000L911.700000,167.200000L909.700000,167.200000L907.700000,167.200000L905.700000,167.200000L903.700000,167.200000L901.700000,167.200000L899.700000,167.200000L897.700000,167.200000L895.700000,167.200000L893.700000,167.200000C893.600000,167.200000,893.400000,167.300000,893.400000,167.500000L893.400000,169.200000L891.700000,169.200000C891.600000,169.200000,891.400000,169.300000,891.400000,169.500000L891.400000,171.200000L889.700000,171.200000C889.500000,171.200000,889.400000,171.300000,889.400000,171.500000ZM926.800000,169.800000L926.800000,169.800000L893.900000,169.800000L893.900000,169.800000L895.600000,169.800000L897.600000,169.800000L899.600000,169.800000L901.600000,169.800000L903.600000,169.800000L905.600000,169.800000L907.600000,169.800000L909.600000,169.800000L911.600000,169.800000L913.600000,169.800000L915.600000,169.800000L917.600000,169.800000L919.600000,169.800000L921.600000,169.800000L923.600000,169.800000L925.600000,169.800000L926.800000,169.800000Z" opacity="0.63" fill="rgb(255,255,255)" stroke="none" stroke-width="1"/></g><g id="efb60oy7ea6v209"><g id="efb60oy7ea6v210"><g id="efb60oy7ea6v211"><g id="efb60oy7ea6v212" clip-path="url(#efb60oy7ea6v219)"><g id="efb60oy7ea6v213"><g id="efb60oy7ea6v214"><rect id="efb60oy7ea6v215" width="3.700000" height="12.500000" rx="0" ry="0" transform="matrix(0.71440000000000 -0.69970000000000 0.69970000000000 0.71440000000000 900.09942000000012 173.69883999999996)" fill="rgb(0,0,0)" stroke="none" stroke-width="1"/><rect id="efb60oy7ea6v216" width="3.700000" height="12.500000" rx="0" ry="0" transform="matrix(0.71440000000000 -0.69970000000000 0.69970000000000 0.71440000000000 909.92957000000001 183.55734000000007)" fill="rgb(0,0,0)" stroke="none" stroke-width="1"/></g><polygon id="efb60oy7ea6v217" points="916,177.700000 915,176.700000 906.300000,167.700000 903.600000,170.300000 912.400000,179.200000 913.300000,180.200000 922.100000,189.200000 924.700000,186.600000" fill="rgb(0,0,0)" stroke="none" stroke-width="1"/><polygon id="efb60oy7ea6v218" points="909.100000,184.400000 908.100000,183.400000 899.400000,174.500000 896.800000,177 905.500000,186 906.500000,187 915.200000,195.900000 917.800000,193.300000" fill="rgb(0,0,0)" stroke="none" stroke-width="1"/></g><clipPath id="efb60oy7ea6v219"><use id="efb60oy7ea6v220" width="21.799999" height="21.799999" xlink:href="#efb60oy7ea6v5" transform="matrix(1 0 0 1 910.70000000000005 181.59999999999999)" fill="rgb(0,0,0)" stroke="none" stroke-width="1"/></clipPath></g></g></g><circle id="efb60oy7ea6v221" r="10.900000" transform="matrix(1 0 0 1 910.60000000000002 181.40000000000001)" fill="none" stroke="rgb(29,29,27)" stroke-width="0.937000" stroke-miterlimit="10"/></g></g></g></g></svg>