<svg id="efbfytgje40c1" xmlns="http://www.w3.org/2000/svg" xmlns:xlink="http://www.w3.org/1999/xlink" viewBox="0 0 284 170" shape-rendering="geometricPrecision" text-rendering="geometricPrecision"><path id="efbfytgje40c2" d="M161.900000,132L161.900000,125.600000C161.900000,125.300000,161.700000,125.100000,161.400000,125.100000L155,125.100000C155,125.100000,155,125.100000,155,125.100000C155,125.100000,155,125.100000,155,125.100000L148.600000,125.100000L142.200000,125.100000L135.800000,125.100000L129.400000,125.100000L123,125.100000C122.700000,125.100000,122.500000,125.300000,122.500000,125.600000L122.500000,132L116.500000,132L116.500000,138.400000L122.900000,138.400000L122.900000,132.500000C122.900000,132.500000,123,132.500000,123,132.500000L129.400000,132.500000L135.800000,132.500000L142.200000,132.500000L148.600000,132.500000L155,132.500000C155,132.500000,155,132.500000,155,132.500000C155,132.500000,155,132.500000,155,132.500000L161.400000,132.500000L161.400000,138.400000L167.900000,138.400000L167.900000,132L161.900000,132Z" fill="rgb(84,254,84)" stroke="none" stroke-width="1"/><path id="efbfytgje40c3" d="M206.300000,28.800000L200.400000,28.800000L200.400000,22.900000C200.400000,22.600000,200.200000,22.400000,199.900000,22.400000L193.500000,22.400000L187.100000,22.400000L180.700000,22.400000L174.300000,22.400000C174.300000,22.400000,174.300000,22.400000,174.300000,22.400000C174.300000,22.400000,174.300000,22.400000,174.300000,22.400000L167.900000,22.400000L161.500000,22.400000L161.400000,22.400000L155,22.400000C155,22.400000,155,22.400000,155,22.400000C155,22.400000,155,22.400000,155,22.400000L148.600000,22.400000L142.200000,22.400000L135.800000,22.400000L129.400000,22.400000L123,22.400000L116.600000,22.400000L110,22.400000L103.600000,22.400000L97.200000,22.400000C97.200000,22.400000,97.200000,22.400000,97.200000,22.400000C97.200000,22.400000,97.200000,22.400000,97.100000,22.400000L90.700000,22.400000L84.300000,22.400000C84,22.400000,83.800000,22.600000,83.800000,22.900000L83.800000,28.800000L77.900000,28.800000C77.600000,28.800000,77.400000,29,77.400000,29.300000L77.400000,35.700000L77.400000,42.100000L77.400000,48.500000L77.400000,54.900000L77.400000,61.400000L77.400000,67.800000L77.400000,74.200000C77.400000,74.200000,77.400000,74.200000,77.400000,74.200000C77.400000,74.200000,77.400000,74.200000,77.400000,74.200000L77.400000,80.600000L77.400000,87L77.400000,93.400000L77.400000,99.800000C77.400000,100.100000,77.600000,100.300000,77.900000,100.300000L83.800000,100.300000L83.800000,106.200000C83.800000,106.500000,84,106.700000,84.300000,106.700000L90.700000,106.700000L97.100000,106.700000C97.100000,106.700000,97.100000,106.700000,97.200000,106.700000C97.200000,106.700000,97.200000,106.700000,97.200000,106.700000L103.600000,106.700000L110,106.700000L116.400000,106.700000C116.400000,106.700000,116.400000,106.700000,116.500000,106.700000C116.500000,106.700000,116.500000,106.700000,116.500000,106.700000L122.900000,106.700000L129.300000,106.700000L135.700000,106.700000L142.100000,106.700000L148.500000,106.700000L154.900000,106.700000C154.900000,106.700000,154.900000,106.700000,154.900000,106.700000C154.900000,106.700000,154.900000,106.700000,154.900000,106.700000L161.200000,106.700000L161.300000,106.700000L167.700000,106.700000L174.100000,106.700000C174.100000,106.700000,174.100000,106.700000,174.100000,106.700000C174.100000,106.700000,174.100000,106.700000,174.100000,106.700000L180.500000,106.700000L186.900000,106.700000L193.300000,106.700000L199.700000,106.700000C200,106.700000,200.200000,106.500000,200.200000,106.200000L200.200000,100.300000L206.100000,100.300000C206.400000,100.300000,206.600000,100.100000,206.600000,99.800000L206.600000,93.400000L206.600000,87L206.600000,80.600000L206.600000,74.200000C206.600000,74.200000,206.600000,74.200000,206.600000,74.200000C206.600000,74.200000,206.600000,74.200000,206.600000,74.200000L206.600000,67.800000L206.600000,61.400000L206.600000,54.900000L206.600000,48.500000L206.600000,42.100000L206.600000,35.700000L206.600000,29.300000C206.800000,29,206.600000,28.800000,206.300000,28.800000ZM174.200000,93L168.300000,93L168.300000,87.100000C168.300000,86.800000,168.100000,86.600000,167.800000,86.600000L161.400000,86.600000L161.300000,86.600000L155,86.600000C155,86.600000,155,86.600000,155,86.600000C155,86.600000,155,86.600000,155,86.600000L148.600000,86.600000L142.200000,86.600000L135.800000,86.600000L129.400000,86.600000L123,86.600000L116.600000,86.600000L110.600000,86.600000L110.600000,80.700000C110.600000,80.400000,110.400000,80.200000,110.100000,80.200000L104.200000,80.200000L104.200000,74.300000C104.200000,74.300000,104.200000,74.300000,104.200000,74.200000C104.200000,74.200000,104.200000,74.200000,104.200000,74.200000L104.200000,67.800000L104.200000,61.400000L104.200000,54.900000L104.200000,49L110.100000,49C110.400000,49,110.600000,48.800000,110.600000,48.500000L110.600000,42.600000L116.500000,42.600000C116.500000,42.600000,116.500000,42.600000,116.600000,42.600000C116.600000,42.600000,116.600000,42.600000,116.600000,42.600000L123,42.600000L129.400000,42.600000L135.800000,42.600000L142.200000,42.600000L148.600000,42.600000L155,42.600000C155,42.600000,155,42.600000,155,42.600000C155,42.600000,155,42.600000,155,42.600000L161.300000,42.600000L161.400000,42.600000L167.800000,42.600000L173.800000,42.600000L173.800000,48.500000C173.800000,48.800000,174,49,174.300000,49L180.200000,49L180.200000,54.900000L180.200000,61.400000L180.200000,67.800000L180.200000,74.200000C180.200000,74.200000,180.200000,74.200000,180.200000,74.200000C180.200000,74.200000,180.200000,74.200000,180.200000,74.200000L180.200000,80.600000L180.200000,87L180.200000,93.400000L180.200000,99.300000L174.700000,99.300000L174.700000,93.400000C174.700000,93.200000,174.500000,93,174.200000,93Z" fill="rgb(84,254,84)" stroke="none" stroke-width="1"/><path id="efbfytgje40c4" d="M212.700000,144.400000L206.300000,144.400000L199.900000,144.400000L193.500000,144.400000L187.100000,144.400000L180.700000,144.400000L174.300000,144.400000C174.300000,144.400000,174.300000,144.400000,174.300000,144.400000C174.300000,144.400000,174.300000,144.400000,174.300000,144.400000L167.900000,144.400000L161.500000,144.400000L161.400000,144.400000L155,144.400000C155,144.400000,155,144.400000,155,144.400000C155,144.400000,155,144.400000,155,144.400000L148.600000,144.400000L142.200000,144.400000L135.800000,144.400000L129.400000,144.400000L123,144.400000L116.600000,144.400000L110,144.400000L103.600000,144.400000L97.200000,144.400000C97.200000,144.400000,97.200000,144.400000,97.200000,144.400000C97.200000,144.400000,97.200000,144.400000,97.100000,144.400000L90.700000,144.400000L84.300000,144.400000L77.900000,144.400000L71.500000,144.400000C71.200000,144.400000,71,144.600000,71,144.900000L71,151.300000C71,151.600000,71.200000,151.800000,71.500000,151.800000L77.900000,151.800000L84.300000,151.800000L90.700000,151.800000L97.100000,151.800000C97.100000,151.800000,97.100000,151.800000,97.200000,151.800000C97.200000,151.800000,97.200000,151.800000,97.200000,151.800000L103.600000,151.800000L110,151.800000L116.400000,151.800000C116.400000,151.800000,116.400000,151.800000,116.500000,151.800000C116.500000,151.800000,116.500000,151.800000,116.500000,151.800000L122.900000,151.800000L129.300000,151.800000L135.700000,151.800000L142.100000,151.800000L148.500000,151.800000L154.900000,151.800000C154.900000,151.800000,154.900000,151.800000,154.900000,151.800000C154.900000,151.800000,154.900000,151.800000,154.900000,151.800000L161.200000,151.800000L161.300000,151.800000L167.700000,151.800000L174.100000,151.800000C174.100000,151.800000,174.100000,151.800000,174.100000,151.800000C174.100000,151.800000,174.100000,151.800000,174.100000,151.800000L180.500000,151.800000L186.900000,151.800000L193.300000,151.800000L199.700000,151.800000L206.100000,151.800000L212.500000,151.800000C212.800000,151.800000,213,151.600000,213,151.300000L213,144.900000C213.200000,144.600000,213,144.400000,212.700000,144.400000Z" fill="rgb(84,254,84)" stroke="none" stroke-width="1"/><path id="efbfytgje40c5" d="M212.700000,22.400000L206.800000,22.400000L206.800000,16.500000C206.800000,16.200000,206.600000,16,206.300000,16L199.900000,16L193.500000,16L187.100000,16L180.700000,16L174.300000,16C174.300000,16,174.300000,16,174.300000,16C174.300000,16,174.300000,16,174.300000,16L167.900000,16L161.500000,16L161.400000,16L155,16C155,16,155,16,155,16C155,16,155,16,155,16L148.600000,16L142.200000,16L135.800000,16L129.400000,16L123,16L116.600000,16L110,16L103.600000,16L97.200000,16C97.200000,16,97.200000,16,97.200000,16C97.200000,16,97.200000,16,97.100000,16L90.700000,16L84.300000,16L77.900000,16C77.600000,16,77.400000,16.200000,77.400000,16.500000L77.400000,22.400000L71.500000,22.400000C71.200000,22.400000,71,22.600000,71,22.900000L71,29.300000L71,35.700000L71,42.100000L71,48.500000L71,54.900000L71,61.400000L71,67.800000L71,74.200000C71,74.200000,71,74.200000,71,74.200000C71,74.200000,71,74.200000,71,74.200000L71,80.600000L71,87L71,93.400000L71,99.800000L71,106.200000C71,106.500000,71.200000,106.700000,71.500000,106.700000L77.400000,106.700000L77.400000,112.700000C77.400000,113,77.600000,113.200000,77.900000,113.200000L84.300000,113.200000L90.700000,113.200000L97.100000,113.200000C97.100000,113.200000,97.100000,113.200000,97.200000,113.200000C97.200000,113.200000,97.200000,113.200000,97.200000,113.200000L103.600000,113.200000L110,113.200000L116.400000,113.200000C116.400000,113.200000,116.400000,113.200000,116.500000,113.200000C116.500000,113.200000,116.500000,113.200000,116.500000,113.200000L122.900000,113.200000L129.300000,113.200000L135.700000,113.200000L142.100000,113.200000L148.500000,113.200000L154.900000,113.200000C154.900000,113.200000,154.900000,113.200000,154.900000,113.200000C154.900000,113.200000,154.900000,113.200000,154.900000,113.200000L161.200000,113.200000L161.300000,113.200000L167.700000,113.200000L174.100000,113.200000C174.100000,113.200000,174.100000,113.200000,174.100000,113.200000C174.100000,113.200000,174.100000,113.200000,174.100000,113.200000L180.500000,113.200000L186.900000,113.200000L193.300000,113.200000L199.700000,113.200000L206.100000,113.200000C206.400000,113.200000,206.600000,113,206.600000,112.700000L206.600000,106.700000L212.500000,106.700000C212.800000,106.700000,213,106.500000,213,106.200000L213,99.800000L213,93.400000L213,87L213,80.600000L213,74.200000C213,74.200000,213,74.200000,213,74.200000C213,74.200000,213,74.200000,213,74.200000L213,67.800000L213,61.400000L213,54.900000L213,48.500000L213,42.100000L213,35.700000L213,29.300000L213,22.900000C213.200000,22.600000,213,22.400000,212.700000,22.400000ZM161.300000,105.800000L155,105.800000C155,105.800000,155,105.800000,155,105.800000C155,105.800000,155,105.800000,155,105.800000L148.600000,105.800000L142.200000,105.800000L135.800000,105.800000L129.400000,105.800000L123,105.800000L116.600000,105.800000L110,105.800000L103.600000,105.800000L97.200000,105.800000C97.200000,105.800000,97.200000,105.800000,97.200000,105.800000C97.200000,105.800000,97.200000,105.800000,97.100000,105.800000L90.700000,105.800000L84.800000,105.800000L84.800000,99.900000C84.800000,99.600000,84.600000,99.400000,84.300000,99.400000L78.400000,99.400000L78.400000,93.500000L78.400000,87.100000L78.400000,80.700000L78.400000,74.300000C78.400000,74.300000,78.400000,74.300000,78.400000,74.300000C78.400000,74.300000,78.400000,74.300000,78.400000,74.300000L78.400000,67.900000L78.400000,61.500000L78.400000,55L78.400000,48.600000L78.400000,42.200000L78.400000,35.800000L78.400000,29.900000L84.300000,29.900000C84.600000,29.900000,84.800000,29.600000,84.800000,29.400000L84.800000,23.500000L90.700000,23.500000L97.100000,23.500000C97.100000,23.500000,97.100000,23.500000,97.100000,23.500000C97.100000,23.500000,97.100000,23.500000,97.200000,23.500000L103.600000,23.500000L110,23.500000L116.400000,23.500000C116.400000,23.500000,116.400000,23.500000,116.400000,23.500000C116.400000,23.500000,116.400000,23.500000,116.500000,23.500000L122.900000,23.500000L129.300000,23.500000L135.700000,23.500000L142.100000,23.500000L148.500000,23.500000L154.900000,23.500000C154.900000,23.500000,154.900000,23.500000,154.900000,23.500000C154.900000,23.500000,154.900000,23.500000,155,23.500000L161.300000,23.500000L161.400000,23.500000L167.800000,23.500000L174.200000,23.500000C174.200000,23.500000,174.200000,23.500000,174.200000,23.500000C174.200000,23.500000,174.200000,23.500000,174.300000,23.500000L180.700000,23.500000L187.100000,23.500000L193.500000,23.500000L199.400000,23.500000L199.400000,29.400000C199.400000,29.700000,199.600000,29.900000,199.900000,29.900000L205.800000,29.900000L205.800000,35.800000L205.800000,42.200000L205.800000,48.600000L205.800000,55L205.800000,61.500000L205.800000,67.900000L205.800000,74.300000C205.800000,74.300000,205.800000,74.300000,205.800000,74.300000C205.800000,74.300000,205.800000,74.300000,205.800000,74.300000L205.800000,80.700000L205.800000,87.100000L205.800000,93.500000L205.800000,99.400000L199.900000,99.400000C199.600000,99.400000,199.400000,99.600000,199.400000,99.900000L199.400000,105.800000L193.500000,105.800000L187.100000,105.800000L180.700000,105.800000L174.300000,105.800000C174.300000,105.800000,174.300000,105.800000,174.300000,105.800000C174.300000,105.800000,174.300000,105.800000,174.300000,105.800000L167.900000,105.800000L161.500000,105.800000L161.300000,105.800000Z" fill="rgb(0,0,0)" stroke="none" stroke-width="1"/><path id="efbfytgje40c6" d="M226.100000,132C226.100000,131.700000,225.900000,131.500000,225.600000,131.500000L219.700000,131.500000L219.700000,125.600000C219.700000,125.300000,219.500000,125.100000,219.200000,125.100000L213.200000,125.100000L213.200000,119.200000C213.200000,118.900000,213,118.700000,212.700000,118.700000L206.300000,118.700000L199.900000,118.700000L193.500000,118.700000L187.100000,118.700000L180.700000,118.700000L174.300000,118.700000C174.300000,118.700000,174.300000,118.700000,174.300000,118.700000C174.300000,118.700000,174.300000,118.700000,174.300000,118.700000L167.900000,118.700000L161.500000,118.700000L161.400000,118.700000L155,118.700000C155,118.700000,155,118.700000,155,118.700000C155,118.700000,155,118.700000,155,118.700000L148.600000,118.700000L142.200000,118.700000L135.800000,118.700000L129.400000,118.700000L123,118.700000L116.600000,118.700000L110,118.700000L103.600000,118.700000L97.200000,118.700000C97.200000,118.700000,97.200000,118.700000,97.200000,118.700000C97.200000,118.700000,97.200000,118.700000,97.100000,118.700000L90.700000,118.700000L84.300000,118.700000L77.900000,118.700000L71.500000,118.700000C71.200000,118.700000,71,118.900000,71,119.200000L71,125.100000L65.100000,125.100000C64.800000,125.100000,64.600000,125.300000,64.600000,125.600000L64.600000,131.500000L58.600000,131.500000C58.300000,131.500000,58.100000,131.700000,58.100000,132L58.100000,138.500000L58.100000,144.900000L58.100000,144.900000L58.100000,144.900000L58.100000,151.300000C58.100000,151.600000,58.300000,151.800000,58.600000,151.800000L64.600000,151.800000L64.600000,157.700000C64.600000,158,64.800000,158.200000,65.100000,158.200000L71.500000,158.200000L77.900000,158.200000L84.300000,158.200000L90.700000,158.200000L97.100000,158.200000C97.100000,158.200000,97.100000,158.200000,97.200000,158.200000C97.200000,158.200000,97.200000,158.200000,97.200000,158.200000L103.600000,158.200000L110,158.200000L116.400000,158.200000C116.400000,158.200000,116.400000,158.200000,116.500000,158.200000C116.500000,158.200000,116.500000,158.200000,116.500000,158.200000L122.900000,158.200000L129.300000,158.200000L135.700000,158.200000L142.100000,158.200000L148.500000,158.200000L154.900000,158.200000C154.900000,158.200000,154.900000,158.200000,154.900000,158.200000C154.900000,158.200000,154.900000,158.200000,154.900000,158.200000L161.200000,158.200000L161.300000,158.200000L167.700000,158.200000L174.100000,158.200000C174.100000,158.200000,174.100000,158.200000,174.100000,158.200000C174.100000,158.200000,174.100000,158.200000,174.100000,158.200000L180.500000,158.200000L186.900000,158.200000L193.300000,158.200000L199.700000,158.200000L206.100000,158.200000L212.500000,158.200000L219,158.200000C219.300000,158.200000,219.500000,158,219.500000,157.700000L219.500000,151.800000L225.400000,151.800000C225.700000,151.800000,225.900000,151.600000,225.900000,151.300000L225.900000,144.900000L225.900000,144.900000L225.900000,144.900000L225.900000,138.500000C225.900000,138.500000,225.900000,138.500000,225.900000,138.500000C225.900000,138.500000,225.900000,138.500000,225.900000,138.400000L225.900000,132ZM161.900000,132.600000L167.300000,132.600000L167.300000,138L161.900000,138L161.900000,132.600000ZM122.300000,138L117,138L117,132.600000L122.300000,132.600000L122.300000,138ZM148.500000,126.100000L154.900000,126.100000C154.900000,126.100000,154.900000,126.100000,154.900000,126.100000C154.900000,126.100000,154.900000,126.100000,154.900000,126.100000L160.700000,126.100000L160.700000,131.500000L155,131.500000C155,131.500000,155,131.500000,155,131.500000C155,131.500000,155,131.500000,155,131.500000L148.600000,131.500000L142.200000,131.500000L135.800000,131.500000L129.400000,131.500000L123.500000,131.500000L123.500000,126.100000L129.400000,126.100000L135.800000,126.100000L142.200000,126.100000L148.500000,126.100000ZM161.300000,150.800000L155,150.800000C155,150.800000,155,150.800000,155,150.800000C155,150.800000,155,150.800000,155,150.800000L148.600000,150.800000L142.200000,150.800000L135.800000,150.800000L129.400000,150.800000L123,150.800000L116.600000,150.800000L110,150.800000L103.600000,150.800000L97.200000,150.800000C97.200000,150.800000,97.200000,150.800000,97.200000,150.800000C97.200000,150.800000,97.200000,150.800000,97.100000,150.800000L90.700000,150.800000L84.300000,150.800000L77.900000,150.800000L72,150.800000L72,145.400000L77.900000,145.400000L84.300000,145.400000L90.700000,145.400000L97.100000,145.400000C97.100000,145.400000,97.100000,145.400000,97.200000,145.400000C97.200000,145.400000,97.200000,145.400000,97.200000,145.400000L103.600000,145.400000L110,145.400000L116.400000,145.400000C116.400000,145.400000,116.400000,145.400000,116.500000,145.400000C116.500000,145.400000,116.500000,145.400000,116.500000,145.400000L122.900000,145.400000L129.300000,145.400000L135.700000,145.400000L142.100000,145.400000L148.500000,145.400000L154.900000,145.400000C154.900000,145.400000,154.900000,145.400000,154.900000,145.400000C154.900000,145.400000,154.900000,145.400000,154.900000,145.400000L161.200000,145.400000L161.300000,145.400000L167.700000,145.400000L174.100000,145.400000C174.100000,145.400000,174.100000,145.400000,174.100000,145.400000C174.100000,145.400000,174.100000,145.400000,174.100000,145.400000L180.500000,145.400000L186.900000,145.400000L193.300000,145.400000L199.700000,145.400000L206.100000,145.400000L212,145.400000L212,150.800000L206.100000,150.800000L199.700000,150.800000L193.300000,150.800000L186.900000,150.800000L180.500000,150.800000L174.100000,150.800000C174.100000,150.800000,174.100000,150.800000,174.100000,150.800000C174.100000,150.800000,174.100000,150.800000,174.100000,150.800000L167.700000,150.800000L161.300000,150.800000L161.300000,150.800000Z" fill="rgb(0,0,0)" stroke="none" stroke-width="1"/><path id="efbfytgje40c7" d="M185.300000,46.100000C185.300000,45.700000,185,45.500000,184.700000,45.500000L178.200000,45.500000L178.200000,39C178.200000,38.600000,177.900000,38.400000,177.600000,38.400000L170.500000,38.400000L163.400000,38.400000L156.300000,38.400000L149.200000,38.400000L142.100000,38.400000L142.100000,38.400000L135,38.400000L127.900000,38.400000L120.900000,38.400000L120.800000,38.400000L113.800000,38.400000L106.700000,38.400000C106.300000,38.400000,106.100000,38.700000,106.100000,39L106.100000,45.500000L99.500000,45.500000C99.100000,45.500000,98.900000,45.800000,98.900000,46.100000L98.900000,53.200000C98.900000,53.200000,98.900000,53.200000,98.900000,53.200000C98.900000,53.200000,98.900000,53.200000,98.900000,53.300000L98.900000,60.300000L98.900000,60.400000L98.900000,67.400000L98.900000,74.500000L98.900000,81.600000C98.900000,82,99.200000,82.200000,99.500000,82.200000L106.100000,82.200000L106.100000,88.700000C106.100000,89.100000,106.400000,89.300000,106.700000,89.300000L113.800000,89.300000L120.800000,89.300000L120.900000,89.300000L127.900000,89.300000L135,89.300000L142.100000,89.300000L142.100000,89.300000L149.200000,89.300000L156.300000,89.300000L163.400000,89.300000L169.900000,89.300000L169.900000,95.800000C169.900000,96.200000,170.200000,96.400000,170.500000,96.400000L177,96.400000L177,102.900000C177,103.300000,177.300000,103.500000,177.600000,103.500000L184.700000,103.500000C185,103.500000,185.200000,103.200000,185.300000,102.900000L185.300000,95.800000L185.300000,88.700000L185.300000,81.600000L185.300000,74.500000L185.300000,67.400000L185.300000,60.400000L185.300000,60.300000L185.300000,53.300000C185.300000,53.300000,185.300000,53.300000,185.300000,53.200000C185.300000,53.200000,185.300000,53.200000,185.300000,53.200000L185.300000,46.100000Z" fill="rgb(0,0,0)" stroke="none" stroke-width="1"/><g id="efbfytgje40c8"><rect id="efbfytgje40c9" width="2.200000" height="12.200000" rx="0" ry="0" transform="matrix(1 0 0 1 107.90000000000001 58.80000000000000)" fill="rgb(84,254,84)" stroke="none" stroke-width="1"/><rect id="efbfytgje40c10" width="4.500000" height="2.100000" rx="0" ry="0" transform="matrix(1 0 0 1 143.50000000000000 64.09999999999999)" fill="rgb(84,254,84)" stroke="none" stroke-width="1"/><polygon id="efbfytgje40c11" points="118.300000,65.100000 117.500000,65.100000 117.500000,62.700000 116.200000,62.700000 116.200000,60.300000 113.900000,60.300000 113.900000,58.800000 111.700000,58.800000 111.700000,71 113.900000,71 113.900000,62.700000 115.200000,62.700000 115.200000,65.100000 116.200000,65.100000 116.200000,67.500000 118.300000,67.500000 118.300000,71 120.500000,71 120.500000,58.800000 118.300000,58.800000" fill="rgb(84,254,84)" stroke="none" stroke-width="1"/><polygon id="efbfytgje40c12" points="176.700000,58.800000 176.700000,65.100000 175.900000,65.100000 175.900000,62.700000 174.600000,62.700000 174.600000,60.300000 172.300000,60.300000 172.300000,58.800000 170.100000,58.800000 170.100000,71 172.300000,71 172.300000,62.700000 173.600000,62.700000 173.600000,65.100000 174.600000,65.100000 174.600000,67.500000 176.700000,67.500000 176.700000,71 178.900000,71 178.900000,58.800000" fill="rgb(84,254,84)" stroke="none" stroke-width="1"/><polygon id="efbfytgje40c13" points="128.800000,65.100000 128,65.100000 128,62.700000 126.700000,62.700000 126.700000,60.300000 124.400000,60.300000 124.400000,58.800000 122.200000,58.800000 122.200000,71 124.400000,71 124.400000,62.700000 125.700000,62.700000 125.700000,65.100000 126.700000,65.100000 126.700000,67.500000 128.800000,67.500000 128.800000,71 131,71 131,58.800000 128.800000,58.800000" fill="rgb(84,254,84)" stroke="none" stroke-width="1"/><path id="efbfytgje40c14" d="M140.600000,58.800000L133.800000,58.800000L133.800000,61.200000L132.700000,61.200000L132.700000,68.500000L133.800000,68.500000L133.800000,70.900000L140.600000,70.900000L140.600000,68.500000L141.800000,68.500000L141.800000,61.200000C141.700000,61.200000,140.500000,61.200000,140.600000,61.200000L140.600000,58.800000ZM139.400000,68.500000L134.900000,68.500000L134.900000,61.200000L139.400000,61.200000L139.400000,68.500000Z" fill="rgb(84,254,84)" stroke="none" stroke-width="1"/><path id="efbfytgje40c15" d="M167.200000,58.800000L160.400000,58.800000L160.400000,61.200000L159.300000,61.200000L159.300000,68.500000L160.400000,68.500000L160.400000,70.900000L167.200000,70.900000L167.200000,68.500000L168.400000,68.500000L168.400000,61.200000C168.300000,61.200000,167.200000,61.200000,167.200000,61.200000L167.200000,58.800000ZM166,68.500000L161.500000,68.500000L161.500000,61.200000L166,61.200000L166,68.500000Z" fill="rgb(84,254,84)" stroke="none" stroke-width="1"/><polygon id="efbfytgje40c16" points="150.700000,61.500000 149.500000,61.500000 149.500000,68.800000 150.700000,68.800000 150.700000,71.200000 157.500000,71.200000 157.500000,68.800000 151.800000,68.800000 151.800000,61.500000 157.500000,61.500000 157.500000,59.100000 150.700000,59.100000" fill="rgb(84,254,84)" stroke="none" stroke-width="1"/></g><script><![CDATA[!function(t,n){"object"==typeof exports&&"undefined"!=typeof module?module.exports=n():"function"==typeof define&&define.amd?define(n):(t=t||self).__SVGATOR_PLAYER__=n()}(this,(function(){"use strict";function t(n){return(t="function"==typeof Symbol&&"symbol"==typeof Symbol.iterator?function(t){return typeof t}:function(t){return t&&"function"==typeof Symbol&&t.constructor===Symbol&&t!==Symbol.prototype?"symbol":typeof t})(n)}function n(t,n){if(!(t instanceof n))throw new TypeError("Cannot call a class as a function")}function e(t,n){for(var e=0;e<n.length;e++){var r=n[e];r.enumerable=r.enumerable||!1,r.configurable=!0,"value"in r&&(r.writable=!0),Object.defineProperty(t,r.key,r)}}function r(t,n,r){return n&&e(t.prototype,n),r&&e(t,r),t}function i(t){return(i=Object.setPrototypeOf?Object.getPrototypeOf:function(t){return t.__proto__||Object.getPrototypeOf(t)})(t)}function u(t,n){return(u=Object.setPrototypeOf||function(t,n){return t.__proto__=n,t})(t,n)}function o(t,n){return!n||"object"!=typeof n&&"function"!=typeof n?function(t){if(void 0===t)throw new ReferenceError("this hasn't been initialised - super() hasn't been called");return t}(t):n}function a(t){var n=function(){if("undefined"==typeof Reflect||!Reflect.construct)return!1;if(Reflect.construct.sham)return!1;if("function"==typeof Proxy)return!0;try{return Date.prototype.toString.call(Reflect.construct(Date,[],(function(){}))),!0}catch(t){return!1}}();return function(){var e,r=i(t);if(n){var u=i(this).constructor;e=Reflect.construct(r,arguments,u)}else e=r.apply(this,arguments);return o(this,e)}}function l(t,n,e){return(l="undefined"!=typeof Reflect&&Reflect.get?Reflect.get:function(t,n,e){var r=function(t,n){for(;!Object.prototype.hasOwnProperty.call(t,n)&&null!==(t=i(t)););return t}(t,n);if(r){var u=Object.getOwnPropertyDescriptor(r,n);return u.get?u.get.call(e):u.value}})(t,n,e||t)}var f=Math.abs;function s(t){return t}function c(t,n,e){var r=1-e;return 3*e*r*(t*r+n*e)+e*e*e}function h(){var t=arguments.length>0&&void 0!==arguments[0]?arguments[0]:0,n=arguments.length>1&&void 0!==arguments[1]?arguments[1]:0,e=arguments.length>2&&void 0!==arguments[2]?arguments[2]:1,r=arguments.length>3&&void 0!==arguments[3]?arguments[3]:1;return t<0||t>1||e<0||e>1?null:f(t-n)<=1e-5&&f(e-r)<=1e-5?s:function(i){if(i<=0)return t>0?i*n/t:0===n&&e>0?i*r/e:0;if(i>=1)return e<1?1+(i-1)*(r-1)/(e-1):1===e&&t<1?1+(i-1)*(n-1)/(t-1):1;for(var u,o=0,a=1;o<a;){var l=c(t,e,u=(o+a)/2);if(f(i-l)<1e-5)break;l<i?o=u:a=u}return c(n,r,u)}}function v(){return 1}function d(t){return 1===t?1:0}function y(){var t=arguments.length>0&&void 0!==arguments[0]?arguments[0]:1,n=arguments.length>1&&void 0!==arguments[1]?arguments[1]:0;if(1===t){if(0===n)return d;if(1===n)return v}var e=1/t;return function(t){return t>=1?1:(t+=n*e)-t%e}}function g(t){var n=arguments.length>1&&void 0!==arguments[1]?arguments[1]:2;if(Number.isInteger(t))return t;var e=Math.pow(10,n);return Math.round(t*e)/e}var p=Math.PI/180;function m(t,n,e){return t>=.5?e:n}function b(t,n,e){return 0===t||n===e?n:t*(e-n)+n}function w(t,n,e){var r=b(t,n,e);return r<=0?0:r}function x(t,n,e){return 0===t?n:1===t?e:{x:b(t,n.x,e.x),y:b(t,n.y,e.y)}}function k(t,n,e){return 0===t?n:1===t?e:{x:w(t,n.x,e.x),y:w(t,n.y,e.y)}}function A(t,n,e){var r=function(t,n,e){return Math.round(b(t,n,e))}(t,n,e);return r<=0?0:r>=255?255:r}function _(t,n,e){return 0===t?n:1===t?e:{r:A(t,n.r,e.r),g:A(t,n.g,e.g),b:A(t,n.b,e.b),a:b(t,null==n.a?1:n.a,null==e.a?1:e.a)}}function S(t,n,e){if(0===t)return n;if(1===t)return e;var r=n.length;if(r!==e.length)return m(t,n,e);for(var i=[],u=0;u<r;u++)i.push(_(t,n[u],e[u]));return i}function M(t,n,e){var r=n.length;if(r!==e.length)return m(t,n,e);for(var i=new Array(r),u=0;u<r;u++)i[u]=b(t,n[u],e[u]);return i}function O(t,n){for(var e=[],r=0;r<t;r++)e.push(n);return e}function E(t,n){if(--n<=0)return t;var e=(t=Object.assign([],t)).length;do{for(var r=0;r<e;r++)t.push(t[r])}while(--n>0);return t}var B,I=function(){function t(e){n(this,t),this.list=e,this.length=e.length}return r(t,[{key:"setAttribute",value:function(t,n){for(var e=this.list,r=0;r<this.length;r++)e[r].setAttribute(t,n)}},{key:"removeAttribute",value:function(t){for(var n=this.list,e=0;e<this.length;e++)n[e].removeAttribute(t)}},{key:"style",value:function(t,n){for(var e=this.list,r=0;r<this.length;r++)e[r].style[t]=n}}]),t}(),j=/-./g,P=function(t,n){return n.toUpperCase()};function F(t){return"function"==typeof t?t:m}function R(t){return t?"function"==typeof t?t:Array.isArray(t)?function(t){var n=arguments.length>1&&void 0!==arguments[1]?arguments[1]:s;if(!Array.isArray(t))return n;switch(t.length){case 1:return y(t[0])||n;case 2:return y(t[0],t[1])||n;case 4:return h(t[0],t[1],t[2],t[3])||n}return n}(t,null):function(t,n){var e=arguments.length>2&&void 0!==arguments[2]?arguments[2]:s;switch(t){case"linear":return s;case"steps":return y(n.steps||1,n.jump||0)||e;case"bezier":case"cubic-bezier":return h(n.x1||0,n.y1||0,n.x2||0,n.y2||0)||e}return e}(t.type,t.value,null):null}function T(t,n,e){var r=arguments.length>3&&void 0!==arguments[3]&&arguments[3],i=n.length-1;if(t<=n[0].t)return r?[0,0,n[0].v]:n[0].v;if(t>=n[i].t)return r?[i,1,n[i].v]:n[i].v;var u,o=n[0],a=null;for(u=1;u<=i;u++){if(!(t>n[u].t)){a=n[u];break}o=n[u]}return null==a?r?[i,1,n[i].v]:n[i].v:o.t===a.t?r?[u,1,a.v]:a.v:(t=(t-o.t)/(a.t-o.t),o.e&&(t=o.e(t)),r?[u,t,e(t,o.v,a.v)]:e(t,o.v,a.v))}function q(t,n){var e=arguments.length>2&&void 0!==arguments[2]?arguments[2]:null;return t&&t.length?"function"!=typeof n?null:("function"!=typeof e&&(e=null),function(r){var i=T(r,t,n);return null!=i&&e&&(i=e(i)),i}):null}function C(t,n){return t.t-n.t}function V(n,e,r,i,u){var o,a="@"===r[0],l="#"===r[0],f=B[r],s=m;switch(a?(o=r.substr(1),r=o.replace(j,P)):l&&(r=r.substr(1)),t(f)){case"function":if(s=f(i,u,T,R,r,a,e,n),l)return s;break;case"string":s=q(i,F(f));break;case"object":if((s=q(i,F(f.i),f.f))&&"function"==typeof f.u)return f.u(e,s,r,a,n)}return s?function(t,n,e){var r=arguments.length>3&&void 0!==arguments[3]&&arguments[3];if(r)return t instanceof I?function(r){return t.style(n,e(r))}:function(r){return t.style[n]=e(r)};if(Array.isArray(n)){var i=n.length;return function(r){var u=e(r);if(null==u)for(var o=0;o<i;o++)t[o].removeAttribute(n);else for(var a=0;a<i;a++)t[a].setAttribute(n,u)}}return function(r){var i=e(r);null==i?t.removeAttribute(n):t.setAttribute(n,i)}}(e,r,s,a):null}function N(n,e,r,i){if(!i||"object"!==t(i))return null;var u=null,o=null;return Array.isArray(i)?o=function(t){if(!t||!t.length)return null;for(var n=0;n<t.length;n++)t[n].e&&(t[n].e=R(t[n].e));return t.sort(C)}(i):(o=i.keys,u=i.data||null),o?V(n,e,r,o,u):null}function z(t,n,e){if(!e)return null;var r=[];for(var i in e)if(e.hasOwnProperty(i)){var u=N(t,n,i,e[i]);u&&r.push(u)}return r.length?r:null}function D(t,n){if(!n.duration||n.duration<0)return null;var e=function(t,n){if(!n)return null;var e=[];if(Array.isArray(n))for(var r=n.length,i=0;i<r;i++){var u=n[i];if(2===u.length){var o=null;if("string"==typeof u[0])o=t.getElementById(u[0]);else if(Array.isArray(u[0])){o=[];for(var a=0;a<u[0].length;a++)if("string"==typeof u[0][a]){var l=t.getElementById(u[0][a]);l&&o.push(l)}o=o.length?1===o.length?o[0]:new I(o):null}if(o){var f=z(t,o,u[1]);f&&(e=e.concat(f))}}}else for(var s in n)if(n.hasOwnProperty(s)){var c=t.getElementById(s);if(c){var h=z(t,c,n[s]);h&&(e=e.concat(h))}}return e.length?e:null}(t,n.elements);return e?function(t,n){var e=arguments.length>2&&void 0!==arguments[2]?arguments[2]:1/0,r=arguments.length>3&&void 0!==arguments[3]?arguments[3]:1,i=arguments.length>4&&void 0!==arguments[4]&&arguments[4],u=arguments.length>5&&void 0!==arguments[5]?arguments[5]:1,o=t.length,a=r>0?n:0;i&&e%2==0&&(a=n-a);var l=null;return function(f,s){var c=f%n,h=1+(f-c)/n;s*=r,i&&h%2==0&&(s=-s);var v=!1;if(h>e)c=a,v=!0,-1===u&&(c=r>0?0:n);else if(s<0&&(c=n-c),c===l)return!1;l=c;for(var d=0;d<o;d++)t[d](c);return v}}(e,n.duration,n.iterations||1/0,n.direction||1,!!n.alternate,n.fill||1):null}function L(t,n){if(B=n,!t||!t.root||!Array.isArray(t.animations))return null;var e=window.document.getElementById(t.root);if(!e)return null;var r=t.animations.map((function(t){return D(e,t)})).filter((function(t){return!!t}));return r.length?{element:e,animations:r,animationSettings:t.animationSettings,options:t.options||void 0}:null}var U=function(){function t(e,r){var i=arguments.length>2&&void 0!==arguments[2]?arguments[2]:{};n(this,t),this._id=0,this._running=!1,this._rollingBack=!1,this._animations=e,this.duration=r.duration,this.alternate=r.alternate,this.fill=r.fill,this.iterations=r.iterations,this.direction=i.direction||1,this.speed=i.speed||1,this.fps=i.fps||100,this.offset=i.offset||0,this.rollbackStartOffset=0}return r(t,[{key:"_rollback",value:function(){var t=this,n=1/0,e=null;this.rollbackStartOffset=this.offset,this._rollingBack||(this._rollingBack=!0,this._running=!0);this._id=window.requestAnimationFrame((function r(i){if(t._rollingBack){null==e&&(e=i);var u=i-e,o=t.rollbackStartOffset-u,a=Math.round(o*t.speed);if(a>t.duration&&n!=1/0){var l=!!t.alternate&&a/t.duration%2>1,f=a%t.duration;a=(f+=l?t.duration:0)||t.duration}var s=t.fps?1e3/t.fps:0,c=Math.max(0,a);if(c<n-s){t.offset=c,n=c;for(var h=t._animations,v=h.length,d=0;d<v;d++)h[d](c,t.direction)}var y=!1;if(t.iterations>0&&-1===t.fill){var g=t.iterations*t.duration,p=g==a;a=p?0:a,t.offset=p?0:t.offset,y=a>g}a>0&&t.offset>=a&&!y?t._id=window.requestAnimationFrame(r):t.stop()}}))}},{key:"_start",value:function(){var t=this,n=arguments.length>0&&void 0!==arguments[0]?arguments[0]:0,e=-1/0,r=null,i={},u=function u(o){t._running=!0,null==r&&(r=o);var a=Math.round((o-r+n)*t.speed),l=t.fps?1e3/t.fps:0;if(a>e+l&&!t._rollingBack){t.offset=a,e=a;for(var f=t._animations,s=f.length,c=0,h=0;h<s;h++)i[h]?c++:(i[h]=f[h](a,t.direction),i[h]&&c++);if(c===s)return void t._stop()}t._id=window.requestAnimationFrame(u)};this._id=window.requestAnimationFrame(u)}},{key:"_stop",value:function(){this._id&&window.cancelAnimationFrame(this._id),this._running=!1,this._rollingBack=!1}},{key:"play",value:function(){!this._rollingBack&&this._running||(this._rollingBack=!1,this.rollbackStartOffset>this.duration&&(this.offset=this.rollbackStartOffset-(this.rollbackStartOffset-this.offset)%this.duration,this.rollbackStartOffset=0),this._start(this.offset))}},{key:"stop",value:function(){this._stop(),this.offset=0,this.rollbackStartOffset=0;var t=this.direction,n=this._animations;window.requestAnimationFrame((function(){for(var e=0;e<n.length;e++)n[e](0,t)}))}},{key:"reachedToEnd",value:function(){return this.iterations>0&&this.offset>=this.iterations*this.duration}},{key:"restart",value:function(){this._stop(),this.offset=0,this._start()}},{key:"pause",value:function(){this._stop()}},{key:"reverse",value:function(){this.direction=-this.direction}}],[{key:"build",value:function(n,e){return(n=L(n,e))?{el:n.element,options:n.options||{},player:new t(n.animations,n.animationSettings,n.options)}:null}}]),t}();!function(){for(var t=0,n=["ms","moz","webkit","o"],e=0;e<n.length&&!window.requestAnimationFrame;++e)window.requestAnimationFrame=window[n[e]+"RequestAnimationFrame"],window.cancelAnimationFrame=window[n[e]+"CancelAnimationFrame"]||window[n[e]+"CancelRequestAnimationFrame"];window.requestAnimationFrame||(window.requestAnimationFrame=function(n){var e=Date.now(),r=Math.max(0,16-(e-t)),i=window.setTimeout((function(){n(e+r)}),r);return t=e+r,i},window.cancelAnimationFrame=window.clearTimeout)}();var W=function(t,n){var e=!1,r=null;return function(i){e&&clearTimeout(e),e=setTimeout((function(){return function(){for(var i=0,u=window.innerHeight,o=0,a=window.innerWidth,l=t.parentNode;l instanceof Element;){var f=window.getComputedStyle(l);if("visible"!==f.overflowY||"visible"!==f.overflowX){var s=l.getBoundingClientRect();"visible"!==f.overflowY&&(i=Math.max(i,s.top),u=Math.min(u,s.bottom)),"visible"!==f.overflowX&&(o=Math.max(o,s.left),a=Math.min(a,s.right))}if(l===l.parentNode)break;l=l.parentNode}e=!1;var c=t.getBoundingClientRect(),h=Math.min(c.height,Math.max(0,i-c.top)),v=Math.min(c.height,Math.max(0,c.bottom-u)),d=Math.min(c.width,Math.max(0,o-c.left)),y=Math.min(c.width,Math.max(0,c.right-a)),g=(c.height-h-v)/c.height,p=(c.width-d-y)/c.width,m=Math.round(g*p*100);null!==r&&r===m||(r=m,n(m))}()}),100)}},Y=function(){function t(e,r,i){n(this,t),r=Math.max(1,r||1),r=Math.min(r,100),this.el=e,this.onTresholdChange=i&&i.call?i:function(){},this.tresholdPercent=r||1,this.currentVisibility=null,this.visibilityCalculator=W(e,this.onVisibilityUpdate.bind(this)),this.bindScrollWatchers(),this.visibilityCalculator()}return r(t,[{key:"bindScrollWatchers",value:function(){for(var t=this.el.parentNode;t&&(t.addEventListener("scroll",this.visibilityCalculator),t!==t.parentNode&&t!==document);)t=t.parentNode}},{key:"onVisibilityUpdate",value:function(t){var n=this.currentVisibility>=this.tresholdPercent,e=t>=this.tresholdPercent;if(null===this.currentVisibility||n!==e)return this.currentVisibility=t,void this.onTresholdChange(e);this.currentVisibility=t}}]),t}(),G=/\.0+$/g;function H(t){return Number.isInteger(t)?t+"":t.toFixed(6).replace(G,"")}function X(t){var n=arguments.length>1&&void 0!==arguments[1]?arguments[1]:" ";return t&&t.length?t.map(H).join(n):""}function $(t){return H(t.x)+","+H(t.y)}function Q(t){return t?null==t.a||t.a>=1?"rgb("+t.r+","+t.g+","+t.b+")":"rgba("+t.r+","+t.g+","+t.b+","+t.a+")":"transparent"}var Z={f:null,i:k,u:function(t,n){return function(e){var r=n(e);t.setAttribute("rx",H(r.x)),t.setAttribute("ry",H(r.y))}}},J={f:null,i:function(t,n,e){return 0===t?n:1===t?e:{width:w(t,n.width,e.width),height:w(t,n.height,e.height)}},u:function(t,n){return function(e){var r=n(e);t.setAttribute("width",H(r.width)),t.setAttribute("height",H(r.height))}}},K=Math.sin,tt=Math.cos,nt=Math.acos,et=Math.asin,rt=Math.tan,it=Math.atan2,ut=Math.PI/180,ot=180/Math.PI,at=Math.sqrt,lt=function(){function t(){var e=arguments.length>0&&void 0!==arguments[0]?arguments[0]:1,r=arguments.length>1&&void 0!==arguments[1]?arguments[1]:0,i=arguments.length>2&&void 0!==arguments[2]?arguments[2]:0,u=arguments.length>3&&void 0!==arguments[3]?arguments[3]:1,o=arguments.length>4&&void 0!==arguments[4]?arguments[4]:0,a=arguments.length>5&&void 0!==arguments[5]?arguments[5]:0;n(this,t),this.m=[e,r,i,u,o,a],this.i=null,this.w=null,this.s=null}return r(t,[{key:"point",value:function(t,n){var e=this.m;return{x:e[0]*t+e[2]*n+e[4],y:e[1]*t+e[3]*n+e[5]}}},{key:"translateSelf",value:function(){var t=arguments.length>0&&void 0!==arguments[0]?arguments[0]:0,n=arguments.length>1&&void 0!==arguments[1]?arguments[1]:0;if(!t&&!n)return this;var e=this.m;return e[4]+=e[0]*t+e[2]*n,e[5]+=e[1]*t+e[3]*n,this.w=this.s=this.i=null,this}},{key:"rotateSelf",value:function(){var t=arguments.length>0&&void 0!==arguments[0]?arguments[0]:0;if(t%=360){var n=K(t*=ut),e=tt(t),r=this.m,i=r[0],u=r[1];r[0]=i*e+r[2]*n,r[1]=u*e+r[3]*n,r[2]=r[2]*e-i*n,r[3]=r[3]*e-u*n,this.w=this.s=this.i=null}return this}},{key:"scaleSelf",value:function(){var t=arguments.length>0&&void 0!==arguments[0]?arguments[0]:1,n=arguments.length>1&&void 0!==arguments[1]?arguments[1]:1;if(1!==t||1!==n){var e=this.m;e[0]*=t,e[1]*=t,e[2]*=n,e[3]*=n,this.w=this.s=this.i=null}return this}},{key:"skewSelf",value:function(t,n){if(n%=360,(t%=360)||n){var e=this.m,r=e[0],i=e[1],u=e[2],o=e[3];t&&(t=rt(t*ut),e[2]+=r*t,e[3]+=i*t),n&&(n=rt(n*ut),e[0]+=u*n,e[1]+=o*n),this.w=this.s=this.i=null}return this}},{key:"resetSelf",value:function(){var t=arguments.length>0&&void 0!==arguments[0]?arguments[0]:1,n=arguments.length>1&&void 0!==arguments[1]?arguments[1]:0,e=arguments.length>2&&void 0!==arguments[2]?arguments[2]:0,r=arguments.length>3&&void 0!==arguments[3]?arguments[3]:1,i=arguments.length>4&&void 0!==arguments[4]?arguments[4]:0,u=arguments.length>5&&void 0!==arguments[5]?arguments[5]:0,o=this.m;return o[0]=t,o[1]=n,o[2]=e,o[3]=r,o[4]=i,o[5]=u,this.w=this.s=this.i=null,this}},{key:"recomposeSelf",value:function(){var t=arguments.length>0&&void 0!==arguments[0]?arguments[0]:null,n=arguments.length>1&&void 0!==arguments[1]?arguments[1]:null,e=arguments.length>2&&void 0!==arguments[2]?arguments[2]:null,r=arguments.length>3&&void 0!==arguments[3]?arguments[3]:null,i=arguments.length>4&&void 0!==arguments[4]?arguments[4]:null;return this.isIdentity||this.resetSelf(),t&&(t.x||t.y)&&this.translateSelf(t.x,t.y),n&&this.rotateSelf(n),e&&(e.x&&this.skewSelf(e.x,0),e.y&&this.skewSelf(0,e.y)),!r||1===r.x&&1===r.y||this.scaleSelf(r.x,r.y),i&&(i.x||i.y)&&this.translateSelf(i.x,i.y),this}},{key:"decompose",value:function(){var t=arguments.length>0&&void 0!==arguments[0]?arguments[0]:0,n=arguments.length>1&&void 0!==arguments[1]?arguments[1]:0,e=this.m,r=e[0]*e[0]+e[1]*e[1],i=[[e[0],e[1]],[e[2],e[3]]],u=at(r);if(0===u)return{origin:{x:e[4],y:e[5]},translate:{x:t,y:n},scale:{x:0,y:0},skew:{x:0,y:0},rotate:0};i[0][0]/=u,i[0][1]/=u;var o=e[0]*e[3]-e[1]*e[2]<0;o&&(u=-u);var a=i[0][0]*i[1][0]+i[0][1]*i[1][1];i[1][0]-=i[0][0]*a,i[1][1]-=i[0][1]*a;var l=at(i[1][0]*i[1][0]+i[1][1]*i[1][1]);if(0===l)return{origin:{x:e[4],y:e[5]},translate:{x:t,y:n},scale:{x:u,y:0},skew:{x:0,y:0},rotate:0};i[1][0]/=l,i[1][1]/=l,a/=l;var f=0;return i[1][1]<0?(f=nt(i[1][1])*ot,i[0][1]<0&&(f=360-f)):f=et(i[0][1])*ot,o&&(f=-f),a=it(a,at(i[0][0]*i[0][0]+i[0][1]*i[0][1]))*ot,{origin:{x:e[4],y:e[5]},translate:{x:t,y:n},scale:{x:u,y:l},skew:{x:a,y:0},rotate:f}}},{key:"toString",value:function(){return null===this.s&&(this.s="matrix("+this.m.map(st).join(" ")+")"),this.s}},{key:"determinant",get:function(){var t=this.m;return t[0]*t[3]-t[1]*t[2]}},{key:"isIdentity",get:function(){if(null===this.i){var t=this.m;this.i=1===t[0]&&0===t[1]&&0===t[2]&&1===t[3]&&0===t[4]&&0===t[5]}return this.i}}]),t}(),ft=/\.0+$/;function st(t){return Number.isInteger(t)?t:t.toFixed(14).replace(ft,"")}Object.freeze({M:2,L:2,Z:0,H:1,V:1,C:6,Q:4,T:2,S:4,A:7});function ct(t,n,e){return t+(n-t)*e}function ht(t,n,e){var r=arguments.length>3&&void 0!==arguments[3]&&arguments[3],i={x:ct(t.x,n.x,e),y:ct(t.y,n.y,e)};return r&&(i.a=vt(t,n)),i}function vt(t,n){return Math.atan2(n.y-t.y,n.x-t.x)}function dt(t,n,e,r){var i=1-r;return i*i*t+2*i*r*n+r*r*e}function yt(t,n,e,r){return 2*(1-r)*(n-t)+2*r*(e-n)}function gt(t,n,e,r){var i=arguments.length>4&&void 0!==arguments[4]&&arguments[4],u={x:dt(t.x,n.x,e.x,r),y:dt(t.y,n.y,e.y,r)};return i&&(u.a=pt(t,n,e,r)),u}function pt(t,n,e,r){return Math.atan2(yt(t.y,n.y,e.y,r),yt(t.x,n.x,e.x,r))}function mt(t,n,e,r,i){var u=i*i;return i*u*(r-t+3*(n-e))+3*u*(t+e-2*n)+3*i*(n-t)+t}function bt(t,n,e,r,i){var u=1-i;return 3*(u*u*(n-t)+2*u*i*(e-n)+i*i*(r-e))}function wt(t,n,e,r,i){var u=arguments.length>5&&void 0!==arguments[5]&&arguments[5],o={x:mt(t.x,n.x,e.x,r.x,i),y:mt(t.y,n.y,e.y,r.y,i)};return u&&(o.a=xt(t,n,e,r,i)),o}function xt(t,n,e,r,i){return Math.atan2(bt(t.y,n.y,e.y,r.y,i),bt(t.x,n.x,e.x,r.x,i))}function kt(t,n,e){var r=arguments.length>3&&void 0!==arguments[3]&&arguments[3];if(_t(n)){if(St(e))return gt(n,e.start,e,t,r)}else if(_t(e)){if(n.end)return gt(n,n.end,e,t,r)}else{if(n.end)return e.start?wt(n,n.end,e.start,e,t,r):gt(n,n.end,e,t,r);if(e.start)return gt(n,e.start,e,t,r)}return ht(n,e,t,r)}function At(t,n,e){var r=kt(t,n,e,!0);return r.a=function(t){var n=arguments.length>1&&void 0!==arguments[1]&&arguments[1];return n?t+Math.PI:t}(r.a)/p,r}function _t(t){return!t.type||"corner"===t.type}function St(t){return null!=t.start&&!_t(t)}var Mt=new lt;var Ot={f:function(t){return t?t.join(" "):""},i:function(n,e,r){if(0===n)return e;if(1===n)return r;var i=e.length;if(i!==r.length)return m(n,e,r);for(var u,o=new Array(i),a=0;a<i;a++){if((u=t(e[a]))!==t(r[a]))return m(n,e,r);if("number"===u)o[a]=b(n,e[a],r[a]);else{if(e[a]!==r[a])return m(n,e,r);o[a]=e[a]}}return o}},Et={f:null,i:M,u:function(t,n){return function(e){var r=n(e);t.setAttribute("x1",H(r[0])),t.setAttribute("y1",H(r[1])),t.setAttribute("x2",H(r[2])),t.setAttribute("y2",H(r[3]))}}},Bt={f:H,i:b},It={f:H,i:function(t,n,e){var r=b(t,n,e);return r<=0?0:r>=1?1:r}},jt={f:function(t){var n=arguments.length>1&&void 0!==arguments[1]?arguments[1]:" ";return t&&t.length>0&&(t=t.map((function(t){return Math.floor(1e4*t)/1e4}))),X(t,n)},i:function(t,n,e){var r,i,u,o=n.length,a=e.length;if(o!==a)if(0===o)n=O(o=a,0);else if(0===a)a=o,e=O(o,0);else{var l=(u=(r=o)*(i=a)/function(t,n){for(var e;n;)e=n,n=t%n,t=e;return t||1}(r,i))<0?-u:u;n=E(n,Math.floor(l/o)),e=E(e,Math.floor(l/a)),o=a=l}for(var f=[],s=0;s<o;s++)f.push(g(w(t,n[s],e[s]),6));return f}};function Pt(t,n,e,r,i,u,o,a){return n=function(t,n,e){for(var r,i,u,o=t.length-1,a={},l=0;l<=o;l++)(r=t[l]).e&&(r.e=n(r.e)),r.v&&"g"===(i=r.v).t&&i.r&&(u=e.getElementById(i.r))&&(a[i.r]=u.querySelectorAll("stop"));return a}(t,r,a),function(r){var i,u=e(r,t,Ft);return u?"c"===u.t?Q(u.v):"g"===u.t?(n[u.r]&&function(t,n){for(var e=0,r=t.length;e<r;e++)t[e].setAttribute("stop-color",Q(n[e]))}(n[u.r],u.v),(i=u.r)?"url(#"+i+")":"none"):"none":"none"}}function Ft(t,n,e){if(0===t)return n;if(1===t)return e;if(n&&e){var r=n.t;if(r===e.t)switch(n.t){case"c":return{t:r,v:_(t,n.v,e.v)};case"g":if(n.r===e.r)return{t:r,v:S(t,n.v,e.v),r:n.r}}}return m(t,n,e)}var Rt={blur:k,brightness:w,contrast:w,"drop-shadow":function(t,n,e){return 0===t?n:1===t?e:{blur:k(t,n.blur,e.blur),offset:x(t,n.offset,e.offset),color:_(t,n.color,e.color)}},grayscale:w,"hue-rotate":b,invert:w,opacity:w,saturate:w,sepia:w};function Tt(t,n,e){if(0===t)return n;if(1===t)return e;var r=n.length;if(r!==e.length)return m(t,n,e);for(var i,u=[],o=0;o<r;o++){if(n[o].type!==e[o].type)return n;if(!(i=Rt[n[o].type]))return m(t,n,e);u.push({type:n.type,value:i(t,n[o].value,e[o].value)})}return u}var qt={blur:function(t){return t?function(n){t.setAttribute("stdDeviation",$(n))}:null},brightness:function(t,n,e){return(t=Vt(e,n))?function(n){n=H(n),t.map((function(t){return t.setAttribute("slope",n)}))}:null},contrast:function(t,n,e){return(t=Vt(e,n))?function(n){var e=H((1-n)/2);n=H(n),t.map((function(t){t.setAttribute("slope",n),t.setAttribute("intercept",e)}))}:null},"drop-shadow":function(t,n,e){var r=e.getElementById(n+"-blur");if(!r)return null;var i=e.getElementById(n+"-offset");if(!i)return null;var u=e.getElementById(n+"-flood");return u?function(t){r.setAttribute("stdDeviation",$(t.blur)),i.setAttribute("dx",H(t.offset.x)),i.setAttribute("dy",H(t.offset.y)),u.setAttribute("flood-color",Q(t.color))}:null},grayscale:function(t){return t?function(n){t.setAttribute("values",X(function(t){return[.2126+.7874*(t=1-t),.7152-.7152*t,.0722-.0722*t,0,0,.2126-.2126*t,.7152+.2848*t,.0722-.0722*t,0,0,.2126-.2126*t,.7152-.7152*t,.0722+.9278*t,0,0,0,0,0,1,0]}(n)))}:null},"hue-rotate":function(t){return t?function(n){return t.setAttribute("values",H(n))}:null},invert:function(t,n,e){return(t=Vt(e,n))?function(n){n=H(n)+" "+H(1-n),t.map((function(t){return t.setAttribute("tableValues",n)}))}:null},opacity:function(t,n,e){return(t=e.getElementById(n+"-A"))?function(n){return t.setAttribute("tableValues","0 "+H(n))}:null},saturate:function(t){return t?function(n){return t.setAttribute("values",H(n))}:null},sepia:function(t){return t?function(n){return t.setAttribute("values",X(function(t){return[.393+.607*(t=1-t),.769-.769*t,.189-.189*t,0,0,.349-.349*t,.686+.314*t,.168-.168*t,0,0,.272-.272*t,.534-.534*t,.131+.869*t,0,0,0,0,0,1,0]}(n)))}:null}};var Ct=["R","G","B"];function Vt(t,n){var e=Ct.map((function(e){return t.getElementById(n+"-"+e)||null}));return-1!==e.indexOf(null)?null:e}var Nt={fill:Pt,"fill-opacity":It,stroke:Pt,"stroke-opacity":It,"stroke-width":Bt,"stroke-dashoffset":{f:H,i:b},"stroke-dasharray":jt,opacity:It,transform:function(n,e,r,i){if(!(n=function(n,e){if(!n||"object"!==t(n))return null;var r=!1;for(var i in n)n.hasOwnProperty(i)&&(n[i]&&n[i].length?(n[i].forEach((function(t){t.e&&(t.e=e(t.e))})),r=!0):delete n[i]);return r?n:null}(n,i)))return null;var u=function(t,i,u){var o=arguments.length>3&&void 0!==arguments[3]?arguments[3]:null;return n[t]?r(i,n[t],u):e&&e[t]?e[t]:o};return e&&e.a&&n.o?function(t){var e=r(t,n.o,At);return Mt.recomposeSelf(e,u("r",t,b,0)+e.a,u("k",t,x),u("s",t,x),u("t",t,x)).toString()}:function(t){return Mt.recomposeSelf(u("o",t,kt,null),u("r",t,b,0),u("k",t,x),u("s",t,x),u("t",t,x)).toString()}},"#filter":function(t,n,e,r,i,u,o,a){if(!n.items||!t||!t.length)return null;var l=function(t,n){var e=(t=t.map((function(t){return t&&qt[t[0]]?(n.getElementById(t[1]),qt[t[0]](n.getElementById(t[1]),t[1],n)):null}))).length;return function(n){for(var r=0;r<e;r++)t[r]&&t[r](n[r].value)}}(n.items,a);return l?(t=function(t,n){return t.map((function(t){return t.e=n(t.e),t}))}(t,r),function(n){l(e(n,t,Tt))}):null},"#line":Et,points:{f:X,i:M},d:Ot,r:Bt,"#size":J,"#radius":Z,_:function(t,n){if(Array.isArray(t))for(var e=0;e<t.length;e++)this[t[e]]=n;else this[t]=n}};return function(t){!function(t,n){if("function"!=typeof n&&null!==n)throw new TypeError("Super expression must either be null or a function");t.prototype=Object.create(n&&n.prototype,{constructor:{value:t,writable:!0,configurable:!0}}),n&&u(t,n)}(o,t);var e=a(o);function o(){return n(this,o),e.apply(this,arguments)}return r(o,null,[{key:"build",value:function(t){var n=l(i(o),"build",this).call(this,t,Nt),e=n.el,r=n.options,u=n.player;return function(t,n,e){if("click"===e.start){return void n.addEventListener("click",(function(){switch(e.click){case"freeze":return!t._running&&t.reachedToEnd()&&(t.offset=0),t._running?t.pause():t.play();case"restart":return t.offset>0?t.restart():t.play();case"reverse":var n=!t._rollingBack&&t._running,r=t.reachedToEnd();return n||r&&1===t.fill?(t.pause(),r&&(t.offset=t.duration-1),t._rollback()):r?t.restart():t.play();case"none":default:return!t._running&&t.offset?t.restart():t.play()}}))}if("hover"===e.start)return n.addEventListener("mouseenter",(function(){return t.reachedToEnd()?t.restart():t.play()})),void n.addEventListener("mouseleave",(function(){switch(e.hover){case"freeze":return t.pause();case"reset":return t.stop();case"reverse":return t.pause(),t._rollback();case"none":default:return}}));if("scroll"===e.start)return void new Y(n,e.scroll||25,(function(n){n?t.reachedToEnd()?t.restart():t.play():t.pause()}));t.play()}(u,e,r),u}}]),o}(U)}));
__SVGATOR_PLAYER__.build({"root":"efbfytgje40c1","animations":[{"duration":1000,"direction":1,"iterations":0,"fill":1,"alternate":false,"elements":{"efbfytgje40c7":{"transform":{"data":{"t":{"x":-142.10002899169922,"y":-70.94999313354492}},"keys":{"o":[{"t":0,"v":{"x":142.10002899169922,"y":70.94999313354492,"type":"corner"}},{"t":500,"v":{"x":142.10002899169922,"y":65.94999313354492,"type":"corner"}},{"t":1000,"v":{"x":142.10002899169922,"y":70.94999313354492,"type":"corner"}}]}}}}}],"options":{"start":"load","hover":"freeze","click":"freeze","scroll":25,"exportedIds":"unique","title":"main_menu_01"},"animationSettings":{"duration":1000,"direction":1,"iterations":0,"fill":1,"alternate":false}})]]></script></svg>