<svg id="e6ogrtzwiiw71" xmlns="http://www.w3.org/2000/svg" xmlns:xlink="http://www.w3.org/1999/xlink" viewBox="0 0 284 170" shape-rendering="geometricPrecision" text-rendering="geometricPrecision"><style><![CDATA[#e6ogrtzwiiw732_to {animation: e6ogrtzwiiw732_to__to 1000ms linear infinite normal forwards}@keyframes e6ogrtzwiiw732_to__to { 0% {transform: translate(51.900000px,105.899998px)} 50% {transform: translate(61.900000px,105.899998px)} 100% {transform: translate(51.900000px,105.899998px)} }]]></style><rect id="e6ogrtzwiiw72" width="0.100000" height="0.100000" rx="0" ry="0" transform="matrix(1 0 0 1 172.19999999999999 68.40000000000001)" fill="none" stroke="none" stroke-width="1"/><rect id="e6ogrtzwiiw73" width="0.100000" height="2.800000" rx="0" ry="0" transform="matrix(1 0 0 1 169.69999999999999 60.30000000000000)" fill="none" stroke="none" stroke-width="1"/><rect id="e6ogrtzwiiw74" width="11.300000" height="0.100000" rx="0" ry="0" transform="matrix(1 0 0 1 173.69999999999999 59)" fill="none" stroke="none" stroke-width="1"/><polygon id="e6ogrtzwiiw75" points="171.300000,72.300000 171.300000,69.600000 172.300000,69.600000 172.300000,69.500000 171.300000,69.500000 171.300000,68.600000 171.200000,68.600000 171.200000,69.600000 171.200000,72.300000 171.200000,78.800000 171.200000,85.900000 171.300000,85.900000 171.300000,78.800000" fill="none" stroke="none" stroke-width="1"/><polygon id="e6ogrtzwiiw76" points="175.700000,168.300000 175.700000,156.900000 175.700000,153.800000 175.600000,153.800000 175.600000,156.900000 175.600000,168.300000 175.600000,170 175.700000,170" fill="none" stroke="none" stroke-width="1"/><rect id="e6ogrtzwiiw77" width="0.100000" height="6.500000" rx="0" ry="0" transform="matrix(1 0 0 1 176.59999999999999 147.30000000000001)" fill="none" stroke="none" stroke-width="1"/><rect id="e6ogrtzwiiw78" width="11.400000" height="0.100000" rx="0" ry="0" transform="matrix(1 0 0 1 150.90000000000001 62.30000000000000)" fill="none" stroke="none" stroke-width="1"/><polygon id="e6ogrtzwiiw79" points="132.100000,72.300000 132.100000,83.700000 132.300000,83.700000 132.300000,72.300000 132.300000,69.600000 132.100000,69.600000" fill="none" stroke="none" stroke-width="1"/><rect id="e6ogrtzwiiw710" width="0.700000" height="5.700000" rx="0" ry="0" transform="matrix(1 0 0 1 103.90000000000001 148.90000000000001)" fill="none" stroke="none" stroke-width="1"/><polygon id="e6ogrtzwiiw711" points="160.800000,163.800000 160.800000,168.900000 158.200000,168.900000 158.200000,170 162.100000,170 162.100000,163.800000" fill="none" stroke="none" stroke-width="1"/><rect id="e6ogrtzwiiw712" width="0.100000" height="0.100000" rx="0" ry="0" transform="matrix(1 0 0 1 139.90000000000001 68.40000000000001)" fill="none" stroke="none" stroke-width="1"/><polygon id="e6ogrtzwiiw713" points="228.500000,167.600000 230.100000,167.600000 230.100000,164.700000 233.800000,164.700000 233.800000,161.800000 229.100000,161.800000 229.100000,155.400000 225.500000,155.400000 225.500000,152.900000 220.800000,152.900000 220.800000,147.800000 216.900000,147.800000 216.900000,146.100000 212.200000,146.100000 212.200000,156.900000 215.300000,156.900000 215.300000,170 228.500000,170" fill="none" stroke="none" stroke-width="1"/><polygon id="e6ogrtzwiiw714" points="140,68.500000 139.900000,68.500000 139.900000,68.600000 139.700000,68.600000 139.700000,69.500000 140,69.500000" fill="rgb(211,229,239)" stroke="none" stroke-width="1"/><polygon id="e6ogrtzwiiw715" points="140,71.200000 140,69.600000 139.700000,69.600000 139.700000,72.300000 139.700000,78.800000 139.700000,83.600000 139.700000,83.700000 139.700000,85.900000 142.400000,85.900000 142.400000,83.700000 142.400000,83.600000 142.400000,78.800000 142.400000,72.300000 142.400000,71.200000" fill="rgb(211,229,239)" stroke="none" stroke-width="1"/><g id="e6ogrtzwiiw716"><polygon id="e6ogrtzwiiw717" points="172.300000,68.500000 172.200000,68.500000 172.200000,68.600000 171.300000,68.600000 171.300000,69.500000 172.300000,69.500000" fill="rgb(211,229,239)" stroke="none" stroke-width="1"/><polygon id="e6ogrtzwiiw718" points="172.300000,71.200000 172.300000,69.600000 171.300000,69.600000 171.300000,72.300000 171.300000,78.800000 171.300000,85.900000 174,85.900000 174,78.800000 174,72.300000 174,71.200000" fill="rgb(211,229,239)" stroke="none" stroke-width="1"/></g><polygon id="e6ogrtzwiiw719" points="181.500000,71.200000 181.500000,72.300000 181.500000,75.900000 181.200000,75.900000 178.400000,75.900000 176.700000,75.900000 174.300000,75.900000 174.300000,72.300000 174.300000,71.200000 174,71.200000 174,72.300000 174,78.800000 174,85.900000 174.100000,85.900000 176.600000,85.900000 178.300000,85.900000 181.100000,85.900000 183.800000,85.900000 183.800000,78.800000 183.800000,72.300000 183.800000,71.200000" fill="rgb(0,0,0)" stroke="none" stroke-width="1"/><polygon id="e6ogrtzwiiw720" points="152.100000,83.600000 152.100000,78.800000 152.100000,72.300000 152.100000,71.200000 149.900000,71.200000 149.900000,72.300000 149.900000,75.900000 149.600000,75.900000 148.100000,75.900000 146.800000,75.900000 145.100000,75.900000 142.700000,75.900000 142.700000,72.300000 142.700000,71.200000 142.400000,71.200000 142.400000,72.300000 142.400000,78.800000 142.400000,83.600000 142.400000,83.700000 142.400000,85.900000 142.500000,85.900000 145.100000,85.900000 146.800000,85.900000 148.100000,85.900000 149.600000,85.900000 152.300000,85.900000 152.300000,83.600000" fill="rgb(0,0,0)" stroke="none" stroke-width="1"/><polygon id="e6ogrtzwiiw721" points="180.500000,63.100000 181.100000,63.100000 190.600000,63.100000 191.900000,63.100000 191.900000,60.300000 190.700000,60.300000 190.600000,60.300000 185,60.300000 185,59.900000 185,59.800000 185,59.100000 173.700000,59.100000 173.700000,59.800000 173.700000,60.300000 173.600000,60.300000 169.800000,60.300000 169.800000,63.100000" fill="rgb(0,0,0)" stroke="none" stroke-width="1"/><polygon id="e6ogrtzwiiw722" points="148.100000,68.400000 147.900000,68.400000 140,68.400000 140,68.500000 140,69.500000 140,69.600000 140,71.200000 142.400000,71.200000 142.700000,71.200000 142.700000,72.300000 142.700000,75.900000 145.100000,75.900000 146.800000,75.900000 148.100000,75.900000 149.600000,75.900000 149.900000,75.900000 149.900000,72.300000 149.900000,71.200000 152.100000,71.200000 152.300000,71.200000 154,71.200000 154,69.600000 154,68.400000" fill="rgb(0,0,0)" stroke="none" stroke-width="1"/><polygon id="e6ogrtzwiiw723" points="172.300000,68.400000 172.300000,68.500000 172.300000,69.500000 172.300000,69.600000 172.300000,71.200000 174,71.200000 174.300000,71.200000 174.300000,72.300000 174.300000,75.900000 176.700000,75.900000 178.400000,75.900000 181.200000,75.900000 181.500000,75.900000 181.500000,72.300000 181.500000,71.200000 183.800000,71.200000 183.900000,71.200000 186.400000,71.200000 186.400000,69.600000 186.400000,68.400000" fill="rgb(0,0,0)" stroke="none" stroke-width="1"/><polygon id="e6ogrtzwiiw724" points="145.900000,60.800000 148,60.800000 148.100000,60.800000 150.900000,60.800000 150.900000,62.300000 162.300000,62.300000 162.300000,59.600000 157.300000,59.600000 157.300000,59.500000 157.300000,58 153.500000,58 153.500000,56.200000 148.100000,56.200000 148,56.200000 142.100000,56.200000 142.100000,59 145.900000,59" fill="rgb(0,0,0)" stroke="none" stroke-width="1"/><rect id="e6ogrtzwiiw725" width="0.200000" height="0.100000" rx="0" ry="0" transform="matrix(1 0 0 1 190.59999999999999 130.90000000000001)" fill="rgb(0,0,0)" stroke="none" stroke-width="1"/><polygon id="e6ogrtzwiiw726" points="180.500000,138.200000 180.500000,135.800000 176.100000,135.800000 176.100000,138.200000 176.100000,143 180.500000,143" fill="rgb(84,254,84)" stroke="none" stroke-width="1"/><polygon id="e6ogrtzwiiw727" points="180.500000,143 180.600000,143 180.600000,138.200000 180.600000,135.800000 180.500000,135.800000 180.500000,138.200000" fill="rgb(84,254,84)" stroke="none" stroke-width="1"/><polygon id="e6ogrtzwiiw728" points="175.700000,168.300000 175.700000,170 180.400000,170 180.400000,168.300000 180.300000,168.300000 180.300000,156.900000 180.300000,153.800000 179,153.800000 178.900000,153.800000 178.900000,147.300000 176.700000,147.300000 176.700000,153.800000 176.600000,153.800000 175.700000,153.800000 175.700000,156.900000" fill="rgb(84,254,84)" stroke="none" stroke-width="1"/><polygon id="e6ogrtzwiiw729" points="180.300000,168.300000 180.400000,168.300000 180.400000,156.900000 180.400000,153.800000 180.300000,153.800000 180.300000,156.900000" fill="rgb(84,254,84)" stroke="none" stroke-width="1"/><polygon id="e6ogrtzwiiw730" points="178.900000,153.800000 179,153.800000 179,147.200000 176.700000,147.200000 176.700000,147.300000 178.900000,147.300000" fill="rgb(84,254,84)" stroke="none" stroke-width="1"/><polygon id="e6ogrtzwiiw731" points="105.600000,118.500000 105.600000,122.400000 105.600000,127.100000 110,127.100000 118.500000,127.100000 118.500000,118.500000 126.100000,118.500000 126.100000,94.400000 118.500000,94.400000 118.500000,86.900000 105.600000,86.900000 105.600000,94.400000" fill="rgb(84,254,84)" stroke="none" stroke-width="1"/><g id="e6ogrtzwiiw732_to" transform="translate(51.900000,105.899998)"><polygon id="e6ogrtzwiiw732" points="44.400000,142.400000 54.900000,142.400000 54.900000,137 62.600000,137 62.600000,128.200000 66.400000,128.200000 66.400000,127.100000 73.200000,127.100000 73.200000,86.900000 66.400000,86.900000 66.400000,86 62.600000,86 62.600000,77.300000 54.900000,77.300000 54.900000,68.200000 44.400000,68.200000 44.400000,64.900000 30.600000,64.900000 30.600000,146.900000 44.400000,146.900000" transform="translate(-51.900000,-105.899998)" fill="rgb(84,254,84)" stroke="none" stroke-width="1"/></g><polygon id="e6ogrtzwiiw733" points="104.600000,155.800000 104.600000,154.600000 103.900000,154.600000 103.900000,148.900000 102,148.900000 100.200000,148.900000 100.200000,162.100000 113.300000,162.100000 113.300000,155.800000 111.100000,155.800000" fill="rgb(0,0,0)" stroke="none" stroke-width="1"/><polygon id="e6ogrtzwiiw734" points="86.200000,127.100000 94.300000,127.100000 96.900000,127.100000 96.900000,139.200000 100.600000,139.200000 110,139.200000 113.700000,139.200000 113.700000,129 110,129 110,127.100000 105.600000,127.100000 105.600000,122.400000 105.600000,118.500000 105.600000,94.400000 105.600000,86.900000 94.300000,86.900000 86.200000,86.900000 73.200000,86.900000 73.200000,127.100000" fill="rgb(0,0,0)" stroke="none" stroke-width="1"/><rect id="e6ogrtzwiiw735" width="0.200000" height="0.100000" rx="0" ry="0" transform="matrix(1 0 0 1 139.69999999999999 68.50000000000000)" fill="rgb(84,254,84)" stroke="none" stroke-width="1"/><rect id="e6ogrtzwiiw736" width="0.900000" height="0.100000" rx="0" ry="0" transform="matrix(1 0 0 1 171.30000000000001 68.50000000000000)" fill="rgb(84,254,84)" stroke="none" stroke-width="1"/><rect id="e6ogrtzwiiw737" width="2.700000" height="0" rx="0" ry="0" transform="matrix(1 0 0 1 171.30000000000001 85.90000000000001)" fill="rgb(84,254,84)" stroke="none" stroke-width="1"/><polygon id="e6ogrtzwiiw738" points="183.900000,78.800000 183.900000,72.300000 183.900000,71.200000 183.800000,71.200000 183.800000,72.300000 183.800000,78.800000 183.800000,85.900000 181.100000,85.900000 178.300000,85.900000 176.600000,85.900000 174.100000,85.900000 174.100000,85.900000 176.700000,85.900000 178.400000,85.900000 181.200000,85.900000 183.900000,85.900000" fill="rgb(84,254,84)" stroke="none" stroke-width="1"/><rect id="e6ogrtzwiiw739" width="0.100000" height="0" rx="0" ry="0" transform="matrix(1 0 0 1 174 85.90000000000001)" fill="rgb(84,254,84)" stroke="none" stroke-width="1"/><polygon id="e6ogrtzwiiw740" points="190.600000,63.100000 181.100000,63.100000 180.500000,63.100000 169.800000,63.100000 169.800000,63.200000 180.600000,63.200000 181.200000,63.200000 190.700000,63.200000 192,63.200000 192,60.300000 191.900000,60.300000 191.900000,63.100000" fill="rgb(84,254,84)" stroke="none" stroke-width="1"/><polygon id="e6ogrtzwiiw741" points="173.700000,59.800000 173.700000,59.100000 173.600000,59.100000 173.600000,59.900000 173.600000,60.300000 173.700000,60.300000" fill="rgb(84,254,84)" stroke="none" stroke-width="1"/><polygon id="e6ogrtzwiiw742" points="154,71.200000 154.200000,71.200000 154.200000,69.600000 154.200000,68.400000 154,68.400000 154,69.600000" fill="rgb(84,254,84)" stroke="none" stroke-width="1"/><rect id="e6ogrtzwiiw743" width="5" height="0.100000" rx="0" ry="0" transform="matrix(1 0 0 1 157.30000000000001 59.50000000000000)" fill="rgb(84,254,84)" stroke="none" stroke-width="1"/><polygon id="e6ogrtzwiiw744" points="114.900000,142.400000 114.900000,139.700000 111.100000,139.700000 108.500000,139.700000 102,139.700000 99.500000,139.700000 97.300000,139.700000 97.300000,148.900000 100.200000,148.900000 102,148.900000 103.900000,148.900000 104.600000,148.900000 104.600000,154.600000 104.600000,155.800000 111.100000,155.800000 113.300000,155.800000 115.200000,155.800000 122.200000,155.800000 122.200000,153.100000 122.200000,142.400000" fill="rgb(84,254,84)" stroke="none" stroke-width="1"/><g id="e6ogrtzwiiw745"><polygon id="e6ogrtzwiiw746" points="134.800000,163 130,163 130,158.400000 126.700000,158.400000 126.700000,153.100000 122.200000,153.100000 122.200000,155.800000 115.200000,155.800000 115.200000,161.800000 119.700000,161.800000 119.700000,166.300000 122.900000,166.300000 122.900000,170 138.200000,170 138.200000,165.300000 134.800000,165.300000" fill="rgb(0,0,0)" stroke="none" stroke-width="1"/><path id="e6ogrtzwiiw747" d="M242.900000,158.300000L242.900000,154L239.600000,154L239.600000,150.800000L236,150.800000L236,146.100000L233.200000,146.100000L233.200000,143.900000L230.200000,143.900000L230.200000,141.100000L227.200000,141.100000L227.200000,137.600000L220.500000,137.600000L220.500000,133L210.100000,133L210.100000,131L204.800000,131L204.800000,126.500000L194.200000,126.500000L194.200000,131L190.800000,131L190.600000,131L190.600000,130.900000L190.600000,129.800000L186.500000,129.800000L182.400000,129.800000L182.400000,129.700000L182.300000,129.700000L182.300000,129.800000L181.400000,129.800000L181.400000,129.700000L174.700000,129.700000L174.700000,126.500000L168,126.500000L168,131L163.600000,131L163.600000,135.300000L160.500000,135.300000L160.500000,140.200000L154.300000,140.200000L154.300000,151.900000L150.100000,151.900000L150.100000,157.500000L147.300000,157.500000L147.300000,167.900000L141.100000,167.900000L141.100000,170L158.200000,170L158.200000,168.900000L160.800000,168.900000L160.800000,163.800000L162.100000,163.800000L162.100000,170L169.600000,170L169.700000,170L175.600000,170L175.600000,168.300000L175.600000,156.900000L175.600000,153.800000L175.700000,153.800000L176.600000,153.800000L176.600000,147.300000L176.700000,147.300000L176.700000,147.200000L179,147.200000L179,153.800000L180.300000,153.800000L180.400000,153.800000L180.400000,156.900000L180.400000,168.300000L180.400000,170L188.900000,170L189.100000,170L215.300000,170L215.300000,156.900000L212.200000,156.900000L212.200000,146.100000L216.900000,146.100000L216.900000,147.800000L220.800000,147.800000L220.800000,152.900000L225.500000,152.900000L225.500000,155.400000L229.100000,155.400000L229.100000,161.800000L233.800000,161.800000L233.800000,164.700000L230.100000,164.700000L230.100000,167.600000L228.500000,167.600000L228.500000,170L240.200000,170L240.200000,167.300000L243.600000,167.300000L243.600000,158.300000L242.900000,158.300000ZM180.600000,138.200000L180.600000,143L180.500000,143L176.100000,143L176.100000,138.200000L176.100000,135.800000L180.500000,135.800000L180.600000,135.800000L180.600000,138.200000Z" fill="rgb(0,0,0)" stroke="none" stroke-width="1"/></g><path id="e6ogrtzwiiw748" d="M209.900000,77.600000L209.600000,77.600000L207.100000,77.600000L204.900000,77.600000L204.900000,77.700000L204.900000,78.800000L204.900000,78.900000L204.900000,79.300000L204.900000,79.400000L204.900000,79.900000L200.300000,79.900000L200.300000,79.400000L200.300000,79.300000L200.300000,78.900000L200.300000,78.800000L200.300000,77.700000L200.300000,77.300000L200.300000,77.200000L200.300000,72.300000L200.300000,69.800000L199.500000,69.800000L199.200000,69.800000L198.300000,69.800000L198.300000,67.100000L198.300000,59.900000L198.300000,56.400000L198.200000,56.400000L197.900000,56.400000L197,56.400000L197,53.600000L197,48.700000L197,45.800000L195.300000,45.800000L195.300000,44.700000L195.200000,44.700000L195.100000,44.700000L195,44.700000L195,42.700000L190.700000,42.700000L190.700000,42.300000L190.600000,42.300000L190.500000,42.300000L174.300000,42.300000L174.200000,42.300000L173.600000,42.300000L173.600000,42.300000L173.500000,42.300000L169.900000,42.300000L169.800000,42.300000L169.800000,44.600000L152.900000,44.600000L152.900000,44.700000L152.500000,44.700000L152.500000,46L148.400000,46L148,46L147.900000,46L147.900000,47.200000L144.200000,47.200000L144.100000,47.200000L144.100000,48.600000L142.500000,48.600000L142.400000,48.600000L142.300000,48.600000L139.700000,48.600000L139.600000,48.600000L139.500000,48.600000L139.100000,48.600000L138.900000,48.600000L138.900000,48.800000L138.900000,53.600000L135.600000,53.600000L135.500000,53.600000L135.500000,67.100000L135.500000,69.600000L133,69.600000L132.800000,69.600000L132.500000,69.600000L132.300000,69.600000L132.300000,72.300000L132.300000,83.700000L132.100000,83.700000L130.400000,83.700000L130.200000,83.700000L128.900000,83.700000L128.900000,87.800000L128.200000,87.800000L128.200000,106.300000L128.900000,106.300000L128.900000,110.400000L132.300000,110.400000L132.300000,115L135.500000,115L135.500000,118.500000L138.100000,118.500000L138.100000,121.100000L145.500000,121.100000L145.500000,123.700000L154.200000,123.700000L154.200000,125.400000L174.700000,125.400000L174.700000,126.500000L174.700000,129.700000L181.400000,129.700000L181.400000,129.800000L182.300000,129.800000L182.300000,129.700000L182.400000,129.700000L182.400000,129.800000L186.500000,129.800000L190.600000,129.800000L190.600000,130.900000L190.800000,130.900000L190.800000,131L194.200000,131L194.200000,126.500000L194.200000,125.300000L193.300000,125.300000L193.300000,118.300000L194.300000,118.300000L194.300000,115.400000L197.400000,115.400000L197.400000,115L197.400000,111.200000L198.700000,111.200000L198.700000,107L201.100000,107L201.100000,103.300000L200.400000,103.300000L200.400000,101L200.400000,99.400000L200.400000,99.200000L200.400000,98.400000L200.400000,94.700000L200.400000,94.500000L200.900000,94.500000L201.100000,94.500000L206.900000,94.500000L207.100000,94.500000L213,94.500000L213.200000,94.500000L213.200000,91.800000L213.200000,87.300000L213.200000,87.200000L213.200000,78.900000L213.200000,78.800000L213.200000,77.700000L213.200000,77.600000L209.900000,77.600000ZM154.200000,69.600000L154.200000,71.200000L154,71.200000L152.300000,71.200000L152.300000,72.300000L152.300000,78.800000L152.300000,83.600000L152.300000,85.900000L149.600000,85.900000L148.100000,85.900000L146.800000,85.900000L145.100000,85.900000L142.500000,85.900000L142.400000,85.900000L139.700000,85.900000L139.700000,83.700000L139.700000,83.600000L139.700000,78.800000L139.700000,72.300000L139.700000,69.600000L140,69.600000L140,69.500000L139.700000,69.500000L139.700000,68.600000L139.700000,68.500000L139.900000,68.500000L139.900000,68.400000L140,68.400000L147.900000,68.400000L148.100000,68.400000L154,68.400000L154.200000,68.400000L154.200000,69.600000ZM162.300000,59.600000L162.300000,62.300000L162.300000,62.400000L150.900000,62.400000L150.900000,62.300000L150.900000,60.800000L148.100000,60.800000L148,60.800000L145.900000,60.800000L145.900000,59L142.100000,59L142.100000,56.200000L148,56.200000L148.100000,56.200000L153.500000,56.200000L153.500000,58L157.300000,58L157.300000,59.500000L162.300000,59.600000L162.300000,59.600000ZM186.400000,69.600000L186.400000,71.200000L183.900000,71.200000L183.900000,72.300000L183.900000,78.800000L183.900000,85.900000L181.200000,85.900000L178.400000,85.900000L176.700000,85.900000L174.100000,85.900000L174,85.900000L171.300000,85.900000L171.300000,85.900000L171.200000,85.900000L171.200000,78.800000L171.200000,72.300000L171.200000,69.600000L171.200000,68.600000L171.300000,68.600000L171.300000,68.500000L172.200000,68.500000L172.200000,68.400000L172.300000,68.400000L186.400000,68.400000L186.400000,69.600000ZM192,63.200000L190.700000,63.200000L181.200000,63.200000L180.600000,63.200000L169.800000,63.200000L169.800000,63.100000L169.700000,63.100000L169.700000,60.300000L169.800000,60.300000L173.600000,60.300000L173.600000,59.900000L173.600000,59.100000L173.700000,59.100000L173.700000,59L185,59L185,59.100000L185,59.800000L185,59.900000L185,60.300000L190.600000,60.300000L190.700000,60.300000L191.900000,60.300000L192,60.300000L192,63.200000ZM199.500000,78.800000L199.500000,77.300000L199.600000,77.300000L199.500000,78.800000L199.600000,78.900000L199.600000,79.300000L199.500000,79.300000L199.500000,78.800000Z" fill="rgb(84,254,84)" stroke="none" stroke-width="1"/><g id="e6ogrtzwiiw749"><polygon id="e6ogrtzwiiw750" points="222,48.800000 222,48.700000 222,42 219.200000,42 219.200000,32.800000 215.300000,32.800000 215.300000,29.700000 212.800000,29.700000 212.800000,24.500000 207,24.500000 207,21.500000 197.700000,21.500000 197.700000,16.800000 190.500000,16.800000 190.500000,13.400000 147.900000,13.400000 147.900000,16.800000 139.500000,16.800000 139.500000,21.500000 132.300000,21.500000 132.300000,24.500000 126.500000,24.500000 126.500000,30.700000 122.900000,30.700000 122.900000,41 119.300000,41 119.300000,62.700000 121.800000,62.700000 121.800000,68.500000 124.500000,68.500000 124.500000,76.900000 127.700000,76.900000 127.700000,67.100000 128.900000,67.100000 128.900000,72.300000 130.200000,72.300000 130.200000,83.700000 130.400000,83.700000 132.100000,83.700000 132.100000,72.300000 132.100000,69.600000 132.300000,69.600000 132.500000,69.600000 132.800000,69.600000 133,69.600000 135.500000,69.600000 135.500000,67.100000 135.500000,53.600000 135.600000,53.600000 138.900000,53.600000 138.900000,48.800000 138.900000,48.600000 139.100000,48.600000 139.500000,48.600000 139.600000,48.600000 139.700000,48.600000 142.300000,48.600000 142.400000,48.600000 142.500000,48.600000 144.100000,48.600000 144.100000,47.200000 144.200000,47.200000 147.900000,47.200000 147.900000,46 148,46 148.400000,46 152.500000,46 152.500000,44.700000 152.900000,44.700000 152.900000,44.600000 169.800000,44.600000 169.800000,42.300000 169.900000,42.300000 173.500000,42.300000 173.600000,42.300000 173.600000,42.300000 174.200000,42.300000 174.300000,42.300000 190.500000,42.300000 190.600000,42.300000 190.700000,42.300000 190.700000,42.700000 195,42.700000 195,44.700000 195.100000,44.700000 195.200000,44.700000 195.300000,44.700000 195.300000,45.800000 197,45.800000 197,48.700000 197,53.600000 197,56.400000 197.900000,56.400000 198.200000,56.400000 198.300000,56.400000 198.300000,59.900000 198.300000,67.100000 198.300000,69.800000 199.200000,69.800000 199.500000,69.800000 200.300000,69.800000 200.300000,72.300000 200.300000,77.200000 200.300000,77.300000 200.300000,77.700000 200.300000,78.800000 200.300000,78.900000 200.300000,79.300000 200.300000,79.400000 200.300000,79.900000 204.900000,79.900000 204.900000,79.400000 204.900000,79.300000 204.900000,78.900000 204.900000,78.800000 204.900000,77.700000 204.900000,77.600000 207.100000,77.600000 209.600000,77.600000 209.900000,77.600000 213.200000,77.600000 213.200000,77.700000 213.200000,78.800000 213.200000,78.900000 213.200000,87.200000 213.200000,87.300000 213.200000,91.800000 213.200000,94.500000 213,94.500000 207.100000,94.500000 206.900000,94.500000 201.100000,94.500000 200.900000,94.500000 200.400000,94.500000 200.400000,94.700000 200.400000,98.400000 200.400000,99.200000 200.400000,99.400000 200.400000,101 200.400000,103.300000 201.100000,103.300000 209.600000,103.300000 209.600000,101 214,101 214,99.400000 215.200000,99.400000 215.200000,97.200000 217.200000,97.200000 217.200000,92.500000 219.700000,92.500000 219.700000,87.300000 222,87.300000 222,78.800000 225.700000,78.800000 225.700000,48.800000" fill="rgb(0,0,0)" stroke="none" stroke-width="1"/><polygon id="e6ogrtzwiiw751" points="199.500000,78.800000 199.500000,79.300000 199.600000,79.300000 199.600000,78.900000 199.600000,78.800000 199.600000,77.300000 199.500000,77.300000" fill="rgb(0,0,0)" stroke="none" stroke-width="1"/></g></svg>