<svg id="eam02gn2hmqh1" xmlns="http://www.w3.org/2000/svg" xmlns:xlink="http://www.w3.org/1999/xlink" viewBox="0 0 284 170" shape-rendering="geometricPrecision" text-rendering="geometricPrecision"><polygon id="eam02gn2hmqh2" points="90.800000,122.800000 90.500000,122.800000 90.500000,126.700000 88.100000,126.700000 88.100000,130.900000 86.600000,130.900000 86.600000,132.400000 86.900000,132.400000 86.900000,138.900000 90.800000,138.900000" fill="none" stroke="none" stroke-width="1"/><polygon id="eam02gn2hmqh3" points="27.300000,144.900000 27.300000,153 27,153 27,153.900000 29.400000,153.900000 29.400000,150.400000 34.100000,150.400000 34.100000,148.700000 33.900000,148.700000 33.900000,145.400000 31.100000,145.400000 31.100000,143.500000 29.600000,143.500000 29.600000,144.900000" fill="none" stroke="none" stroke-width="1"/><polygon id="eam02gn2hmqh4" points="43.700000,139.500000 43.700000,140.800000 44.800000,140.800000 44.800000,139.400000 43.900000,139.400000 41.100000,139.400000 41.100000,139.100000 38.800000,139.100000 38.800000,139.500000" fill="none" stroke="none" stroke-width="1"/><polygon id="eam02gn2hmqh5" points="159.700000,136.300000 162.700000,136.300000 162.700000,126.700000 160.900000,126.700000 160.900000,130.900000 159.400000,130.900000 159.400000,132.400000 159.700000,132.400000" fill="none" stroke="none" stroke-width="1"/><rect id="eam02gn2hmqh6" width="1.800000" height="4.700000" rx="0" ry="0" transform="matrix(1 0 0 1 34.50000000000000 80.70000000000000)" fill="rgb(211,229,239)" stroke="none" stroke-width="1"/><rect id="eam02gn2hmqh7" width="1.800000" height="4.100000" rx="0" ry="0" transform="matrix(1 0 0 1 34.50000000000000 76.59999999999999)" fill="rgb(211,229,239)" stroke="none" stroke-width="1"/><rect id="eam02gn2hmqh8" width="1.400000" height="3.100000" rx="0" ry="0" transform="matrix(1 0 0 1 40.40000000000000 76.59999999999999)" fill="rgb(84,254,84)" stroke="none" stroke-width="1"/><rect id="eam02gn2hmqh9" width="0.200000" height="3.100000" rx="0" ry="0" transform="matrix(1 0 0 1 37.70000000000000 76.59999999999999)" fill="rgb(89,89,89)" stroke="none" stroke-width="1"/><rect id="eam02gn2hmqh10" width="1.800000" height="3.100000" rx="0" ry="0" transform="matrix(1 0 0 1 38.60000000000000 76.59999999999999)" fill="rgb(0,0,0)" stroke="none" stroke-width="1"/><rect id="eam02gn2hmqh11" width="0.800000" height="3.100000" rx="0" ry="0" transform="matrix(1 0 0 1 37.80000000000000 76.59999999999999)" fill="rgb(84,254,84)" stroke="none" stroke-width="1"/><rect id="eam02gn2hmqh12" width="1.500000" height="0.600000" rx="0" ry="0" transform="matrix(1 0 0 1 24.30000000000000 150.59999999999999)" fill="rgb(0,0,0)" stroke="none" stroke-width="1"/><rect id="eam02gn2hmqh13" width="0.200000" height="1.800000" rx="0" ry="0" transform="matrix(1 0 0 1 20.70000000000000 109.09999999999999)" fill="rgb(0,0,0)" stroke="none" stroke-width="1"/><rect id="eam02gn2hmqh14" width="0.200000" height="0.900000" rx="0" ry="0" transform="matrix(1 0 0 1 20.70000000000000 108.20000000000000)" fill="rgb(0,0,0)" stroke="none" stroke-width="1"/><polygon id="eam02gn2hmqh15" points="20.400000,107.700000 20.100000,107.700000 20.100000,109.100000 20.700000,109.100000 20.700000,108.200000 20.400000,108.200000" fill="rgb(0,0,0)" stroke="none" stroke-width="1"/><rect id="eam02gn2hmqh16" width="2.100000" height="0.100000" rx="0" ry="0" transform="matrix(1 0 0 1 18 107.59999999999999)" fill="rgb(0,0,0)" stroke="none" stroke-width="1"/><rect id="eam02gn2hmqh17" width="0.300000" height="0.100000" rx="0" ry="0" transform="matrix(1 0 0 1 20.10000000000000 107.59999999999999)" fill="rgb(0,0,0)" stroke="none" stroke-width="1"/><rect id="eam02gn2hmqh18" width="0.200000" height="0.600000" rx="0" ry="0" transform="matrix(1 0 0 1 20.70000000000000 107.70000000000000)" fill="rgb(0,0,0)" stroke="none" stroke-width="1"/><rect id="eam02gn2hmqh19" width="0.300000" height="0.600000" rx="0" ry="0" transform="matrix(1 0 0 1 20.40000000000000 107.70000000000000)" fill="rgb(0,0,0)" stroke="none" stroke-width="1"/><rect id="eam02gn2hmqh20" width="0.200000" height="0.100000" rx="0" ry="0" transform="matrix(1 0 0 1 20.70000000000000 107.59999999999999)" fill="rgb(0,0,0)" stroke="none" stroke-width="1"/><rect id="eam02gn2hmqh21" width="0.300000" height="0.100000" rx="0" ry="0" transform="matrix(1 0 0 1 20.40000000000000 107.59999999999999)" fill="rgb(0,0,0)" stroke="none" stroke-width="1"/><rect id="eam02gn2hmqh22" width="0.200000" height="0.500000" rx="0" ry="0" transform="matrix(1 0 0 1 20.70000000000000 110.90000000000001)" fill="rgb(0,0,0)" stroke="none" stroke-width="1"/><rect id="eam02gn2hmqh23" width="3" height="0.500000" rx="0" ry="0" transform="matrix(1 0 0 1 17.70000000000000 110.90000000000001)" fill="rgb(0,0,0)" stroke="none" stroke-width="1"/><rect id="eam02gn2hmqh24" width="8.900000" height="0.100000" rx="0" ry="0" transform="matrix(1 0 0 1 94.90000000000001 78.80000000000000)" fill="rgb(89,89,89)" stroke="none" stroke-width="1"/><rect id="eam02gn2hmqh25" width="8.900000" height="2" rx="0" ry="0" transform="matrix(1 0 0 1 94.90000000000001 78.90000000000001)" fill="rgb(0,0,0)" stroke="none" stroke-width="1"/><rect id="eam02gn2hmqh26" width="8.900000" height="2.100000" rx="0" ry="0" transform="matrix(1 0 0 1 112.20000000000000 79.30000000000000)" fill="rgb(0,0,0)" stroke="none" stroke-width="1"/><rect id="eam02gn2hmqh27" width="2.500000" height="0.400000" rx="0" ry="0" transform="matrix(1 0 0 1 108 115.50000000000000)" fill="rgb(84,254,84)" stroke="none" stroke-width="1"/><rect id="eam02gn2hmqh28" width="2.500000" height="3" rx="0" ry="0" transform="matrix(1 0 0 1 108 112.40000000000001)" fill="rgb(84,254,84)" stroke="none" stroke-width="1"/><rect id="eam02gn2hmqh29" width="2.500000" height="0.600000" rx="0" ry="0" transform="matrix(1 0 0 1 108 115.90000000000001)" fill="rgb(84,254,84)" stroke="none" stroke-width="1"/><rect id="eam02gn2hmqh30" width="2.500000" height="0.700000" rx="0" ry="0" transform="matrix(1 0 0 1 108 116.50000000000000)" fill="rgb(84,254,84)" stroke="none" stroke-width="1"/><rect id="eam02gn2hmqh31" width="2.500000" height="1.500000" rx="0" ry="0" transform="matrix(1 0 0 1 108 120.09999999999999)" fill="rgb(84,254,84)" stroke="none" stroke-width="1"/><rect id="eam02gn2hmqh32" width="2.500000" height="0.100000" rx="0" ry="0" transform="matrix(1 0 0 1 108 120)" fill="rgb(84,254,84)" stroke="none" stroke-width="1"/><rect id="eam02gn2hmqh33" width="2.500000" height="2.800000" rx="0" ry="0" transform="matrix(1 0 0 1 108 125.59999999999999)" fill="rgb(84,254,84)" stroke="none" stroke-width="1"/><rect id="eam02gn2hmqh34" width="2.500000" height="4.100000" rx="0" ry="0" transform="matrix(1 0 0 1 108 121.59999999999999)" fill="rgb(84,254,84)" stroke="none" stroke-width="1"/><rect id="eam02gn2hmqh35" width="2.500000" height="3.400000" rx="0" ry="0" transform="matrix(1 0 0 1 108 129)" fill="rgb(84,254,84)" stroke="none" stroke-width="1"/><rect id="eam02gn2hmqh36" width="2.500000" height="0.600000" rx="0" ry="0" transform="matrix(1 0 0 1 108 128.40000000000001)" fill="rgb(84,254,84)" stroke="none" stroke-width="1"/><rect id="eam02gn2hmqh37" width="2.500000" height="4.900000" rx="0" ry="0" transform="matrix(1 0 0 1 108 132.40000000000001)" fill="rgb(84,254,84)" stroke="none" stroke-width="1"/><rect id="eam02gn2hmqh38" width="8.900000" height="0.100000" rx="0" ry="0" transform="matrix(1 0 0 1 167.69999999999999 78.80000000000000)" fill="rgb(89,89,89)" stroke="none" stroke-width="1"/><rect id="eam02gn2hmqh39" width="8.900000" height="2" rx="0" ry="0" transform="matrix(1 0 0 1 167.69999999999999 78.90000000000001)" fill="rgb(0,0,0)" stroke="none" stroke-width="1"/><rect id="eam02gn2hmqh40" width="1" height="0.100000" rx="0" ry="0" transform="matrix(1 0 0 1 191.50000000000000 79.80000000000000)" fill="rgb(89,89,89)" stroke="none" stroke-width="1"/><polygon id="eam02gn2hmqh41" points="185.900000,78.900000 186.100000,78.900000 186.100000,77.800000 183.600000,77.800000 183.600000,79.900000 184.600000,79.900000 184.600000,78.900000" fill="rgb(0,0,0)" stroke="none" stroke-width="1"/><polygon id="eam02gn2hmqh42" points="188.600000,78.900000 190,78.900000 190,78.900000 191.500000,78.900000 191.500000,79.800000 192.500000,79.800000 192.500000,77.800000 186.100000,77.800000 186.100000,78.900000" fill="rgb(0,0,0)" stroke="none" stroke-width="1"/><path id="eam02gn2hmqh43" d="M133.300000,53L130,53L130,49.300000L126.700000,49.300000L126.700000,46.800000L119.800000,46.800000L119.800000,44.700000L99.400000,44.700000L99.400000,46.800000L93.700000,46.800000L93.700000,49.300000L87.600000,49.300000L87.600000,53L84.300000,53L84.300000,57.700000L82.200000,57.700000L82.200000,83.100000L84.300000,83.100000L86.700000,83.100000L86.700000,83.400000L86.700000,86.700000L86.700000,87.800000L87.300000,87.800000L87.600000,87.800000L88,87.800000L89.500000,87.800000L89.500000,86.700000L89.500000,83.400000L89.500000,79L89.800000,79L89.800000,74.700000L91.200000,74.700000L91.200000,65L93.700000,65L125,65L125,68L126.700000,68L128,68L128,73.600000L127.600000,73.600000L127.600000,83.500000L127.600000,84L127.600000,86.800000L127.600000,89.500000L128,89.500000L130,89.500000L130.400000,89.500000L130.400000,86.800000L130.400000,84L133.300000,84L133.300000,83.500000L134.300000,83.500000L134.300000,57.700000L133.300000,57.700000L133.300000,53L133.300000,53ZM97.500000,54.300000L99.400000,54.300000L102.100000,54.300000L102.100000,54.400000L99.400000,54.400000L97.500000,54.300000L97.500000,54.300000ZM109.600000,51.900000L102.100000,51.900000L102.100000,51.800000L109.600000,51.900000L109.600000,51.900000Z" fill="rgb(0,0,0)" stroke="none" stroke-width="1"/><polygon id="eam02gn2hmqh44" points="95.200000,74.600000 95.200000,74.700000 104.400000,74.700000 104.400000,74.600000 104.400000,71.600000 95.200000,71.600000" fill="rgb(0,0,0)" stroke="none" stroke-width="1"/><polygon id="eam02gn2hmqh45" points="111,74.600000 111,75.200000 120.200000,75.200000 120.200000,74.600000 120.200000,72.100000 111,72.100000" fill="rgb(0,0,0)" stroke="none" stroke-width="1"/><g id="eam02gn2hmqh46"><path id="eam02gn2hmqh47" d="M201.400000,57.600000L201.400000,55.400000L198.600000,55.400000L198.600000,52.200000L196.800000,52.200000L196.800000,46.300000L190.800000,46.300000L190.800000,43.900000L187.700000,43.900000L187.700000,41.200000L184.300000,41.200000L184.300000,39.200000L178.200000,39.200000L178.200000,41.200000L176.800000,41.200000L176.800000,44.800000L170.800000,44.800000L170.800000,47.800000L167,47.800000L167,52.100000L163,52.100000L163,55.300000L160.200000,55.300000L160.200000,57.600000L158,57.600000L158,61.300000L156.500000,61.300000L156.500000,69L156.500000,73.600000L156.500000,81.300000L158,81.300000L158,83L159.500000,83L159.500000,83.300000L159.500000,87.700000L160.100000,87.700000L160.800000,87.700000L162.300000,87.700000L162.300000,84.500000L162.300000,83.300000L162.300000,78.900000L162.600000,78.900000L162.600000,74.600000L163.100000,74.600000L164,74.600000L164,64.900000L186.100000,64.900000L196.900000,64.900000L197.800000,64.900000L197.800000,67.900000L198.600000,67.900000L200.800000,67.900000L200.800000,73.500000L200.400000,73.500000L200.400000,83.400000L200.400000,83.900000L200.400000,84.600000L200.400000,89.400000L200.800000,89.400000L203.200000,89.400000L203.200000,83.900000L203.200000,83.400000L204.200000,83.400000L204.200000,67.800000L204.200000,58.600000L204.200000,57.600000C204.200000,57.600000,201.400000,57.600000,201.400000,57.600000ZM173.400000,56.400000L173.400000,56.400000L178,56.300000L178.100000,56.300000L178.100000,56.400000L178,56.400000L173.400000,56.400000Z" fill="rgb(0,0,0)" stroke="none" stroke-width="1"/><polygon id="eam02gn2hmqh48" points="167.900000,74.600000 167.900000,74.700000 177.100000,74.700000 177.100000,74.600000 177.100000,71.600000 167.900000,71.600000" fill="rgb(0,0,0)" stroke="none" stroke-width="1"/><polygon id="eam02gn2hmqh49" points="183.900000,69.100000 183.900000,72.100000 186.100000,72.100000 193.100000,72.100000 193.100000,69.100000 186.100000,69.100000" fill="rgb(0,0,0)" stroke="none" stroke-width="1"/></g><g id="eam02gn2hmqh50"><polygon id="eam02gn2hmqh51" points="184.600000,84.600000 184.600000,85.200000 185.900000,85.200000 185.900000,84.600000 185.900000,84.400000 184.600000,84.400000" fill="rgb(211,229,239)" stroke="none" stroke-width="1"/><polygon id="eam02gn2hmqh52" points="184.600000,78.900000 184.600000,79.900000 184.600000,83.300000 184.600000,84.300000 185.900000,84.300000 185.900000,83.300000 185.900000,79.900000 185.900000,78.900000" fill="rgb(211,229,239)" stroke="none" stroke-width="1"/></g><g id="eam02gn2hmqh53"><rect id="eam02gn2hmqh54" width="1.500000" height="2.700000" rx="0" ry="0" transform="matrix(1 0 0 1 190 80.30000000000000)" fill="rgb(0,0,0)" stroke="none" stroke-width="1"/><rect id="eam02gn2hmqh55" width="1.300000" height="2.700000" rx="0" ry="0" transform="matrix(1 0 0 1 188.59999999999999 80.30000000000000)" fill="rgb(0,0,0)" stroke="none" stroke-width="1"/></g><rect id="eam02gn2hmqh56" width="1.200000" height="2.700000" rx="0" ry="0" transform="matrix(1 0 0 1 187.40000000000001 80.30000000000000)" fill="rgb(0,0,0)" stroke="none" stroke-width="1"/><g id="eam02gn2hmqh57"><polygon id="eam02gn2hmqh58" points="180.800000,115.900000 180.800000,116.500000 180.800000,117.200000 183.300000,117.200000 183.300000,116.500000 183.300000,115.900000 183.300000,115.500000 180.800000,115.500000" fill="rgb(84,254,84)" stroke="none" stroke-width="1"/><rect id="eam02gn2hmqh59" width="2.500000" height="3" rx="0" ry="0" transform="matrix(1 0 0 1 180.80000000000001 112.40000000000001)" fill="rgb(84,254,84)" stroke="none" stroke-width="1"/></g><rect id="eam02gn2hmqh60" width="2.500000" height="0.100000" rx="0" ry="0" transform="matrix(1 0 0 1 180.80000000000001 120)" fill="rgb(84,254,84)" stroke="none" stroke-width="1"/><polygon id="eam02gn2hmqh61" points="180.800000,120.100000 180.800000,121.600000 180.800000,125.600000 180.800000,125.700000 180.800000,128.400000 180.800000,129 180.800000,132.400000 180.800000,137.300000 183.300000,137.300000 183.300000,132.400000 183.300000,129 183.300000,128.400000 183.300000,125.700000 183.300000,125.600000 183.300000,121.600000 183.300000,120.100000" fill="rgb(84,254,84)" stroke="none" stroke-width="1"/><rect id="eam02gn2hmqh62" width="1.700000" height="5.700000" rx="0" ry="0" transform="matrix(1 0 0 1 255.69999999999999 74.90000000000001)" fill="rgb(231,223,218)" stroke="none" stroke-width="1"/><polygon id="eam02gn2hmqh63" points="253.800000,72.200000 252.100000,72.200000 252.100000,74.300000 253.800000,74.300000" fill="rgb(255,255,255)" stroke="none" stroke-width="1"/><rect id="eam02gn2hmqh64" width="1.200000" height="4.600000" rx="0" ry="0" transform="matrix(1 0 0 1 242.69999999999999 74.90000000000001)" fill="rgb(211,229,239)" stroke="none" stroke-width="1"/><g id="eam02gn2hmqh65"><polygon id="eam02gn2hmqh66" points="41.800000,76.600000 41.800000,79.600000 40.400000,79.600000 38.600000,79.600000 37.800000,79.600000 37.700000,79.600000 37.700000,76.600000 37.300000,76.600000 36.300000,76.600000 36.300000,80.700000 36.300000,85.400000 36.400000,85.400000 37.300000,85.400000 37.600000,85.400000 37.800000,85.400000 38.600000,85.400000 40.400000,85.400000 41.900000,85.400000 42,85.400000 42,85 42,81.500000 42,80.700000 42,76.600000 41.900000,76.600000" fill="rgb(0,0,0)" stroke="none" stroke-width="1"/></g><polygon id="eam02gn2hmqh67" points="190,78.900000 188.600000,78.900000 186.100000,78.900000 185.900000,78.900000 185.900000,79.900000 185.900000,83.300000 185.900000,84.400000 185.900000,84.600000 185.900000,85.200000 187.400000,85.200000 188.600000,85.200000 190,85.200000 191.500000,85.200000 191.500000,84.600000 191.500000,84.400000 191.500000,83.300000 191.500000,82.900000 190,82.900000 188.600000,82.900000 187.400000,82.900000 187.400000,80.300000 188.600000,80.300000 190,80.300000 191.500000,80.300000 191.500000,79.900000 191.500000,79.800000 191.500000,78.900000" fill="rgb(0,0,0)" stroke="none" stroke-width="1"/><path id="eam02gn2hmqh68" d="M258.500000,73.800000L258.500000,72.200000L257.400000,72.200000L257.400000,72.200000L257.300000,72.200000L257.300000,71.900000L257,71.900000L257,70.700000L249.700000,70.700000L249.700000,72.200000L248.400000,72.200000L248.400000,73.700000L250,73.700000L250,72.300000L250,72.200000L250.800000,72.200000L250.800000,74.300000L250.800000,74.900000L251.500000,74.900000L250.800000,74.900000L250.800000,75.600000L250.800000,75.600000L250.800000,80.600000L252.100000,80.600000L253.800000,80.600000L254.400000,80.600000L255.700000,80.600000L255.700000,74.900000L257.400000,74.900000L257.400000,74.300000L257.400000,73.700000L257.400000,72.700000L257.400000,73.800000L258.500000,73.800000ZM252.100000,72.200000L253.800000,72.200000L253.800000,74.300000L252.100000,74.300000L252.100000,72.200000ZM252.100000,74.900000L252.100000,75.100000L252.100000,74.900000L252.100000,74.900000ZM251.500000,75.600000L252.100000,75.600000L252.100000,75.600000L251.500000,75.600000Z" fill="rgb(0,0,0)" stroke="none" stroke-width="1"/><rect id="eam02gn2hmqh69" width="1.200000" height="2.900000" rx="0" ry="0" transform="matrix(1 -0.00186900000000 0.00186900000000 1 240.09766800000000 72.00125310000000)" fill="rgb(255,255,255)" stroke="none" stroke-width="1"/><polygon id="eam02gn2hmqh70" points="246.300000,66.700000 242.600000,66.700000 241.100000,66.700000 241.100000,68.300000 242.600000,68.300000 246.300000,68.300000 247.500000,68.300000 247.500000,66.700000" fill="rgb(83,95,126)" stroke="none" stroke-width="1"/><rect id="eam02gn2hmqh71" width="6.400000" height="1.600000" rx="0" ry="0" transform="matrix(1 0 0 1 250.69999999999999 66.70000000000000)" fill="rgb(83,95,126)" stroke="none" stroke-width="1"/><polygon id="eam02gn2hmqh72" points="176.600000,78.900000 176.600000,78.800000 167.700000,78.800000 167.700000,78.900000 167.700000,80.900000 176.600000,80.900000" fill="none" stroke="none" stroke-width="1"/><polygon id="eam02gn2hmqh73" points="184.700000,83.300000 184.700000,84.300000 184.700000,84.500000 184.700000,85.100000 186,85.100000 187.500000,85.100000 188.700000,85.100000 190,85.100000 191.500000,85.100000 191.500000,84.500000 191.500000,84.300000 191.500000,83.300000 191.500000,82.900000 191.500000,80.200000 191.500000,79.900000 192.500000,79.900000 192.500000,79.800000 192.600000,79.800000 192.600000,77.800000 186.200000,77.800000 183.700000,77.800000 183.700000,79.900000 184.700000,79.900000" fill="none" stroke="none" stroke-width="1"/><polygon id="eam02gn2hmqh74" points="193.100000,72.100000 193.100000,69.100000 186,69.100000 183.900000,69.100000 183.900000,72.100000 186,72.100000" fill="none" stroke="none" stroke-width="1"/><polygon id="eam02gn2hmqh75" points="177.100000,74.600000 177.100000,71.700000 167.900000,71.700000 167.900000,74.600000 167.900000,74.700000 177.100000,74.700000" fill="none" stroke="none" stroke-width="1"/><polygon id="eam02gn2hmqh76" points="104.400000,74.600000 104.400000,71.700000 95.200000,71.700000 95.200000,74.600000 95.200000,74.700000 104.400000,74.700000" fill="none" stroke="none" stroke-width="1"/><polygon id="eam02gn2hmqh77" points="103.800000,78.900000 103.800000,78.800000 94.900000,78.800000 94.900000,78.900000 94.900000,80.900000 103.800000,80.900000" fill="none" stroke="none" stroke-width="1"/><polygon id="eam02gn2hmqh78" points="120.200000,74.600000 120.200000,72.200000 111,72.200000 111,74.600000 111,75.200000 120.200000,75.200000" fill="none" stroke="none" stroke-width="1"/><rect id="eam02gn2hmqh79" width="8.900000" height="2.100000" rx="0" ry="0" transform="matrix(1 0 0 1 112.20000000000000 79.30000000000000)" fill="none" stroke="none" stroke-width="1"/><polygon id="eam02gn2hmqh80" points="211,138.900000 211,118.600000 209.400000,118.600000 209.400000,116.500000 205.800000,116.500000 205.800000,112.200000 204.100000,112.200000 204.100000,109 190.600000,109 190.600000,109.400000 197.300000,109.400000 197.300000,112.200000 197.300000,112.400000 202.200000,112.400000 202.200000,116.500000 202.200000,116.900000 204.100000,116.900000 205.800000,116.900000 205.900000,116.900000 205.900000,118.600000 205.900000,123.200000 208,123.200000 208,136.300000 208.700000,136.300000 208.700000,138.900000 209.400000,138.900000" fill="rgb(84,254,84)" stroke="none" stroke-width="1"/><polygon id="eam02gn2hmqh81" points="163.600000,122.800000 163.300000,122.800000 163.300000,126.700000 162.700000,126.700000 162.700000,136.300000 163.600000,136.300000" fill="rgb(85,85,85)" stroke="none" stroke-width="1"/><rect id="eam02gn2hmqh82" width="1.600000" height="0.400000" rx="0" ry="0" transform="matrix(1 0 0 1 170.90000000000001 109)" fill="rgb(85,85,85)" stroke="none" stroke-width="1"/><polygon id="eam02gn2hmqh83" points="140.700000,138.900000 142.300000,138.900000 142.300000,118.600000 140.700000,118.600000 140.700000,116.500000 137.100000,116.500000 137.100000,112.200000 135.400000,112.200000 135.400000,109 117.800000,109 117.800000,109.400000 124.500000,109.400000 124.500000,112.200000 124.500000,112.400000 129.400000,112.400000 129.400000,116.500000 129.400000,116.900000 133.100000,116.900000 133.100000,118.600000 133.100000,123.200000 135.200000,123.200000 135.200000,136.300000 135.400000,136.300000 136,136.300000 136,138.900000 137.100000,138.900000" fill="rgb(84,254,84)" stroke="none" stroke-width="1"/><polygon id="eam02gn2hmqh84" points="129,137.600000 127.600000,137.600000 127.600000,127.600000 125.600000,127.600000 125.600000,124.100000 125.200000,124.100000 125.200000,138.900000 129,138.900000" fill="rgb(84,254,84)" stroke="none" stroke-width="1"/><path id="eam02gn2hmqh85" d="M133.400000,83.700000L130.400000,83.700000L130.400000,83.800000L130.400000,86.600000L130.400000,89.300000L130,89.300000L128,89.300000L127.600000,89.300000L127.600000,86.600000L127.600000,83.800000L127.600000,83.300000L127.600000,73.400000L128,73.400000L128,67.800000L126.700000,67.800000L125,67.800000L125,64.800000L93.700000,64.800000L91.200000,64.800000L91.200000,74.500000L89.800000,74.500000L89.800000,78.800000L89.500000,78.800000L89.500000,83.200000L89.500000,86.500000L89.500000,87.600000L88,87.600000L87.600000,87.600000L87.300000,87.600000L86.700000,87.600000L86.700000,86.500000L86.700000,83.200000L86.700000,82.900000L84.300000,82.900000L82.200000,82.900000L80.300000,82.900000L80.300000,92.600000L87.300000,92.600000L87.300000,97.500000L89.700000,97.500000L89.700000,100.100000L94.600000,100.100000L94.600000,103L98.700000,103L98.700000,104.400000L102.600000,104.400000L102.600000,105.400000L102.600000,106.400000L102.600000,109L102.600000,111.300000L113.700000,111.300000L113.700000,109L113.700000,106.400000L113.700000,105.400000L113.700000,104.400000L120.500000,104.400000L120.500000,103L124.600000,103L124.600000,100.100000L127.500000,100.100000L127.500000,94.600000L128.200000,94.600000L128.200000,93.400000L138.300000,93.400000L138.300000,83.700000C138.300000,83.700000,133.400000,83.700000,133.400000,83.700000ZM111,74.600000L111,72.200000L120.200000,72.200000L120.200000,74.600000L120.200000,75.200000L111,75.200000L111,74.600000ZM95.200000,74.600000L95.200000,71.700000L104.400000,71.700000L104.400000,74.600000L104.400000,74.700000L95.200000,74.600000L95.200000,74.600000ZM94.900000,80.900000L94.900000,78.900000L94.900000,78.800000L103.800000,78.800000L103.800000,78.900000L103.800000,80.900000L94.900000,80.900000ZM121.100000,81.400000L112.200000,81.400000L112.200000,79.300000L121.100000,79.300000L121.100000,81.400000Z" fill="rgb(84,254,84)" stroke="none" stroke-width="1"/><path id="eam02gn2hmqh86" d="M203.200000,83.700000L203.200000,89.300000L200.800000,89.300000L200.400000,89.300000L200.400000,84.500000L200.400000,83.800000L200.400000,83.300000L200.400000,73.400000L200.800000,73.400000L200.800000,67.800000L198.600000,67.800000L197.800000,67.800000L197.800000,64.800000L196.900000,64.800000L186.100000,64.800000L164,64.800000L164,74.500000L163,74.500000L162.500000,74.500000L162.500000,78.800000L162.200000,78.800000L162.200000,83.200000L162.200000,84.400000L162.200000,87.600000L160.700000,87.600000L160,87.600000L159.400000,87.600000L159.400000,83.200000L159.400000,82.900000L158,82.900000L153.200000,82.900000L153.200000,92.600000L160.200000,92.600000L160.200000,97.500000L162.600000,97.500000L162.600000,100.100000L167.500000,100.100000L167.500000,103L171.600000,103L171.600000,104.400000L175.400000,104.400000L175.400000,104.400000L175.400000,108.400000L175.400000,108.900000L175.400000,110.200000L175.400000,111.300000L186.500000,111.300000L186.500000,110.200000L186.500000,108.900000L186.500000,108.400000L186.500000,104.400000L186.500000,104.400000L186.600000,104.400000L193.400000,104.400000L193.400000,103L197.500000,103L197.500000,100.100000L200.400000,100.100000L200.400000,94.600000L201.100000,94.600000L201.100000,93.400000L211,93.400000L211,83.700000C211,83.700000,203.200000,83.700000,203.200000,83.700000ZM167.900000,74.600000L167.900000,71.700000L177.100000,71.700000L177.100000,74.600000L177.100000,74.700000L167.900000,74.600000L167.900000,74.600000ZM167.700000,80.900000L167.700000,78.900000L167.700000,78.800000L176.600000,78.800000L176.600000,78.900000L176.600000,80.900000L167.700000,80.900000ZM192.600000,79.800000L192.600000,79.800000L192.500000,79.900000L191.500000,79.900000L191.500000,80.200000L191.500000,82.900000L191.500000,83.300000L191.500000,84.300000L191.500000,84.500000L191.500000,85.100000L190,85.100000L188.700000,85.100000L187.500000,85.100000L186,85.100000L184.700000,85.100000L184.700000,84.500000L184.700000,84.300000L184.700000,83.300000L184.700000,79.900000L183.700000,79.900000L183.700000,77.800000L186.200000,77.800000L192.600000,77.800000L192.600000,79.800000L192.600000,79.800000ZM193.100000,72.100000L186,72.100000L183.900000,72.100000L183.900000,69.100000L186,69.100000L193.100000,69.100000L193.100000,72.100000Z" fill="rgb(84,254,84)" stroke="none" stroke-width="1"/><polygon id="eam02gn2hmqh87" points="157.100000,143.200000 159.700000,143.200000 161,143.200000 161,144.600000 161,145.100000 162.700000,145.100000 163.600000,145.100000 164.200000,145.100000 164.200000,146.100000 165.100000,146.100000 166.100000,146.100000 167.800000,146.100000 168,146.100000 168,144.600000 168,143.200000 168.800000,143.200000 168.800000,141.400000 170.900000,141.400000 171,141.400000 171,140.800000 171,139.800000 171,138.900000 171,138 170.900000,138 168.800000,138 168.800000,137 167.800000,137 166.800000,137 166.800000,136.300000 165.100000,136.300000 164.200000,136.300000 163.600000,136.300000 162.700000,136.300000 159.700000,136.300000 159.400000,136.300000 157.700000,136.300000 157.700000,136.600000 157.700000,137 157.100000,137 157.100000,138.900000 157.100000,140.800000" fill="rgb(84,254,84)" stroke="none" stroke-width="1"/><polygon id="eam02gn2hmqh88" points="189.700000,140.800000 189.700000,141.100000 191.900000,141.100000 191.900000,142.900000 192.600000,142.900000 192.600000,144.600000 192.600000,145.700000 193.800000,145.700000 195.600000,145.700000 196.500000,145.700000 196.500000,144.800000 198,144.800000 199.700000,144.800000 199.700000,144.600000 199.700000,142.900000 201.800000,142.900000 203.600000,142.900000 203.600000,140.800000 203.600000,138.900000 203.600000,137.600000 203.600000,136.700000 202.900000,136.700000 202.900000,136.300000 202.900000,135.900000 200.300000,135.900000 198,135.900000 195.600000,135.900000 193.800000,135.900000 193.800000,136.700000 191.900000,136.700000 191.900000,137.600000 189.700000,137.600000 189.700000,138.900000 189.700000,139.800000" fill="rgb(84,254,84)" stroke="none" stroke-width="1"/><polygon id="eam02gn2hmqh89" points="267.900000,110 267.600000,110 266.800000,110 266.600000,110 266.500000,110 260.600000,110 260.100000,110 260.100000,114.200000 259.400000,114.200000 258.300000,114.200000 258.300000,114.500000 258.300000,118 258.300000,120.200000 258.300000,127.700000 256.100000,127.700000 256.100000,132.200000 256.100000,132.900000 256.100000,135.400000 256.100000,138.700000 253.400000,138.700000 253.400000,152.800000 252.100000,152.800000 247.400000,152.800000 244.600000,152.800000 244.600000,153.900000 244.600000,155 241.400000,155 240.700000,155 240.700000,156.600000 240.700000,159.900000 241.400000,159.900000 244.600000,159.900000 244.600000,162.600000 247.400000,162.600000 252.100000,162.600000 256.200000,162.600000 256.200000,157.100000 257.200000,157.100000 257.900000,157.100000 257.900000,156.600000 257.900000,147.700000 260.500000,147.700000 260.500000,138.800000 260.800000,138.800000 264.300000,138.800000 264.400000,138.800000 264.400000,135.400000 264.400000,134.800000 264.400000,132.900000 264.400000,132.200000 264.400000,131.100000 264.400000,123 264.400000,120.200000 264.400000,119 265.700000,119 266.500000,119 266.600000,119 266.800000,119 267.600000,119 268,119 268.500000,119 268.500000,118.300000 268.500000,112.800000 268.500000,110.500000 268.500000,110 268,110" fill="rgb(84,254,84)" stroke="none" stroke-width="1"/><polygon id="eam02gn2hmqh90" points="44.200000,72.800000 44.200000,72.100000 44.200000,70.900000 43.200000,70.900000 42.300000,70.900000 42.300000,69.500000 42.300000,69.100000 41.900000,69.100000 41.100000,69.100000 41.100000,68.200000 37.300000,68.200000 34.500000,68.200000 34.500000,69.500000 34.500000,69.900000 37.300000,69.900000 38.400000,69.900000 38.400000,71 40.300000,71 40.300000,72.100000 40.300000,72.800000 41.900000,72.800000 43.200000,72.800000" transform="matrix(1 0 0 1 0.14999999999998 0.09999999999999)" fill="rgb(0,0,0)" stroke="none" stroke-width="1"/><polygon id="eam02gn2hmqh91" points="37.300000,74.900000 34.400000,74.900000 34.400000,76.100000 34.400000,76.300000 34.400000,76.600000 34.500000,76.600000 36.300000,76.600000 37.300000,76.600000 37.700000,76.600000 37.800000,76.600000 38.600000,76.600000 40.400000,76.600000 41.800000,76.600000 41.900000,76.600000 42,76.600000 42.300000,76.600000 42.300000,76.300000 42.300000,76.100000 42.300000,74.900000 41.900000,74.900000" fill="rgb(0,0,0)" stroke="none" stroke-width="1"/><polygon id="eam02gn2hmqh92" points="282,126.500000 282,121.800000 280,121.800000 280,118.300000 278.700000,118.300000 278.700000,112.800000 275.100000,112.800000 275.100000,110.500000 273.900000,110.500000 273.900000,106.900000 272.400000,106.900000 272.400000,104.800000 270.800000,104.800000 270.800000,103.200000 267.900000,103.200000 267.900000,102.900000 266.500000,102.900000 264.300000,102.900000 264.300000,103.200000 264.300000,103.800000 264.300000,104.400000 264.300000,104.600000 262,104.600000 262,105.100000 259.400000,105.100000 257.200000,105.100000 255.900000,105.100000 251.300000,105.100000 251.100000,105.100000 251.100000,109.100000 248.600000,109.100000 248.600000,114.500000 246.600000,114.500000 246.600000,125.400000 248.400000,125.400000 251.100000,125.400000 251.100000,129.600000 251.100000,132.900000 252,132.900000 253.200000,132.900000 254.400000,132.900000 254.400000,135.400000 256.100000,135.400000 256.100000,132.900000 256.100000,132.200000 256.100000,127.700000 258.300000,127.700000 258.300000,120.200000 258.300000,118 258.300000,114.500000 258.300000,114.200000 259.400000,114.200000 260.100000,114.200000 260.100000,110 260.600000,110 266.500000,110 266.600000,110 266.800000,110 267.600000,110 267.900000,110 268,110 268.500000,110 268.500000,110.500000 268.500000,112.800000 268.500000,118.300000 268.500000,119 268,119 267.600000,119 266.800000,119 266.600000,119 266.500000,119 265.700000,119 264.400000,119 264.400000,120.200000 264.400000,123 264.400000,131.100000 264.400000,132.200000 264.400000,132.900000 264.400000,134.800000 264.400000,135.400000 264.400000,138.800000 264.300000,138.800000 260.800000,138.800000 260.800000,138.900000 264.300000,138.900000 264.300000,141.200000 265.700000,141.200000 265.700000,143.700000 264.200000,143.700000 264.200000,160.100000 265.900000,160.100000 265.900000,168.400000 267.500000,168.400000 267.500000,170 284,170 284,126.500000" fill="rgb(0,0,0)" stroke="none" stroke-width="1"/><rect id="eam02gn2hmqh93" width="7" height="3.700000" rx="0" ry="0" transform="matrix(1 0 0 1 32.60000000000000 134.40000000000001)" fill="rgb(0,0,0)" stroke="none" stroke-width="1"/><rect id="eam02gn2hmqh94" width="10.200000" height="14.600000" rx="0" ry="0" transform="matrix(1 0 0 1 164.09999999999999 119)" fill="rgb(0,0,0)" stroke="none" stroke-width="1"/><path id="eam02gn2hmqh95" d="M279,78.200000L278.800000,78.200000L278.300000,78.200000L276.200000,78.200000L276.200000,79.500000L275.800000,79.500000L274.800000,79.500000L274.800000,82.700000L273.600000,82.700000L273.500000,82.700000L273.100000,82.700000L272.900000,82.700000L272.700000,82.700000L272.700000,83.500000L271.400000,83.500000L271.300000,83.500000L271.300000,84.100000L270,84.100000L270,84.300000L270,84.500000L270,85L268.300000,85L268.300000,84.500000L268.300000,84.300000L268.300000,83.200000L269.600000,83.200000L269.600000,82.600000L269.600000,82.200000L270.600000,82.200000L270.600000,79.800000L271.300000,79.800000L271.600000,79.800000L271.600000,76.200000L272.200000,76.200000L272.200000,74L272.200000,73.100000L272.200000,70.100000L271.900000,70.100000L270.700000,70.100000L270.700000,70L270.700000,69.700000L269,69.700000L269,69.300000L266.900000,69.300000L266.900000,66.700000L261.500000,66.700000L261.500000,65.100000L261.500000,64.600000L261.500000,64L258.700000,64L258.700000,63.300000L257.600000,63.300000L255.300000,63.300000L255.300000,61.500000L250.300000,61.500000L250.300000,59.600000L246.300000,59.600000L242.700000,59.600000L241,59.600000L241,64.600000L239,64.600000L237.100000,64.600000L237.100000,74.900000L236.200000,74.900000L235.600000,74.900000L235.600000,81.600000L234,81.600000L233.200000,81.600000L233.200000,83.900000L232.800000,83.900000L232,83.900000L232,94.400000L233.200000,94.400000L233.200000,96.700000L235.500000,96.700000L235.500000,98.800000L236.200000,98.800000L236.200000,100.200000L237.700000,100.200000L237.700000,102.600000L241.900000,102.600000L241.900000,104.100000L247.400000,104.100000L247.400000,104L247.600000,104L247.600000,104.200000L247.600000,105.100000L251.100000,105.100000L251.300000,105.100000L255.900000,105.100000L257.200000,105.100000L259.400000,105.100000L262,105.100000L262,104.600000L264.300000,104.600000L264.300000,104.400000L264.300000,103.800000L264.300000,103.200000L264.300000,102.900000L266.500000,102.900000L267.900000,102.900000L267.900000,101.100000L270.200000,101.100000L270.200000,99.400000L271.900000,99.400000L271.900000,97.100000L272.700000,97.100000L272.700000,95.600000L272.800000,95.600000L272.800000,94.800000L273.600000,94.800000L273.600000,94.300000L273.600000,92L273.600000,91.900000L273.600000,90.500000L273.600000,89.900000L273.600000,87.700000L273.900000,87.700000L274,87.700000L277.900000,87.700000L278.200000,87.700000L281,87.700000L281,86.100000L281,85.900000L281,84.600000L281,84.400000L281,79.500000L281,78.200000C281,78.200000,279,78.200000,279,78.200000ZM244.800000,73.400000L244,73.400000L244,74.900000L244,79.500000L242.800000,79.500000L241.900000,79.500000L241.500000,79.500000L240.300000,79.500000L239.300000,79.500000L239.300000,75.100000L239.300000,75L239.300000,72L239,72L238.700000,72L238.700000,73.300000L237.500000,73.300000L237.500000,71.900000L238.500000,71.900000L238.400000,70.700000L238.900000,70.700000L242.700000,70.700000L243.700000,70.700000L243.700000,71.800000L244,71.800000L244,72L244.800000,72L244.800000,73.400000ZM247.500000,68.300000L246.200000,68.300000L242.600000,68.300000L241.100000,68.300000L241.100000,66.700000L242.600000,66.700000L246.200000,66.700000L247.500000,66.700000L247.500000,68.300000ZM257.200000,66.700000L257.200000,68.300000L250.800000,68.300000L250.800000,66.700000L257.200000,66.700000ZM255.600000,80.600000L254.300000,80.600000L253.700000,80.600000L252,80.600000L250.700000,80.600000L250.700000,75.600000L250.700000,74.900000L250.700000,74.300000L250.800000,74.300000L250.800000,72.200000L250,72.200000L250,73.700000L248.400000,73.700000L248.400000,72.100000L249.700000,72.100000L249.700000,70.600000L257,70.600000L257,71.900000L257.300000,71.900000L257.300000,72.200000L258.400000,72.200000L258.400000,73.800000L257.300000,73.800000L257.300000,74.300000L257.300000,74.900000L257.300000,80.600000C257.300000,80.600000,255.600000,80.600000,255.600000,80.600000ZM275.500000,85.100000L275.500000,84.600000L275.600000,85.100000L275.500000,85.100000Z" fill="rgb(84,254,84)" stroke="none" stroke-width="1"/><g id="eam02gn2hmqh96"><path id="eam02gn2hmqh97" d="M44.700000,104.200000L46,104.200000L46,102.300000L48.400000,102.300000L48.400000,97L50,97L50,95.800000L51.300000,95.800000L51.300000,85.600000L52.700000,85.600000L52.700000,83.300000L52.700000,82.800000L52.700000,80.500000L50.600000,80.500000L49.900000,80.500000L48.400000,80.500000L48.400000,76.200000L47.400000,76.200000L47.400000,73.500000L46.700000,73.500000L46.700000,72.300000L46.700000,69.600000L45.400000,69.600000L45.400000,66.800000L44.800000,66.800000L44.500000,66.800000L44.500000,66.700000L43.900000,66.700000L43.900000,62.600000L43.200000,62.600000L42.200000,62.600000L42.200000,61.600000L42.100000,61.600000L37.600000,61.600000L35.200000,61.600000L35.200000,61.900000L34,61.900000L34,61.800000L34.900000,61.800000L34.900000,61.500000L34.900000,59.900000L34.900000,59.800000L34,59.800000L34,53.800000L11.500000,53.800000L11.500000,80.400000L11.100000,80.400000L10.100000,80.400000L8.400000,80.400000L8.300000,80.400000L8.200000,80.400000L7.800000,80.400000L6.400000,80.400000L4.300000,80.400000L4.300000,80.700000L4.300000,88.600000L4.300000,89.900000L7.800000,89.900000L8.200000,89.900000L8.300000,89.900000L8.900000,89.900000L8.900000,90.200000L8.900000,92.300000L8.900000,92.800000L8.400000,92.800000L8.400000,94.500000L8.400000,95.500000L8.300000,95.500000L8,95.500000L8,97.600000L9.400000,97.600000L9.400000,100L10.200000,100L10.200000,102.400000L11.900000,102.400000L11.900000,104.100000L14.300000,104.100000L14.300000,105.200000L13.400000,105.200000L13.400000,105.300000L14.300000,105.300000L14.500000,105.300000L15.700000,105.300000L15.700000,105.800000L15.700000,106L15.700000,106.500000L15.700000,106.800000L17.700000,106.800000L17.700000,107.400000L17.700000,107.600000L18,107.600000L20.100000,107.600000L20.400000,107.600000L20.700000,107.600000L21,107.600000L21,107.700000L21,108.200000L21,109.100000L21,110.900000L23.500000,110.900000L24.300000,110.900000L24.300000,110.800000L26.200000,110.800000L26.200000,109.100000L30.200000,109.100000L30.200000,108.200000L35.200000,108.200000L35.200000,107.300000L35.200000,106.300000L34.900000,106.300000L34.900000,106.200000L35.400000,106.200000L35.400000,107.200000L40.400000,107.200000L40.400000,105.700000L44.700000,105.700000L44.700000,104.200000ZM48.400000,83.300000L49.900000,83.300000L49.900000,83.400000L48.400000,83.400000L47.800000,83.300000L48.400000,83.300000ZM42.200000,76.100000L42.200000,76.300000L42.200000,76.600000L42,76.600000L42,80.700000L42,81.500000L42,85L42,85.400000L41.900000,85.400000L40.500000,85.400000L38.700000,85.400000L37.900000,85.400000L37.700000,85.400000L37.500000,85.400000L36.600000,85.400000L36.500000,85.400000L34.700000,85.400000L34.700000,80.700000L34.400000,76.600000L34.400000,76.300000L34.400000,76.100000L34.400000,75L37.300000,75L41.800000,75L42.200000,75L42.200000,76.100000ZM44.300000,72.300000L44.300000,73L43.300000,73L42,73L40.500000,73L40.500000,72.300000L40.500000,71L38.600000,71L38.600000,69.900000L37.600000,69.900000L34.800000,69.900000L34.800000,69.500000L34.800000,68.300000L37.600000,68.300000L41.400000,68.300000L41.400000,69.100000L41.900000,69.100000L42.100000,69.100000L42.200000,69.100000L42.300000,69.100000L42.300000,71.200000L44.300000,71.200000L44.300000,72.300000Z" fill="rgb(84,254,84)" stroke="none" stroke-width="1"/><polygon id="eam02gn2hmqh98" points="47.200000,135.300000 47.200000,138.900000 47.200000,139.400000 49.200000,139.400000 49.200000,140.200000 58,140.200000 58,140.100000 61.100000,140.100000 61.100000,140.800000 61.100000,141 69.900000,141 69.900000,140.800000 69.900000,139.500000 73,139.500000 73,138.900000 73,138 74.200000,138 74.200000,135.500000 65.500000,135.500000 65.500000,137 64.200000,137 64.200000,137.300000 63.500000,137.300000 63.500000,136.500000 58,136.500000 58,135.700000 52.800000,135.700000 52.800000,135.300000" fill="rgb(84,254,84)" stroke="none" stroke-width="1"/><polygon id="eam02gn2hmqh99" points="80.400000,144.400000 70.300000,144.400000 70.300000,144.600000 70.300000,147.200000 68.800000,147.200000 68.800000,147.700000 68,147.700000 68,146.300000 63.300000,146.300000 61.400000,146.300000 61.400000,144.900000 58.700000,144.900000 55.100000,144.900000 55.100000,144.600000 55.100000,144.100000 47.100000,144.100000 47.100000,144.600000 47.100000,150.400000 47.100000,150.500000 44.800000,150.500000 44.400000,150.500000 44.400000,151.400000 44.800000,151.400000 50.800000,151.400000 50.800000,152.900000 58.700000,152.900000 61.400000,152.900000 61.400000,152.800000 63.300000,152.800000 65.100000,152.800000 65.100000,153.900000 65.100000,154.300000 75.600000,154.300000 75.600000,153.900000 75.600000,151.700000 79.400000,151.700000 79.400000,150.400000 79.400000,149 80.400000,149 80.900000,149 80.900000,144.600000 80.900000,144.400000" fill="rgb(84,254,84)" stroke="none" stroke-width="1"/></g><polygon id="eam02gn2hmqh100" points="49.400000,57.200000 49.400000,55.800000 48.400000,55.800000 48.400000,53.900000 46.600000,53.900000 46.600000,52.300000 44.700000,52.300000 44.700000,49.600000 41.900000,49.600000 41.900000,47.400000 37.400000,47.400000 37.400000,45.200000 12.700000,45.200000 12.700000,47.400000 8.200000,47.400000 8.200000,49.600000 1.500000,49.600000 1.500000,52.300000 0,52.300000 0,78.700000 0,78.800000 0,93.300000 1.500000,93.300000 1.500000,94.500000 3.100000,94.500000 3.100000,93.300000 3.200000,93.300000 3.200000,94.500000 3.100000,94.500000 3.100000,95.500000 8,95.500000 8.300000,95.500000 8.400000,95.500000 8.400000,94.500000 8.400000,92.800000 8.900000,92.800000 8.900000,92.300000 8.900000,90.200000 8.900000,89.900000 8.300000,89.900000 8.200000,89.900000 7.800000,89.900000 4.300000,89.900000 4.300000,88.600000 4.300000,80.700000 4.300000,80.400000 6.400000,80.400000 7.800000,80.400000 8.200000,80.400000 8.300000,80.400000 8.400000,80.400000 9.600000,80.400000 10.600000,80.400000 11.400000,80.400000 11.600000,80.400000 11.600000,80.700000 11.600000,81.900000 12.700000,81.900000 12.800000,81.900000 13.900000,81.900000 13.900000,82.400000 13.900000,88 14.500000,88 16.600000,88 16.600000,86.600000 16.600000,82.400000 16.600000,81.900000 17,81.900000 17,80.700000 17,79.100000 18.100000,79.100000 19.100000,79.100000 19.100000,76.100000 19.100000,75.600000 19.100000,74.600000 22.100000,74.600000 22.100000,73.400000 22.100000,72.100000 22.100000,71.900000 22.100000,71.200000 22.100000,71 23.200000,71 23.900000,71 27.400000,71 27.400000,68.900000 27.400000,67.200000 27.400000,66.700000 27.400000,66.100000 29.200000,66.100000 30.700000,66.100000 30.700000,63.400000 32.600000,63.400000 32.600000,61.800000 32.600000,61.500000 32.600000,59.900000 32.600000,59.900000 34.800000,59.900000 34.800000,60 34.800000,61.600000 37.200000,61.600000 41.700000,61.600000 42,61.600000 42,62.700000 43.200000,62.700000 43.900000,62.700000 43.900000,66.700000 44.700000,66.700000 45.300000,66.700000 45.300000,69.500000 46.600000,69.500000 46.600000,64.400000 47.300000,64.400000 47.300000,65.800000 48.800000,65.800000 48.800000,67.200000 50.900000,67.200000 50.900000,57.200000" fill="rgb(0,0,0)" stroke="none" stroke-width="1"/><rect id="eam02gn2hmqh101" width="21.700000" height="11.100000" rx="0" ry="0" transform="matrix(1 0 0 1 94.90000000000001 48.50000000000000)" fill="rgb(0,0,0)" stroke="none" stroke-width="1"/><rect id="eam02gn2hmqh102" width="15.800000" height="9.400000" rx="0" ry="0" transform="matrix(1 0 0 1 172.09999999999999 50.20000000000000)" fill="rgb(0,0,0)" stroke="none" stroke-width="1"/><polygon id="eam02gn2hmqh103" points="276.100000,73.100000 276.100000,73.200000 278.200000,73.200000 278.800000,73.200000 278.800000,73.100000 278.100000,73.100000" fill="none" stroke="none" stroke-width="1"/><polygon id="eam02gn2hmqh104" points="271.900000,66.400000 270.700000,66.400000 270.700000,66.700000 270.700000,67.800000 270.800000,67.800000 270.800000,66.800000 270.800000,66.400000 271.900000,66.400000 272.600000,66.400000 272.800000,66.400000 272.800000,66.400000 272.600000,66.400000" fill="none" stroke="none" stroke-width="1"/><path id="eam02gn2hmqh105" d="M244.700000,72L243.900000,72L243.900000,72L244,72L244,71.800000L243.700000,71.800000L243.700000,70.600000L242.600000,70.700000L238.800000,70.700000L238.400000,70.700000L238.400000,72L237.400000,72L237.400000,73.400000L238.600000,73.400000L238.600000,72L238.800000,72L239.200000,72L239.200000,72.100000L239.200000,74.900000L239.800000,74.900000L239.300000,74.900000L239.300000,75L239.400000,75L239.400000,75.100000L239.300000,75.100000L239.300000,79.500000L240.200000,79.500000L241.400000,79.500000L241.800000,79.500000L242.800000,79.500000L242.800000,74.900000L244,74.900000L244,73.400000L244,72.500000L244,73.400000L244.800000,73.400000L244.700000,72ZM240.100000,72.100000L240.100000,72.100000L241.300000,72.100000L241.300000,74.900000L240.200000,74.900000L240.200000,74.900000L240.100000,74.900000L240.100000,72.100000L240.100000,72.100000Z" fill="rgb(0,0,0)" stroke="none" stroke-width="1"/><path id="eam02gn2hmqh106" d="M257.900000,156.600000L257.900000,157.100000L257.200000,157.100000L256.200000,157.100000L256.200000,162.600000L252.100000,162.600000L247.400000,162.600000L244.600000,162.600000L244.600000,159.900000L241.400000,159.900000L240.700000,159.900000L240.700000,156.600000L240.700000,155L241.400000,155L244.600000,155L244.600000,153.900000L244.600000,152.800000L247.400000,152.800000L252.100000,152.800000L252.100000,150.400000L247.400000,150.400000L247.400000,144.600000L241.400000,144.600000L241.400000,140.800000L236.700000,140.800000L236.700000,138.900000L211,138.900000L209.400000,138.900000L208.700000,138.900000L208.700000,136.300000L208,136.300000L208,123.200000L205.900000,123.200000L205.900000,118.600000L205.900000,116.900000L205.800000,116.900000L204.100000,116.900000L202.200000,116.900000L202.200000,116.500000L202.200000,112.400000L197.300000,112.400000L197.300000,112.200000L197.300000,109.400000L190.600000,109.400000L190.600000,109L190.600000,105.800000L186.400000,105.800000L186.400000,109L186.400000,109.400000L186.400000,110.400000L186.400000,111.300000L175.300000,111.300000L175.300000,110.400000L175.300000,109.400000L175.300000,109L175.300000,105.800000L172.500000,105.800000L172.500000,109L172.500000,109.400000L170.900000,109.400000L164.200000,109.400000L164.200000,111.200000L159.700000,111.200000L159.700000,115.600000L157.300000,115.600000L157.300000,118.300000L156.100000,118.300000L156.100000,122.500000L153.600000,122.500000L153.600000,128.200000L152.100000,128.200000L152.100000,136.600000L153.200000,136.600000L153.200000,138.900000L142.300000,138.900000L140.700000,138.900000L137.100000,138.900000L136,138.900000L136,136.300000L135.400000,136.300000L135.200000,136.300000L135.200000,123.200000L133.100000,123.200000L133.100000,118.600000L133.100000,116.900000L129.400000,116.900000L129.400000,116.500000L129.400000,112.400000L124.500000,112.400000L124.500000,112.200000L124.500000,109.400000L117.800000,109.400000L117.800000,109L117.800000,105.800000L113.600000,105.800000L113.600000,109L113.600000,109.400000L113.600000,110.400000L113.600000,111.300000L102.500000,111.300000L102.500000,110.400000L102.500000,109.400000L102.500000,109L102.500000,105.800000L99.700000,105.800000L99.700000,109.400000L91.500000,109.400000L91.500000,111.200000L86.900000,111.200000L86.900000,115.600000L84.500000,115.600000L84.500000,118.300000L83.300000,118.300000L83.300000,122.500000L80.800000,122.500000L80.800000,128.200000L79.300000,128.200000L79.300000,136.600000L80.400000,136.600000L80.400000,138.900000L73,138.900000L73,139.500000L69.900000,139.500000L69.900000,140.800000L69.900000,141L61.100000,141L61.100000,140.800000L61.100000,140.100000L58,140.100000L58,140.200000L49.200000,140.200000L49.200000,139.400000L47.200000,139.400000L47.200000,138.900000L47.200000,135.300000L47.200000,134.400000L43.700000,134.400000L43.700000,134L40.700000,134L40.700000,131.800000L38.800000,131.800000L38.800000,130.400000L30.300000,130.400000L30.300000,130.500000L28.400000,130.500000L28.400000,125.900000L27.200000,125.900000L27.200000,121.700000L26.400000,121.700000L26.400000,117.700000L25.800000,117.700000L25.800000,115.200000L27,115.200000L27,110.800000L26.200000,110.800000L24.300000,110.800000L24.300000,110.900000L23.500000,110.900000L21,110.900000L21,111.400000L20.900000,111.400000L20.700000,111.400000L17.800000,111.400000L17.800000,110.900000L20.700000,110.900000L20.700000,109.100000L20.100000,109.100000L20.100000,107.700000L18,107.700000L18,107.600000L17.800000,107.600000L17.800000,107.500000L17.800000,106.600000L16,106.600000L15.600000,106.600000L15.600000,106L15.600000,105.800000L15.600000,105.400000L14.500000,105.400000L14.200000,105.400000L13.300000,105.400000L7.800000,105.400000L7.800000,106.600000L7.700000,106.600000L7.700000,107.700000L3.800000,107.700000L3.800000,112.800000L1.100000,112.800000L1.100000,117.800000L0,117.800000L0,160.200000L0,170L24.300000,170L257.200000,170L257.200000,169.400000L262.100000,169.400000L262.100000,156.600000L257.900000,156.600000L257.900000,156.600000ZM34.100000,150.400000L29.400000,150.400000L29.400000,153.900000L27,153.900000L27,153L27.300000,153L27.300000,144.900000L29.600000,144.900000L29.600000,143.500000L31.100000,143.500000L31.100000,145.400000L33.900000,145.400000L33.900000,148.700000L34,148.700000L34.100000,148.700000L34.100000,150.400000ZM38.800000,136.700000L38.800000,136.700000L36.500000,136.700000L38.800000,136.700000ZM38.800000,139.600000L38.800000,139.200000L38.800000,139.100000L41.100000,139.100000L41.100000,139.400000L43.900000,139.400000L44.800000,139.400000L44.800000,140.800000L43.700000,140.800000L43.700000,139.600000L38.800000,139.600000ZM80.900000,144.600000L80.900000,149L80.400000,149L79.400000,149L79.400000,150.400000L79.400000,151.700000L75.600000,151.700000L75.600000,153.900000L75.600000,154.300000L65.100000,154.300000L65.100000,153.900000L65.100000,152.800000L63.300000,152.800000L61.400000,152.800000L61.400000,152.900000L58.700000,152.900000L50.800000,152.900000L50.800000,151.400000L44.800000,151.400000L44.400000,151.400000L44.400000,150.600000L44.700000,150.600000L47,150.600000L47,150.400000L47.100000,144.600000L47.100000,144.100000L55.100000,144.100000L55.100000,144.600000L55.100000,144.900000L58.700000,144.900000L61.400000,144.900000L61.400000,146.300000L63.300000,146.300000L68,146.300000L68,147.700000L68.800000,147.700000L68.800000,147.200000L70.300000,147.200000L70.300000,144.600000L70.300000,144.400000L80.400000,144.400000L80.900000,144.400000L80.900000,144.600000ZM90.800000,138.900000L86.900000,138.900000L86.900000,132.400000L86.600000,132.400000L86.600000,130.900000L88.100000,130.900000L88.100000,126.700000L90.500000,126.700000L90.500000,122.800000L90.800000,122.800000L90.800000,138.900000ZM110.500000,121.600000L110.500000,125.700000L110.500000,128.400000L110.500000,129L110.500000,132.400000L110.500000,137.300000L108,137.300000L108,132.400000L108,129L108,128.400000L108,125.600000L108,121.500000L108,120L110.500000,120.100000L110.500000,121.600000ZM110.500000,115.500000L110.500000,115.900000L110.500000,116.500000L110.500000,117.200000L108,117.200000L108,116.500000L108,115.900000L108,115.500000L108,112.500000L110.500000,112.500000L110.500000,115.500000ZM129,138.900000L125.200000,138.900000L125.200000,124.100000L125.600000,124.100000L125.600000,127.600000L127.600000,127.600000L127.600000,137.600000L129,137.600000L129,138.900000ZM171,138.900000L171,139.800000L171,140.800000L171,141.400000L170.900000,141.400000L168.800000,141.400000L168.800000,143.200000L168,143.200000L168,144.600000L168,146.100000L167.800000,146.100000L166.100000,146.100000L165.100000,146.100000L164.200000,146.100000L164.200000,145.100000L163.600000,145.100000L162.700000,145.100000L161,145.100000L161,144.600000L161,143.200000L159.700000,143.200000L157.100000,143.200000L157.100000,140.800000L157.100000,138.900000L157.100000,137L157.700000,137L157.700000,136.600000L157.700000,136.300000L159.400000,136.300000L159.700000,136.300000L159.700000,132.400000L159.400000,132.400000L159.400000,130.900000L160.900000,130.900000L160.900000,126.700000L162.700000,126.700000L163.300000,126.700000L163.300000,122.800000L163.600000,122.800000L163.600000,136.300000L164.200000,136.300000L165.100000,136.300000L166.800000,136.300000L166.800000,137L167.800000,137L168.800000,137L168.800000,138L170.900000,138L171,138L171,138.900000L171,138.900000ZM183.300000,121.600000L183.300000,125.700000L183.300000,128.400000L183.300000,129L183.300000,132.400000L183.300000,137.300000L180.800000,137.300000L180.800000,132.400000L180.800000,129L180.800000,128.400000L180.800000,125.600000L180.800000,121.500000L180.800000,120L183.300000,120.100000L183.300000,121.600000ZM183.300000,115.500000L183.300000,115.900000L183.300000,116.500000L183.300000,117.200000L180.800000,117.200000L180.800000,116.500000L180.800000,115.900000L180.800000,115.500000L180.800000,112.500000L183.300000,112.500000L183.300000,115.500000ZM203.600000,137.600000L203.600000,138.900000L203.600000,140.800000L203.600000,142.900000L201.800000,142.900000L199.700000,142.900000L199.700000,144.600000L199.700000,144.800000L198,144.800000L196.500000,144.800000L196.500000,145.700000L195.600000,145.700000L193.800000,145.700000L192.600000,145.700000L192.600000,144.600000L192.600000,142.900000L191.900000,142.900000L191.900000,141.100000L189.700000,141.100000L189.700000,140.800000L189.700000,139.800000L189.700000,138.900000L189.700000,137.600000L191.900000,137.600000L191.900000,136.700000L193.800000,136.700000L193.800000,135.900000L195.600000,135.900000L198,135.900000L200.300000,135.900000L202.900000,135.900000L202.900000,136.300000L202.900000,136.700000L203.600000,136.700000L203.600000,137.600000Z" fill="rgb(0,0,0)" stroke="none" stroke-width="1"/><polygon id="eam02gn2hmqh107" points="282.700000,50.300000 282.700000,52.700000 281.400000,52.700000 281.400000,51.100000 278.100000,51.100000 278.100000,48.100000 275.600000,48.100000 275.600000,46 272.400000,46 272.400000,43.400000 268.800000,43.400000 268.800000,41.300000 246.100000,41.400000 246.100000,43.500000 242.500000,43.500000 242.500000,46 238.800000,46 238.800000,48.100000 236,48.100000 236,51.100000 232.700000,51.100000 232.700000,55.800000 230.400000,55.800000 230.400000,68 232.700000,68 232.700000,83.900000 233.100000,83.900000 233.100000,81.600000 233.900000,81.600000 235.500000,81.600000 235.500000,74.900000 236.100000,74.900000 237,74.900000 237,64.600000 238.900000,64.600000 240.900000,64.600000 240.900000,59.600000 242.600000,59.600000 246.200000,59.600000 250.200000,59.600000 250.200000,61.500000 255.200000,61.500000 255.200000,63.300000 257.500000,63.300000 258.600000,63.300000 258.600000,64 261.400000,64 261.400000,64.600000 261.400000,65.100000 261.400000,66.700000 263,66.700000 266.800000,66.700000 266.800000,69.300000 267.600000,69.300000 267.600000,69.300000 269,69.300000 269,69.700000 270.800000,69.700000 270.800000,70 270.800000,70.100000 271.900000,70.100000 272.200000,70.100000 272.200000,73.100000 272.200000,74 272.200000,76.200000 271.600000,76.200000 271.600000,79.900000 271.400000,79.900000 270.600000,79.900000 270.600000,82.300000 269.600000,82.300000 269.600000,82.700000 269.600000,83.300000 268.300000,83.300000 268.300000,84.400000 268.300000,84.600000 268.300000,85.100000 269.900000,85.100000 269.900000,84.600000 269.900000,84.400000 269.900000,84.200000 271.300000,84.200000 271.300000,83.500000 271.400000,83.500000 272.700000,83.500000 272.700000,82.700000 272.900000,82.700000 273.100000,82.700000 273.500000,82.700000 273.600000,82.700000 274.800000,82.700000 274.800000,79.500000 275.800000,79.500000 276.100000,79.500000 276.100000,78.200000 278.200000,78.200000 278.800000,78.200000 279,78.200000 281,78.200000 281,79.500000 281,84.400000 281,84.600000 281,85.900000 281,86.100000 281,87.700000 278.300000,87.700000 278,87.700000 274,87.700000 273.600000,87.700000 273.600000,89.900000 273.600000,90.500000 273.600000,91.900000 273.600000,92 273.600000,94.300000 273.600000,94.800000 272.800000,94.800000 272.800000,95.600000 272.800000,97.900000 278,97.900000 278,95.200000 278.800000,95.200000 278.800000,93.100000 280.400000,93.100000 280.400000,92.100000 281.600000,92.100000 281.600000,92 284,92 284,86.600000 284,79.500000 284,75.700000 284,62.200000 284,55.600000 284,50.300000" fill="rgb(0,0,0)" stroke="none" stroke-width="1"/><polygon id="eam02gn2hmqh108" points="244,136.300000 244,132.400000 241.100000,132.400000 241.100000,128.100000 238.500000,128.100000 238.500000,123.400000 236.600000,123.400000 236.600000,121.800000 238.500000,121.800000 238.500000,115 235.500000,115 234.400000,115 231.400000,115 227.200000,115 227.200000,124.700000 233.400000,124.700000 233.400000,129.600000 236,129.600000 236,134.200000 238.800000,134.200000 238.800000,138.500000 242.700000,138.500000 242.700000,142.400000 247.700000,142.400000 247.700000,136.300000" fill="rgb(84,254,84)" stroke="none" stroke-width="1"/><polygon id="eam02gn2hmqh109" points="252,132.900000 251.100000,132.900000 251.100000,129.600000 251.100000,125.400000 248.400000,125.400000 248.400000,129.600000 247.700000,129.600000 247.700000,134.500000 247.700000,136.300000 247.700000,142.400000 247.700000,143 252,143 252,136.900000 253.200000,137 253.200000,132.900000" fill="rgb(84,254,84)" stroke="none" stroke-width="1"/><rect id="eam02gn2hmqh110" width="6.100000" height="6.100000" rx="0" ry="0" transform="matrix(1 0 0 1 242.40000000000001 136.30000000000001)" fill="rgb(84,254,84)" stroke="none" stroke-width="1"/><script><![CDATA[!function(t,n){"object"==typeof exports&&"undefined"!=typeof module?module.exports=n():"function"==typeof define&&define.amd?define(n):(t=t||self).__SVGATOR_PLAYER__=n()}(this,(function(){"use strict";function t(n){return(t="function"==typeof Symbol&&"symbol"==typeof Symbol.iterator?function(t){return typeof t}:function(t){return t&&"function"==typeof Symbol&&t.constructor===Symbol&&t!==Symbol.prototype?"symbol":typeof t})(n)}function n(t,n){if(!(t instanceof n))throw new TypeError("Cannot call a class as a function")}function e(t,n){for(var e=0;e<n.length;e++){var r=n[e];r.enumerable=r.enumerable||!1,r.configurable=!0,"value"in r&&(r.writable=!0),Object.defineProperty(t,r.key,r)}}function r(t,n,r){return n&&e(t.prototype,n),r&&e(t,r),t}function i(t){return(i=Object.setPrototypeOf?Object.getPrototypeOf:function(t){return t.__proto__||Object.getPrototypeOf(t)})(t)}function u(t,n){return(u=Object.setPrototypeOf||function(t,n){return t.__proto__=n,t})(t,n)}function o(t,n){return!n||"object"!=typeof n&&"function"!=typeof n?function(t){if(void 0===t)throw new ReferenceError("this hasn't been initialised - super() hasn't been called");return t}(t):n}function a(t){var n=function(){if("undefined"==typeof Reflect||!Reflect.construct)return!1;if(Reflect.construct.sham)return!1;if("function"==typeof Proxy)return!0;try{return Date.prototype.toString.call(Reflect.construct(Date,[],(function(){}))),!0}catch(t){return!1}}();return function(){var e,r=i(t);if(n){var u=i(this).constructor;e=Reflect.construct(r,arguments,u)}else e=r.apply(this,arguments);return o(this,e)}}function l(t,n,e){return(l="undefined"!=typeof Reflect&&Reflect.get?Reflect.get:function(t,n,e){var r=function(t,n){for(;!Object.prototype.hasOwnProperty.call(t,n)&&null!==(t=i(t)););return t}(t,n);if(r){var u=Object.getOwnPropertyDescriptor(r,n);return u.get?u.get.call(e):u.value}})(t,n,e||t)}var f=Math.abs;function s(t){return t}function c(t,n,e){var r=1-e;return 3*e*r*(t*r+n*e)+e*e*e}function h(){var t=arguments.length>0&&void 0!==arguments[0]?arguments[0]:0,n=arguments.length>1&&void 0!==arguments[1]?arguments[1]:0,e=arguments.length>2&&void 0!==arguments[2]?arguments[2]:1,r=arguments.length>3&&void 0!==arguments[3]?arguments[3]:1;return t<0||t>1||e<0||e>1?null:f(t-n)<=1e-5&&f(e-r)<=1e-5?s:function(i){if(i<=0)return t>0?i*n/t:0===n&&e>0?i*r/e:0;if(i>=1)return e<1?1+(i-1)*(r-1)/(e-1):1===e&&t<1?1+(i-1)*(n-1)/(t-1):1;for(var u,o=0,a=1;o<a;){var l=c(t,e,u=(o+a)/2);if(f(i-l)<1e-5)break;l<i?o=u:a=u}return c(n,r,u)}}function v(){return 1}function d(t){return 1===t?1:0}function y(){var t=arguments.length>0&&void 0!==arguments[0]?arguments[0]:1,n=arguments.length>1&&void 0!==arguments[1]?arguments[1]:0;if(1===t){if(0===n)return d;if(1===n)return v}var e=1/t;return function(t){return t>=1?1:(t+=n*e)-t%e}}function g(t){var n=arguments.length>1&&void 0!==arguments[1]?arguments[1]:2;if(Number.isInteger(t))return t;var e=Math.pow(10,n);return Math.round(t*e)/e}var p=Math.PI/180;function m(t,n,e){return t>=.5?e:n}function b(t,n,e){return 0===t||n===e?n:t*(e-n)+n}function w(t,n,e){var r=b(t,n,e);return r<=0?0:r}function x(t,n,e){return 0===t?n:1===t?e:{x:b(t,n.x,e.x),y:b(t,n.y,e.y)}}function k(t,n,e){return 0===t?n:1===t?e:{x:w(t,n.x,e.x),y:w(t,n.y,e.y)}}function A(t,n,e){var r=function(t,n,e){return Math.round(b(t,n,e))}(t,n,e);return r<=0?0:r>=255?255:r}function _(t,n,e){return 0===t?n:1===t?e:{r:A(t,n.r,e.r),g:A(t,n.g,e.g),b:A(t,n.b,e.b),a:b(t,null==n.a?1:n.a,null==e.a?1:e.a)}}function S(t,n,e){if(0===t)return n;if(1===t)return e;var r=n.length;if(r!==e.length)return m(t,n,e);for(var i=[],u=0;u<r;u++)i.push(_(t,n[u],e[u]));return i}function M(t,n,e){var r=n.length;if(r!==e.length)return m(t,n,e);for(var i=new Array(r),u=0;u<r;u++)i[u]=b(t,n[u],e[u]);return i}function O(t,n){for(var e=[],r=0;r<t;r++)e.push(n);return e}function E(t,n){if(--n<=0)return t;var e=(t=Object.assign([],t)).length;do{for(var r=0;r<e;r++)t.push(t[r])}while(--n>0);return t}var B,I=function(){function t(e){n(this,t),this.list=e,this.length=e.length}return r(t,[{key:"setAttribute",value:function(t,n){for(var e=this.list,r=0;r<this.length;r++)e[r].setAttribute(t,n)}},{key:"removeAttribute",value:function(t){for(var n=this.list,e=0;e<this.length;e++)n[e].removeAttribute(t)}},{key:"style",value:function(t,n){for(var e=this.list,r=0;r<this.length;r++)e[r].style[t]=n}}]),t}(),j=/-./g,P=function(t,n){return n.toUpperCase()};function F(t){return"function"==typeof t?t:m}function R(t){return t?"function"==typeof t?t:Array.isArray(t)?function(t){var n=arguments.length>1&&void 0!==arguments[1]?arguments[1]:s;if(!Array.isArray(t))return n;switch(t.length){case 1:return y(t[0])||n;case 2:return y(t[0],t[1])||n;case 4:return h(t[0],t[1],t[2],t[3])||n}return n}(t,null):function(t,n){var e=arguments.length>2&&void 0!==arguments[2]?arguments[2]:s;switch(t){case"linear":return s;case"steps":return y(n.steps||1,n.jump||0)||e;case"bezier":case"cubic-bezier":return h(n.x1||0,n.y1||0,n.x2||0,n.y2||0)||e}return e}(t.type,t.value,null):null}function T(t,n,e){var r=arguments.length>3&&void 0!==arguments[3]&&arguments[3],i=n.length-1;if(t<=n[0].t)return r?[0,0,n[0].v]:n[0].v;if(t>=n[i].t)return r?[i,1,n[i].v]:n[i].v;var u,o=n[0],a=null;for(u=1;u<=i;u++){if(!(t>n[u].t)){a=n[u];break}o=n[u]}return null==a?r?[i,1,n[i].v]:n[i].v:o.t===a.t?r?[u,1,a.v]:a.v:(t=(t-o.t)/(a.t-o.t),o.e&&(t=o.e(t)),r?[u,t,e(t,o.v,a.v)]:e(t,o.v,a.v))}function q(t,n){var e=arguments.length>2&&void 0!==arguments[2]?arguments[2]:null;return t&&t.length?"function"!=typeof n?null:("function"!=typeof e&&(e=null),function(r){var i=T(r,t,n);return null!=i&&e&&(i=e(i)),i}):null}function C(t,n){return t.t-n.t}function V(n,e,r,i,u){var o,a="@"===r[0],l="#"===r[0],f=B[r],s=m;switch(a?(o=r.substr(1),r=o.replace(j,P)):l&&(r=r.substr(1)),t(f)){case"function":if(s=f(i,u,T,R,r,a,e,n),l)return s;break;case"string":s=q(i,F(f));break;case"object":if((s=q(i,F(f.i),f.f))&&"function"==typeof f.u)return f.u(e,s,r,a,n)}return s?function(t,n,e){var r=arguments.length>3&&void 0!==arguments[3]&&arguments[3];if(r)return t instanceof I?function(r){return t.style(n,e(r))}:function(r){return t.style[n]=e(r)};if(Array.isArray(n)){var i=n.length;return function(r){var u=e(r);if(null==u)for(var o=0;o<i;o++)t[o].removeAttribute(n);else for(var a=0;a<i;a++)t[a].setAttribute(n,u)}}return function(r){var i=e(r);null==i?t.removeAttribute(n):t.setAttribute(n,i)}}(e,r,s,a):null}function N(n,e,r,i){if(!i||"object"!==t(i))return null;var u=null,o=null;return Array.isArray(i)?o=function(t){if(!t||!t.length)return null;for(var n=0;n<t.length;n++)t[n].e&&(t[n].e=R(t[n].e));return t.sort(C)}(i):(o=i.keys,u=i.data||null),o?V(n,e,r,o,u):null}function z(t,n,e){if(!e)return null;var r=[];for(var i in e)if(e.hasOwnProperty(i)){var u=N(t,n,i,e[i]);u&&r.push(u)}return r.length?r:null}function D(t,n){if(!n.duration||n.duration<0)return null;var e=function(t,n){if(!n)return null;var e=[];if(Array.isArray(n))for(var r=n.length,i=0;i<r;i++){var u=n[i];if(2===u.length){var o=null;if("string"==typeof u[0])o=t.getElementById(u[0]);else if(Array.isArray(u[0])){o=[];for(var a=0;a<u[0].length;a++)if("string"==typeof u[0][a]){var l=t.getElementById(u[0][a]);l&&o.push(l)}o=o.length?1===o.length?o[0]:new I(o):null}if(o){var f=z(t,o,u[1]);f&&(e=e.concat(f))}}}else for(var s in n)if(n.hasOwnProperty(s)){var c=t.getElementById(s);if(c){var h=z(t,c,n[s]);h&&(e=e.concat(h))}}return e.length?e:null}(t,n.elements);return e?function(t,n){var e=arguments.length>2&&void 0!==arguments[2]?arguments[2]:1/0,r=arguments.length>3&&void 0!==arguments[3]?arguments[3]:1,i=arguments.length>4&&void 0!==arguments[4]&&arguments[4],u=arguments.length>5&&void 0!==arguments[5]?arguments[5]:1,o=t.length,a=r>0?n:0;i&&e%2==0&&(a=n-a);var l=null;return function(f,s){var c=f%n,h=1+(f-c)/n;s*=r,i&&h%2==0&&(s=-s);var v=!1;if(h>e)c=a,v=!0,-1===u&&(c=r>0?0:n);else if(s<0&&(c=n-c),c===l)return!1;l=c;for(var d=0;d<o;d++)t[d](c);return v}}(e,n.duration,n.iterations||1/0,n.direction||1,!!n.alternate,n.fill||1):null}function L(t,n){if(B=n,!t||!t.root||!Array.isArray(t.animations))return null;var e=window.document.getElementById(t.root);if(!e)return null;var r=t.animations.map((function(t){return D(e,t)})).filter((function(t){return!!t}));return r.length?{element:e,animations:r,animationSettings:t.animationSettings,options:t.options||void 0}:null}var U=function(){function t(e,r){var i=arguments.length>2&&void 0!==arguments[2]?arguments[2]:{};n(this,t),this._id=0,this._running=!1,this._rollingBack=!1,this._animations=e,this.duration=r.duration,this.alternate=r.alternate,this.fill=r.fill,this.iterations=r.iterations,this.direction=i.direction||1,this.speed=i.speed||1,this.fps=i.fps||100,this.offset=i.offset||0,this.rollbackStartOffset=0}return r(t,[{key:"_rollback",value:function(){var t=this,n=1/0,e=null;this.rollbackStartOffset=this.offset,this._rollingBack||(this._rollingBack=!0,this._running=!0);this._id=window.requestAnimationFrame((function r(i){if(t._rollingBack){null==e&&(e=i);var u=i-e,o=t.rollbackStartOffset-u,a=Math.round(o*t.speed);if(a>t.duration&&n!=1/0){var l=!!t.alternate&&a/t.duration%2>1,f=a%t.duration;a=(f+=l?t.duration:0)||t.duration}var s=t.fps?1e3/t.fps:0,c=Math.max(0,a);if(c<n-s){t.offset=c,n=c;for(var h=t._animations,v=h.length,d=0;d<v;d++)h[d](c,t.direction)}var y=!1;if(t.iterations>0&&-1===t.fill){var g=t.iterations*t.duration,p=g==a;a=p?0:a,t.offset=p?0:t.offset,y=a>g}a>0&&t.offset>=a&&!y?t._id=window.requestAnimationFrame(r):t.stop()}}))}},{key:"_start",value:function(){var t=this,n=arguments.length>0&&void 0!==arguments[0]?arguments[0]:0,e=-1/0,r=null,i={},u=function u(o){t._running=!0,null==r&&(r=o);var a=Math.round((o-r+n)*t.speed),l=t.fps?1e3/t.fps:0;if(a>e+l&&!t._rollingBack){t.offset=a,e=a;for(var f=t._animations,s=f.length,c=0,h=0;h<s;h++)i[h]?c++:(i[h]=f[h](a,t.direction),i[h]&&c++);if(c===s)return void t._stop()}t._id=window.requestAnimationFrame(u)};this._id=window.requestAnimationFrame(u)}},{key:"_stop",value:function(){this._id&&window.cancelAnimationFrame(this._id),this._running=!1,this._rollingBack=!1}},{key:"play",value:function(){!this._rollingBack&&this._running||(this._rollingBack=!1,this.rollbackStartOffset>this.duration&&(this.offset=this.rollbackStartOffset-(this.rollbackStartOffset-this.offset)%this.duration,this.rollbackStartOffset=0),this._start(this.offset))}},{key:"stop",value:function(){this._stop(),this.offset=0,this.rollbackStartOffset=0;var t=this.direction,n=this._animations;window.requestAnimationFrame((function(){for(var e=0;e<n.length;e++)n[e](0,t)}))}},{key:"reachedToEnd",value:function(){return this.iterations>0&&this.offset>=this.iterations*this.duration}},{key:"restart",value:function(){this._stop(),this.offset=0,this._start()}},{key:"pause",value:function(){this._stop()}},{key:"reverse",value:function(){this.direction=-this.direction}}],[{key:"build",value:function(n,e){return(n=L(n,e))?{el:n.element,options:n.options||{},player:new t(n.animations,n.animationSettings,n.options)}:null}}]),t}();!function(){for(var t=0,n=["ms","moz","webkit","o"],e=0;e<n.length&&!window.requestAnimationFrame;++e)window.requestAnimationFrame=window[n[e]+"RequestAnimationFrame"],window.cancelAnimationFrame=window[n[e]+"CancelAnimationFrame"]||window[n[e]+"CancelRequestAnimationFrame"];window.requestAnimationFrame||(window.requestAnimationFrame=function(n){var e=Date.now(),r=Math.max(0,16-(e-t)),i=window.setTimeout((function(){n(e+r)}),r);return t=e+r,i},window.cancelAnimationFrame=window.clearTimeout)}();var W=function(t,n){var e=!1,r=null;return function(i){e&&clearTimeout(e),e=setTimeout((function(){return function(){for(var i=0,u=window.innerHeight,o=0,a=window.innerWidth,l=t.parentNode;l instanceof Element;){var f=window.getComputedStyle(l);if("visible"!==f.overflowY||"visible"!==f.overflowX){var s=l.getBoundingClientRect();"visible"!==f.overflowY&&(i=Math.max(i,s.top),u=Math.min(u,s.bottom)),"visible"!==f.overflowX&&(o=Math.max(o,s.left),a=Math.min(a,s.right))}if(l===l.parentNode)break;l=l.parentNode}e=!1;var c=t.getBoundingClientRect(),h=Math.min(c.height,Math.max(0,i-c.top)),v=Math.min(c.height,Math.max(0,c.bottom-u)),d=Math.min(c.width,Math.max(0,o-c.left)),y=Math.min(c.width,Math.max(0,c.right-a)),g=(c.height-h-v)/c.height,p=(c.width-d-y)/c.width,m=Math.round(g*p*100);null!==r&&r===m||(r=m,n(m))}()}),100)}},Y=function(){function t(e,r,i){n(this,t),r=Math.max(1,r||1),r=Math.min(r,100),this.el=e,this.onTresholdChange=i&&i.call?i:function(){},this.tresholdPercent=r||1,this.currentVisibility=null,this.visibilityCalculator=W(e,this.onVisibilityUpdate.bind(this)),this.bindScrollWatchers(),this.visibilityCalculator()}return r(t,[{key:"bindScrollWatchers",value:function(){for(var t=this.el.parentNode;t&&(t.addEventListener("scroll",this.visibilityCalculator),t!==t.parentNode&&t!==document);)t=t.parentNode}},{key:"onVisibilityUpdate",value:function(t){var n=this.currentVisibility>=this.tresholdPercent,e=t>=this.tresholdPercent;if(null===this.currentVisibility||n!==e)return this.currentVisibility=t,void this.onTresholdChange(e);this.currentVisibility=t}}]),t}(),G=/\.0+$/g;function H(t){return Number.isInteger(t)?t+"":t.toFixed(6).replace(G,"")}function X(t){var n=arguments.length>1&&void 0!==arguments[1]?arguments[1]:" ";return t&&t.length?t.map(H).join(n):""}function $(t){return H(t.x)+","+H(t.y)}function Q(t){return t?null==t.a||t.a>=1?"rgb("+t.r+","+t.g+","+t.b+")":"rgba("+t.r+","+t.g+","+t.b+","+t.a+")":"transparent"}var Z={f:null,i:k,u:function(t,n){return function(e){var r=n(e);t.setAttribute("rx",H(r.x)),t.setAttribute("ry",H(r.y))}}},J={f:null,i:function(t,n,e){return 0===t?n:1===t?e:{width:w(t,n.width,e.width),height:w(t,n.height,e.height)}},u:function(t,n){return function(e){var r=n(e);t.setAttribute("width",H(r.width)),t.setAttribute("height",H(r.height))}}},K=Math.sin,tt=Math.cos,nt=Math.acos,et=Math.asin,rt=Math.tan,it=Math.atan2,ut=Math.PI/180,ot=180/Math.PI,at=Math.sqrt,lt=function(){function t(){var e=arguments.length>0&&void 0!==arguments[0]?arguments[0]:1,r=arguments.length>1&&void 0!==arguments[1]?arguments[1]:0,i=arguments.length>2&&void 0!==arguments[2]?arguments[2]:0,u=arguments.length>3&&void 0!==arguments[3]?arguments[3]:1,o=arguments.length>4&&void 0!==arguments[4]?arguments[4]:0,a=arguments.length>5&&void 0!==arguments[5]?arguments[5]:0;n(this,t),this.m=[e,r,i,u,o,a],this.i=null,this.w=null,this.s=null}return r(t,[{key:"point",value:function(t,n){var e=this.m;return{x:e[0]*t+e[2]*n+e[4],y:e[1]*t+e[3]*n+e[5]}}},{key:"translateSelf",value:function(){var t=arguments.length>0&&void 0!==arguments[0]?arguments[0]:0,n=arguments.length>1&&void 0!==arguments[1]?arguments[1]:0;if(!t&&!n)return this;var e=this.m;return e[4]+=e[0]*t+e[2]*n,e[5]+=e[1]*t+e[3]*n,this.w=this.s=this.i=null,this}},{key:"rotateSelf",value:function(){var t=arguments.length>0&&void 0!==arguments[0]?arguments[0]:0;if(t%=360){var n=K(t*=ut),e=tt(t),r=this.m,i=r[0],u=r[1];r[0]=i*e+r[2]*n,r[1]=u*e+r[3]*n,r[2]=r[2]*e-i*n,r[3]=r[3]*e-u*n,this.w=this.s=this.i=null}return this}},{key:"scaleSelf",value:function(){var t=arguments.length>0&&void 0!==arguments[0]?arguments[0]:1,n=arguments.length>1&&void 0!==arguments[1]?arguments[1]:1;if(1!==t||1!==n){var e=this.m;e[0]*=t,e[1]*=t,e[2]*=n,e[3]*=n,this.w=this.s=this.i=null}return this}},{key:"skewSelf",value:function(t,n){if(n%=360,(t%=360)||n){var e=this.m,r=e[0],i=e[1],u=e[2],o=e[3];t&&(t=rt(t*ut),e[2]+=r*t,e[3]+=i*t),n&&(n=rt(n*ut),e[0]+=u*n,e[1]+=o*n),this.w=this.s=this.i=null}return this}},{key:"resetSelf",value:function(){var t=arguments.length>0&&void 0!==arguments[0]?arguments[0]:1,n=arguments.length>1&&void 0!==arguments[1]?arguments[1]:0,e=arguments.length>2&&void 0!==arguments[2]?arguments[2]:0,r=arguments.length>3&&void 0!==arguments[3]?arguments[3]:1,i=arguments.length>4&&void 0!==arguments[4]?arguments[4]:0,u=arguments.length>5&&void 0!==arguments[5]?arguments[5]:0,o=this.m;return o[0]=t,o[1]=n,o[2]=e,o[3]=r,o[4]=i,o[5]=u,this.w=this.s=this.i=null,this}},{key:"recomposeSelf",value:function(){var t=arguments.length>0&&void 0!==arguments[0]?arguments[0]:null,n=arguments.length>1&&void 0!==arguments[1]?arguments[1]:null,e=arguments.length>2&&void 0!==arguments[2]?arguments[2]:null,r=arguments.length>3&&void 0!==arguments[3]?arguments[3]:null,i=arguments.length>4&&void 0!==arguments[4]?arguments[4]:null;return this.isIdentity||this.resetSelf(),t&&(t.x||t.y)&&this.translateSelf(t.x,t.y),n&&this.rotateSelf(n),e&&(e.x&&this.skewSelf(e.x,0),e.y&&this.skewSelf(0,e.y)),!r||1===r.x&&1===r.y||this.scaleSelf(r.x,r.y),i&&(i.x||i.y)&&this.translateSelf(i.x,i.y),this}},{key:"decompose",value:function(){var t=arguments.length>0&&void 0!==arguments[0]?arguments[0]:0,n=arguments.length>1&&void 0!==arguments[1]?arguments[1]:0,e=this.m,r=e[0]*e[0]+e[1]*e[1],i=[[e[0],e[1]],[e[2],e[3]]],u=at(r);if(0===u)return{origin:{x:e[4],y:e[5]},translate:{x:t,y:n},scale:{x:0,y:0},skew:{x:0,y:0},rotate:0};i[0][0]/=u,i[0][1]/=u;var o=e[0]*e[3]-e[1]*e[2]<0;o&&(u=-u);var a=i[0][0]*i[1][0]+i[0][1]*i[1][1];i[1][0]-=i[0][0]*a,i[1][1]-=i[0][1]*a;var l=at(i[1][0]*i[1][0]+i[1][1]*i[1][1]);if(0===l)return{origin:{x:e[4],y:e[5]},translate:{x:t,y:n},scale:{x:u,y:0},skew:{x:0,y:0},rotate:0};i[1][0]/=l,i[1][1]/=l,a/=l;var f=0;return i[1][1]<0?(f=nt(i[1][1])*ot,i[0][1]<0&&(f=360-f)):f=et(i[0][1])*ot,o&&(f=-f),a=it(a,at(i[0][0]*i[0][0]+i[0][1]*i[0][1]))*ot,{origin:{x:e[4],y:e[5]},translate:{x:t,y:n},scale:{x:u,y:l},skew:{x:a,y:0},rotate:f}}},{key:"toString",value:function(){return null===this.s&&(this.s="matrix("+this.m.map(st).join(" ")+")"),this.s}},{key:"determinant",get:function(){var t=this.m;return t[0]*t[3]-t[1]*t[2]}},{key:"isIdentity",get:function(){if(null===this.i){var t=this.m;this.i=1===t[0]&&0===t[1]&&0===t[2]&&1===t[3]&&0===t[4]&&0===t[5]}return this.i}}]),t}(),ft=/\.0+$/;function st(t){return Number.isInteger(t)?t:t.toFixed(14).replace(ft,"")}Object.freeze({M:2,L:2,Z:0,H:1,V:1,C:6,Q:4,T:2,S:4,A:7});function ct(t,n,e){return t+(n-t)*e}function ht(t,n,e){var r=arguments.length>3&&void 0!==arguments[3]&&arguments[3],i={x:ct(t.x,n.x,e),y:ct(t.y,n.y,e)};return r&&(i.a=vt(t,n)),i}function vt(t,n){return Math.atan2(n.y-t.y,n.x-t.x)}function dt(t,n,e,r){var i=1-r;return i*i*t+2*i*r*n+r*r*e}function yt(t,n,e,r){return 2*(1-r)*(n-t)+2*r*(e-n)}function gt(t,n,e,r){var i=arguments.length>4&&void 0!==arguments[4]&&arguments[4],u={x:dt(t.x,n.x,e.x,r),y:dt(t.y,n.y,e.y,r)};return i&&(u.a=pt(t,n,e,r)),u}function pt(t,n,e,r){return Math.atan2(yt(t.y,n.y,e.y,r),yt(t.x,n.x,e.x,r))}function mt(t,n,e,r,i){var u=i*i;return i*u*(r-t+3*(n-e))+3*u*(t+e-2*n)+3*i*(n-t)+t}function bt(t,n,e,r,i){var u=1-i;return 3*(u*u*(n-t)+2*u*i*(e-n)+i*i*(r-e))}function wt(t,n,e,r,i){var u=arguments.length>5&&void 0!==arguments[5]&&arguments[5],o={x:mt(t.x,n.x,e.x,r.x,i),y:mt(t.y,n.y,e.y,r.y,i)};return u&&(o.a=xt(t,n,e,r,i)),o}function xt(t,n,e,r,i){return Math.atan2(bt(t.y,n.y,e.y,r.y,i),bt(t.x,n.x,e.x,r.x,i))}function kt(t,n,e){var r=arguments.length>3&&void 0!==arguments[3]&&arguments[3];if(_t(n)){if(St(e))return gt(n,e.start,e,t,r)}else if(_t(e)){if(n.end)return gt(n,n.end,e,t,r)}else{if(n.end)return e.start?wt(n,n.end,e.start,e,t,r):gt(n,n.end,e,t,r);if(e.start)return gt(n,e.start,e,t,r)}return ht(n,e,t,r)}function At(t,n,e){var r=kt(t,n,e,!0);return r.a=function(t){var n=arguments.length>1&&void 0!==arguments[1]&&arguments[1];return n?t+Math.PI:t}(r.a)/p,r}function _t(t){return!t.type||"corner"===t.type}function St(t){return null!=t.start&&!_t(t)}var Mt=new lt;var Ot={f:function(t){return t?t.join(" "):""},i:function(n,e,r){if(0===n)return e;if(1===n)return r;var i=e.length;if(i!==r.length)return m(n,e,r);for(var u,o=new Array(i),a=0;a<i;a++){if((u=t(e[a]))!==t(r[a]))return m(n,e,r);if("number"===u)o[a]=b(n,e[a],r[a]);else{if(e[a]!==r[a])return m(n,e,r);o[a]=e[a]}}return o}},Et={f:null,i:M,u:function(t,n){return function(e){var r=n(e);t.setAttribute("x1",H(r[0])),t.setAttribute("y1",H(r[1])),t.setAttribute("x2",H(r[2])),t.setAttribute("y2",H(r[3]))}}},Bt={f:H,i:b},It={f:H,i:function(t,n,e){var r=b(t,n,e);return r<=0?0:r>=1?1:r}},jt={f:function(t){var n=arguments.length>1&&void 0!==arguments[1]?arguments[1]:" ";return t&&t.length>0&&(t=t.map((function(t){return Math.floor(1e4*t)/1e4}))),X(t,n)},i:function(t,n,e){var r,i,u,o=n.length,a=e.length;if(o!==a)if(0===o)n=O(o=a,0);else if(0===a)a=o,e=O(o,0);else{var l=(u=(r=o)*(i=a)/function(t,n){for(var e;n;)e=n,n=t%n,t=e;return t||1}(r,i))<0?-u:u;n=E(n,Math.floor(l/o)),e=E(e,Math.floor(l/a)),o=a=l}for(var f=[],s=0;s<o;s++)f.push(g(w(t,n[s],e[s]),6));return f}};function Pt(t,n,e,r,i,u,o,a){return n=function(t,n,e){for(var r,i,u,o=t.length-1,a={},l=0;l<=o;l++)(r=t[l]).e&&(r.e=n(r.e)),r.v&&"g"===(i=r.v).t&&i.r&&(u=e.getElementById(i.r))&&(a[i.r]=u.querySelectorAll("stop"));return a}(t,r,a),function(r){var i,u=e(r,t,Ft);return u?"c"===u.t?Q(u.v):"g"===u.t?(n[u.r]&&function(t,n){for(var e=0,r=t.length;e<r;e++)t[e].setAttribute("stop-color",Q(n[e]))}(n[u.r],u.v),(i=u.r)?"url(#"+i+")":"none"):"none":"none"}}function Ft(t,n,e){if(0===t)return n;if(1===t)return e;if(n&&e){var r=n.t;if(r===e.t)switch(n.t){case"c":return{t:r,v:_(t,n.v,e.v)};case"g":if(n.r===e.r)return{t:r,v:S(t,n.v,e.v),r:n.r}}}return m(t,n,e)}var Rt={blur:k,brightness:w,contrast:w,"drop-shadow":function(t,n,e){return 0===t?n:1===t?e:{blur:k(t,n.blur,e.blur),offset:x(t,n.offset,e.offset),color:_(t,n.color,e.color)}},grayscale:w,"hue-rotate":b,invert:w,opacity:w,saturate:w,sepia:w};function Tt(t,n,e){if(0===t)return n;if(1===t)return e;var r=n.length;if(r!==e.length)return m(t,n,e);for(var i,u=[],o=0;o<r;o++){if(n[o].type!==e[o].type)return n;if(!(i=Rt[n[o].type]))return m(t,n,e);u.push({type:n.type,value:i(t,n[o].value,e[o].value)})}return u}var qt={blur:function(t){return t?function(n){t.setAttribute("stdDeviation",$(n))}:null},brightness:function(t,n,e){return(t=Vt(e,n))?function(n){n=H(n),t.map((function(t){return t.setAttribute("slope",n)}))}:null},contrast:function(t,n,e){return(t=Vt(e,n))?function(n){var e=H((1-n)/2);n=H(n),t.map((function(t){t.setAttribute("slope",n),t.setAttribute("intercept",e)}))}:null},"drop-shadow":function(t,n,e){var r=e.getElementById(n+"-blur");if(!r)return null;var i=e.getElementById(n+"-offset");if(!i)return null;var u=e.getElementById(n+"-flood");return u?function(t){r.setAttribute("stdDeviation",$(t.blur)),i.setAttribute("dx",H(t.offset.x)),i.setAttribute("dy",H(t.offset.y)),u.setAttribute("flood-color",Q(t.color))}:null},grayscale:function(t){return t?function(n){t.setAttribute("values",X(function(t){return[.2126+.7874*(t=1-t),.7152-.7152*t,.0722-.0722*t,0,0,.2126-.2126*t,.7152+.2848*t,.0722-.0722*t,0,0,.2126-.2126*t,.7152-.7152*t,.0722+.9278*t,0,0,0,0,0,1,0]}(n)))}:null},"hue-rotate":function(t){return t?function(n){return t.setAttribute("values",H(n))}:null},invert:function(t,n,e){return(t=Vt(e,n))?function(n){n=H(n)+" "+H(1-n),t.map((function(t){return t.setAttribute("tableValues",n)}))}:null},opacity:function(t,n,e){return(t=e.getElementById(n+"-A"))?function(n){return t.setAttribute("tableValues","0 "+H(n))}:null},saturate:function(t){return t?function(n){return t.setAttribute("values",H(n))}:null},sepia:function(t){return t?function(n){return t.setAttribute("values",X(function(t){return[.393+.607*(t=1-t),.769-.769*t,.189-.189*t,0,0,.349-.349*t,.686+.314*t,.168-.168*t,0,0,.272-.272*t,.534-.534*t,.131+.869*t,0,0,0,0,0,1,0]}(n)))}:null}};var Ct=["R","G","B"];function Vt(t,n){var e=Ct.map((function(e){return t.getElementById(n+"-"+e)||null}));return-1!==e.indexOf(null)?null:e}var Nt={fill:Pt,"fill-opacity":It,stroke:Pt,"stroke-opacity":It,"stroke-width":Bt,"stroke-dashoffset":{f:H,i:b},"stroke-dasharray":jt,opacity:It,transform:function(n,e,r,i){if(!(n=function(n,e){if(!n||"object"!==t(n))return null;var r=!1;for(var i in n)n.hasOwnProperty(i)&&(n[i]&&n[i].length?(n[i].forEach((function(t){t.e&&(t.e=e(t.e))})),r=!0):delete n[i]);return r?n:null}(n,i)))return null;var u=function(t,i,u){var o=arguments.length>3&&void 0!==arguments[3]?arguments[3]:null;return n[t]?r(i,n[t],u):e&&e[t]?e[t]:o};return e&&e.a&&n.o?function(t){var e=r(t,n.o,At);return Mt.recomposeSelf(e,u("r",t,b,0)+e.a,u("k",t,x),u("s",t,x),u("t",t,x)).toString()}:function(t){return Mt.recomposeSelf(u("o",t,kt,null),u("r",t,b,0),u("k",t,x),u("s",t,x),u("t",t,x)).toString()}},"#filter":function(t,n,e,r,i,u,o,a){if(!n.items||!t||!t.length)return null;var l=function(t,n){var e=(t=t.map((function(t){return t&&qt[t[0]]?(n.getElementById(t[1]),qt[t[0]](n.getElementById(t[1]),t[1],n)):null}))).length;return function(n){for(var r=0;r<e;r++)t[r]&&t[r](n[r].value)}}(n.items,a);return l?(t=function(t,n){return t.map((function(t){return t.e=n(t.e),t}))}(t,r),function(n){l(e(n,t,Tt))}):null},"#line":Et,points:{f:X,i:M},d:Ot,r:Bt,"#size":J,"#radius":Z,_:function(t,n){if(Array.isArray(t))for(var e=0;e<t.length;e++)this[t[e]]=n;else this[t]=n}};return function(t){!function(t,n){if("function"!=typeof n&&null!==n)throw new TypeError("Super expression must either be null or a function");t.prototype=Object.create(n&&n.prototype,{constructor:{value:t,writable:!0,configurable:!0}}),n&&u(t,n)}(o,t);var e=a(o);function o(){return n(this,o),e.apply(this,arguments)}return r(o,null,[{key:"build",value:function(t){var n=l(i(o),"build",this).call(this,t,Nt),e=n.el,r=n.options,u=n.player;return function(t,n,e){if("click"===e.start){return void n.addEventListener("click",(function(){switch(e.click){case"freeze":return!t._running&&t.reachedToEnd()&&(t.offset=0),t._running?t.pause():t.play();case"restart":return t.offset>0?t.restart():t.play();case"reverse":var n=!t._rollingBack&&t._running,r=t.reachedToEnd();return n||r&&1===t.fill?(t.pause(),r&&(t.offset=t.duration-1),t._rollback()):r?t.restart():t.play();case"none":default:return!t._running&&t.offset?t.restart():t.play()}}))}if("hover"===e.start)return n.addEventListener("mouseenter",(function(){return t.reachedToEnd()?t.restart():t.play()})),void n.addEventListener("mouseleave",(function(){switch(e.hover){case"freeze":return t.pause();case"reset":return t.stop();case"reverse":return t.pause(),t._rollback();case"none":default:return}}));if("scroll"===e.start)return void new Y(n,e.scroll||25,(function(n){n?t.reachedToEnd()?t.restart():t.play():t.pause()}));t.play()}(u,e,r),u}}]),o}(U)}));
__SVGATOR_PLAYER__.build({"root":"eam02gn2hmqh1","animations":[{"duration":1000,"direction":1,"iterations":0,"fill":1,"alternate":false,"elements":{"eam02gn2hmqh108":{"transform":{"data":{"t":{"x":-237.4499969482422,"y":-128.6999969482422}},"keys":{"o":[{"t":0,"v":{"x":237.4499969482422,"y":128.6999969482422,"type":"corner"}},{"t":500,"v":{"x":233.4499969482422,"y":128.6999969482422,"type":"corner"}},{"t":1000,"v":{"x":237.4499969482422,"y":128.6999969482422,"type":"corner"}}]}}}}}],"options":{"start":"load","hover":"freeze","click":"freeze","scroll":25,"exportedIds":"unique","title":"main_menu_02"},"animationSettings":{"duration":1000,"direction":1,"iterations":0,"fill":1,"alternate":false}})]]></script></svg>