<svg id="e9wuqxu891dc1" xmlns="http://www.w3.org/2000/svg" xmlns:xlink="http://www.w3.org/1999/xlink" viewBox="0 0 284 170" shape-rendering="geometricPrecision" text-rendering="geometricPrecision"><g id="e9wuqxu891dc2"><polygon id="e9wuqxu891dc3" points="65.800000,80.400000 65.800000,82 65.800000,84.900000 64.800000,84.900000 61.200000,84.900000 61.200000,85.400000 61.200000,85.900000 61.200000,87.700000 61.200000,88.700000 61.200000,89.900000 61.200000,91.800000 62,91.800000 64.800000,91.800000 65.300000,91.800000 65.300000,89.900000 65.300000,88.100000 66.300000,88.100000 69.300000,88.100000 70,88.100000 70,87.700000 70,85.900000 70,85.400000 70,82 70,80.400000 66.300000,80.400000" fill="rgb(0,0,0)" stroke="none" stroke-width="1"/><polygon id="e9wuqxu891dc4" points="98.300000,80.400000 93.800000,80.400000 93.600000,80.400000 93.600000,82 93.600000,85.300000 91.500000,85.300000 86.700000,85.300000 86.700000,82 86.700000,80.400000 86.100000,80.400000 86.100000,82 86.100000,85.400000 86.100000,85.900000 86.100000,87.700000 86.100000,89.900000 86.100000,92.200000 91.500000,92.200000 93.800000,92.200000 99.200000,92.200000 99.200000,89.900000 99.200000,87.700000 99.200000,85.900000 99.200000,82 99.200000,80.400000" fill="rgb(0,0,0)" stroke="none" stroke-width="1"/></g><g id="e9wuqxu891dc5"><polygon id="e9wuqxu891dc6" points="59.600000,76.400000 59.600000,80.100000 59.600000,80.400000 61.200000,80.400000 61.200000,82 61.200000,84.900000 64.800000,84.900000 65.800000,84.900000 65.800000,82 65.800000,80.400000 66.300000,80.400000 70,80.400000 70.900000,80.400000 70.900000,76.400000 61.300000,76.400000" fill="rgb(0,0,0)" stroke="none" stroke-width="1"/><polygon id="e9wuqxu891dc7" points="103,80 100.600000,80 100.600000,79.300000 100.600000,76.400000 98.300000,76.400000 83.800000,76.400000 83.800000,80.400000 86.100000,80.400000 86.700000,80.400000 86.700000,82 86.700000,85.300000 91.500000,85.300000 93.600000,85.300000 93.600000,82 93.600000,80.400000 93.800000,80.400000 93.800000,80.400000 98.300000,80.400000 99.200000,80.400000 100.200000,80.400000 100.200000,82 103,82 105.200000,82 105.200000,80" fill="rgb(0,0,0)" stroke="none" stroke-width="1"/></g><path id="e9wuqxu891dc8" d="M268.100000,69.200000L268.100000,67L266,67L266,63.600000L132.800000,63.600000L132.800000,67L130.300000,67L130.300000,69.300000L128.100000,69.300000L128.100000,132.600000L128.100000,135.600000L128.400000,135.600000L130.300000,135.600000L130.300000,139.500000L132.800000,139.500000L132.800000,142.300000L183,142.300000L183,162.100000L159.800000,162.100000L159.800000,170L233.200000,170L233.200000,162.100000L226.600000,162.100000L226.600000,142.300000L266,142.300000L266,139.500000L268.100000,139.500000L268.100000,135.600000L270.400000,135.600000L270.400000,69.200000L268.100000,69.200000ZM264.800000,128.700000L264.800000,128.700000L264.800000,129.400000L264.800000,135.600000L264.800000,139.400000L134.100000,139.400000L134.100000,135.600000L134.100000,129.400000L134.100000,128.700000L134.100000,69.300000L199.400000,69.300000L264.800000,69.300000L264.800000,128.700000Z" fill="rgb(0,0,0)" stroke="none" stroke-width="1"/><path id="e9wuqxu891dc9" d="M199.500000,69.300000L199.500000,69.300000L134.200000,69.300000L134.200000,128.700000L134.100000,128.700000L134.100000,129.400000L134.100000,135.600000L134.100000,139.400000L264.800000,139.400000L264.800000,135.600000L264.800000,129.400000L264.800000,128.700000L264.800000,69.300000L199.500000,69.300000ZM238.800000,73.400000L258.100000,73.400000L258.100000,74.800000L238.800000,74.800000L238.800000,73.400000ZM238.800000,76L258.100000,76L258.100000,77.400000L238.800000,77.400000L238.800000,76ZM238.800000,78.600000L258.100000,78.600000L258.100000,80L238.800000,80L238.800000,78.600000ZM208.300000,73.400000L233.900000,73.400000L233.900000,74.800000L208.300000,74.800000L208.300000,73.400000ZM208.300000,76L233.900000,76L233.900000,77.400000L208.300000,77.400000L208.300000,76ZM208.300000,78.600000L233.900000,78.600000L233.900000,80L208.300000,80L208.300000,78.600000ZM208.200000,82L208.200000,82L258,82L258,83.400000L208.200000,83.400000L208.200000,82ZM238.800000,117.700000L242.700000,117.700000L242.700000,121.200000L238.800000,121.200000L238.800000,117.700000ZM229.900000,112.100000L229.900000,104.100000L238.800000,104.100000L238.800000,112.100000L229.900000,112.100000ZM242.300000,99.100000L242.300000,91.100000L251.200000,91.100000L251.200000,99.100000L242.300000,99.100000ZM251.200000,109.300000L255.100000,109.300000L255.100000,112.800000L251.200000,112.800000L251.200000,109.300000ZM229.200000,91.100000L229.200000,99.100000L220.300000,99.100000L220.300000,91.100000L229.200000,91.100000ZM212.500000,94.700000L212.500000,96.800000L210.200000,96.800000L210.200000,94.700000L212.500000,94.700000ZM206.900000,115.400000L215.800000,115.400000L215.800000,123.400000L206.900000,123.400000L206.900000,115.400000ZM180.400000,104.500000L185.800000,104.500000L185.800000,109.600000L180.400000,109.600000L180.400000,104.500000ZM170,79.400000L175.400000,79.400000L175.400000,109.600000L170,109.600000L170,79.400000ZM170,112.500000L183,112.500000L183,114L170,114L170,112.500000ZM170,115.300000L183,115.300000L183,116.800000L170,116.800000L170,115.300000ZM170,118.200000L183,118.200000L183,119.700000L170,119.700000L170,118.200000ZM160.300000,97.900000L165.700000,97.900000L165.700000,109.600000L160.300000,109.600000L160.300000,97.900000ZM151.200000,82.600000L156.600000,82.600000L156.600000,109.600000L151.200000,109.600000L151.200000,82.600000ZM149.300000,112.500000L166.600000,112.500000L166.600000,114L149.300000,114L149.300000,112.500000ZM149.300000,115.300000L166.600000,115.300000L166.600000,116.800000L149.300000,116.800000L149.300000,115.300000ZM149.300000,118.200000L166.600000,118.200000L166.600000,119.700000L149.300000,119.700000L149.300000,118.200000ZM149.300000,121.800000L183,121.800000L183,123.300000L149.300000,123.300000L149.300000,121.800000Z" fill="rgb(84,254,84)" stroke="none" stroke-width="1"/><g id="e9wuqxu891dc10"><rect id="e9wuqxu891dc11" width="25.600000" height="1.400000" rx="0" ry="0" transform="matrix(1 0 0 1 208.30000000000001 73.40000000000001)" fill="rgb(0,0,0)" stroke="none" stroke-width="1"/><rect id="e9wuqxu891dc12" width="19.300000" height="1.400000" rx="0" ry="0" transform="matrix(1 0 0 1 238.80000000000001 73.40000000000001)" fill="rgb(0,0,0)" stroke="none" stroke-width="1"/><rect id="e9wuqxu891dc13" width="25.600000" height="1.400000" rx="0" ry="0" transform="matrix(1 0 0 1 208.30000000000001 76)" fill="rgb(0,0,0)" stroke="none" stroke-width="1"/><rect id="e9wuqxu891dc14" width="19.300000" height="1.400000" rx="0" ry="0" transform="matrix(1 0 0 1 238.80000000000001 76)" fill="rgb(0,0,0)" stroke="none" stroke-width="1"/><rect id="e9wuqxu891dc15" width="25.600000" height="1.400000" rx="0" ry="0" transform="matrix(1 0 0 1 208.30000000000001 78.59999999999999)" fill="rgb(0,0,0)" stroke="none" stroke-width="1"/><rect id="e9wuqxu891dc16" width="19.300000" height="1.400000" rx="0" ry="0" transform="matrix(1 0 0 1 238.80000000000001 78.59999999999999)" fill="rgb(0,0,0)" stroke="none" stroke-width="1"/><rect id="e9wuqxu891dc17" width="49.800000" height="1.400000" rx="0" ry="0" transform="matrix(1 0 0 1 208.30000000000001 82)" fill="rgb(0,0,0)" stroke="none" stroke-width="1"/></g><g id="e9wuqxu891dc18"><rect id="e9wuqxu891dc19" width="5.400000" height="27" rx="0" ry="0" transform="matrix(1 0 0 1 151.19999999999999 82.59999999999999)" fill="rgb(0,0,0)" stroke="none" stroke-width="1"/><rect id="e9wuqxu891dc20" width="5.400000" height="11.700000" rx="0" ry="0" transform="matrix(1 0 0 1 160.30000000000001 97.90000000000001)" fill="rgb(0,0,0)" stroke="none" stroke-width="1"/><rect id="e9wuqxu891dc21" width="5.400000" height="30.200000" rx="0" ry="0" transform="matrix(1 0 0 1 170 79.40000000000001)" fill="rgb(0,0,0)" stroke="none" stroke-width="1"/><rect id="e9wuqxu891dc22" width="17.300000" height="1.500000" rx="0" ry="0" transform="matrix(1 0 0 1 149.30000000000001 112.50000000000000)" fill="rgb(0,0,0)" stroke="none" stroke-width="1"/><rect id="e9wuqxu891dc23" width="13.100000" height="1.500000" rx="0" ry="0" transform="matrix(1 0 0 1 170 112.50000000000000)" fill="rgb(0,0,0)" stroke="none" stroke-width="1"/><rect id="e9wuqxu891dc24" width="17.300000" height="1.500000" rx="0" ry="0" transform="matrix(1 0 0 1 149.30000000000001 115.30000000000000)" fill="rgb(0,0,0)" stroke="none" stroke-width="1"/><rect id="e9wuqxu891dc25" width="13.100000" height="1.500000" rx="0" ry="0" transform="matrix(1 0 0 1 170 115.30000000000000)" fill="rgb(0,0,0)" stroke="none" stroke-width="1"/><rect id="e9wuqxu891dc26" width="17.300000" height="1.500000" rx="0" ry="0" transform="matrix(1 0 0 1 149.30000000000001 118.20000000000000)" fill="rgb(0,0,0)" stroke="none" stroke-width="1"/><rect id="e9wuqxu891dc27" width="13.100000" height="1.500000" rx="0" ry="0" transform="matrix(1 0 0 1 170 118.20000000000000)" fill="rgb(0,0,0)" stroke="none" stroke-width="1"/><rect id="e9wuqxu891dc28" width="33.700000" height="1.500000" rx="0" ry="0" transform="matrix(1 0 0 1 149.30000000000001 121.80000000000000)" fill="rgb(0,0,0)" stroke="none" stroke-width="1"/><rect id="e9wuqxu891dc29" width="5.400000" height="5.100000" rx="0" ry="0" transform="matrix(1 0 0 1 180.40000000000001 104.50000000000000)" fill="rgb(0,0,0)" stroke="none" stroke-width="1"/></g><g id="e9wuqxu891dc30"><rect id="e9wuqxu891dc31" width="8.900000" height="8" rx="0" ry="0" transform="matrix(1 0 0 1 206.90000000000001 115.40000000000001)" fill="rgb(0,0,0)" stroke="none" stroke-width="1"/><rect id="e9wuqxu891dc32" width="8.900000" height="8" rx="0" ry="0" transform="matrix(1 0 0 1 220.19999999999999 91.09999999999999)" fill="rgb(0,0,0)" stroke="none" stroke-width="1"/><rect id="e9wuqxu891dc33" width="3.900000" height="3.500000" rx="0" ry="0" transform="matrix(1 0 0 1 238.90000000000001 117.70000000000000)" fill="rgb(0,0,0)" stroke="none" stroke-width="1"/></g><g id="e9wuqxu891dc34"><rect id="e9wuqxu891dc35" width="2.300000" height="2.100000" rx="0" ry="0" transform="matrix(1 0 0 1 210.19999999999999 94.70000000000000)" fill="rgb(0,0,0)" stroke="none" stroke-width="1"/><rect id="e9wuqxu891dc36" width="8.900000" height="8" rx="0" ry="0" transform="matrix(1 0 0 1 229.90000000000001 104)" fill="rgb(0,0,0)" stroke="none" stroke-width="1"/><rect id="e9wuqxu891dc37" width="8.900000" height="8" rx="0" ry="0" transform="matrix(1 0 0 1 242.30000000000001 91.09999999999999)" fill="rgb(0,0,0)" stroke="none" stroke-width="1"/><rect id="e9wuqxu891dc38" width="3.900000" height="3.500000" rx="0" ry="0" transform="matrix(1 0 0 1 251.30000000000001 109.30000000000000)" fill="rgb(0,0,0)" stroke="none" stroke-width="1"/></g><rect id="e9wuqxu891dc39" width="2.800000" height="0.100000" rx="0" ry="0" transform="matrix(1 0 0 1 51.20000000000000 58.30000000000000)" fill="none" stroke="none" stroke-width="1"/><polygon id="e9wuqxu891dc40" points="58.600000,53.700000 61.300000,53.700000 80.400000,53.700000 80.400000,51.100000 83.600000,51.100000 83.600000,49.100000 89.900000,49.100000 89.900000,45 91.400000,45 91.700000,45 95.200000,45 95.700000,45 95.700000,41.100000 98.400000,41.100000 103,41.100000 109.700000,41.100000 109.700000,41 102.900000,41 98.300000,41 95.600000,41 95.600000,44.900000 95.100000,44.900000 91.600000,44.900000 91.300000,44.900000 89.800000,44.900000 89.800000,49 83.500000,49 83.500000,51 80.300000,51 80.300000,53.600000 61.200000,53.600000 58.500000,53.600000 56,53.600000 54,53.600000 54,53.700000 56,53.700000" fill="none" stroke="none" stroke-width="1"/><rect id="e9wuqxu891dc41" width="2" height="0.100000" rx="0" ry="0" transform="matrix(1 0 0 1 109.80000000000000 44.90000000000000)" fill="none" stroke="none" stroke-width="1"/><polygon id="e9wuqxu891dc42" points="45.500000,166.500000 45.500000,165.800000 43.600000,165.800000 43.600000,154.300000 39.300000,154.300000 39.300000,158.100000 36.800000,158.100000 36.800000,160.500000 30.800000,160.500000 30.800000,164.700000 32.900000,164.700000 32.900000,170.400000 38.500000,170.400000 38.500000,166.500000" fill="none" stroke="none" stroke-width="1"/><polygon id="e9wuqxu891dc43" points="100.700000,76.500000 98.400000,76.500000 83.800000,76.500000 83.800000,80.500000 86.100000,80.500000 86.100000,82 86.100000,85.400000 86.100000,85.900000 86.100000,87.700000 86.100000,89.900000 86.100000,92.300000 91.500000,92.300000 93.800000,92.300000 93.900000,92.300000 99.200000,92.300000 99.200000,90 99.200000,87.800000 99.200000,86 99.200000,82 99.200000,80.500000 100.200000,80.500000 100.200000,82 103,82 105.300000,82 105.300000,80 103.100000,80 100.700000,80 100.700000,79.400000" fill="none" stroke="none" stroke-width="1"/><polygon id="e9wuqxu891dc44" points="125.900000,87.800000 125.900000,87.300000 131,87.300000 133.900000,87.300000 134.700000,87.300000 134.700000,87.200000 134.500000,87.200000 133.700000,87.200000 130.900000,87.200000 125.800000,87.200000 125.800000,87.700000 125.800000,91.700000 125.900000,91.700000" fill="none" stroke="none" stroke-width="1"/><rect id="e9wuqxu891dc45" width="2.100000" height="0.100000" rx="0" ry="0" transform="matrix(1 0 0 1 118.50000000000000 79.30000000000000)" fill="none" stroke="none" stroke-width="1"/><rect id="e9wuqxu891dc46" width="0.100000" height="2.900000" rx="0" ry="0" transform="matrix(1 0 0 1 98.59999999999999 63.40000000000000)" fill="none" stroke="none" stroke-width="1"/><rect id="e9wuqxu891dc47" width="2.400000" height="0.100000" rx="0" ry="0" transform="matrix(1 0 0 1 116 71.59999999999999)" fill="none" stroke="none" stroke-width="1"/><rect id="e9wuqxu891dc48" width="4" height="0.100000" rx="0" ry="0" transform="matrix(1 0 0 1 111.90000000000001 58.80000000000000)" fill="none" stroke="none" stroke-width="1"/><rect id="e9wuqxu891dc49" width="0.100000" height="0.200000" rx="0" ry="0" transform="matrix(1 0 0 1 51.70000000000000 92.09999999999999)" fill="none" stroke="none" stroke-width="1"/><rect id="e9wuqxu891dc50" width="0.100000" height="3.800000" rx="0" ry="0" transform="matrix(1 0 0 1 60.70000000000000 119.30000000000000)" fill="none" stroke="none" stroke-width="1"/><polygon id="e9wuqxu891dc51" points="71.600000,123.200000 71.500000,123.200000 71.500000,124.100000 71.500000,128.200000 71.600000,128.200000 71.600000,124.200000" fill="none" stroke="none" stroke-width="1"/><rect id="e9wuqxu891dc52" width="0" height="0.700000" rx="0" ry="0" transform="matrix(1 0 0 1 93.59999999999999 133.09999999999999)" fill="none" stroke="none" stroke-width="1"/><polygon id="e9wuqxu891dc53" points="59.700000,76.400000 59.700000,80.100000 59.700000,80.400000 61.200000,80.400000 61.200000,81.900000 61.200000,84.900000 61.200000,85.400000 61.200000,85.900000 61.200000,87.700000 61.200000,88.700000 61.200000,89.900000 61.200000,91.900000 62,91.900000 64.900000,91.900000 65.300000,91.900000 65.300000,91.800000 65.300000,89.900000 65.300000,88.100000 66.300000,88.100000 69.300000,88.100000 70,88.100000 70,87.800000 70,86 70,85.500000 70,82 70,80.400000 71,80.400000 71,76.400000 61.400000,76.400000" fill="none" stroke="none" stroke-width="1"/><polygon id="e9wuqxu891dc54" points="59.600000,80.100000 59.600000,79.500000 56.200000,79.500000 56.200000,80.100000 56.200000,81.500000 59.600000,81.500000" fill="none" stroke="none" stroke-width="1"/><polygon id="e9wuqxu891dc55" points="117,162.100000 114.600000,162.100000 114.600000,164.300000 115.500000,164.300000 115.500000,170.400000 117,170.400000" fill="none" stroke="none" stroke-width="1"/><polygon id="e9wuqxu891dc56" points="36.800000,160.500000 36.800000,158.100000 39.300000,158.100000 39.300000,154.300000 39.300000,147 36.800000,147 36.800000,144 36.800000,139.500000 35.600000,139.500000 34.600000,139.500000 34.600000,122.700000 29,122.700000 29,139.500000 18.700000,139.500000 18.700000,160.500000 21.100000,160.500000 30.800000,160.500000" fill="rgb(84,254,84)" stroke="none" stroke-width="1"/><polygon id="e9wuqxu891dc57" points="32.900000,164.700000 30.800000,164.700000 30.800000,160.500000 21.100000,160.500000 21.100000,170.400000 32.900000,170.400000" fill="rgb(0,0,0)" stroke="none" stroke-width="1"/><polygon id="e9wuqxu891dc58" points="34.600000,139.500000 35.600000,139.500000 36.800000,139.500000 36.800000,144 36.800000,147 39.300000,147 39.300000,154.300000 43.600000,154.300000 43.600000,165.800000 45.500000,165.800000 45.500000,166.500000 38.500000,166.500000 38.500000,170.400000 115.500000,170.400000 115.500000,164.300000 114.600000,164.300000 114.600000,162.100000 117,162.100000 117,170.400000 137.400000,170.400000 137.400000,166.900000 130.600000,166.900000 130.600000,158.300000 122.700000,158.300000 122.700000,148.100000 114.800000,148.100000 114.800000,144.800000 120.800000,144.800000 120.800000,136.300000 126.100000,136.300000 126.100000,128.500000 130,128.500000 130,121.500000 137.400000,121.500000 137.400000,117 143.700000,117 143.700000,87.300000 142.100000,87.300000 142.100000,82.200000 136.500000,82.200000 136.500000,75 137.600000,75 137.600000,72.800000 140.300000,72.800000 140.300000,50.300000 137.600000,50.300000 137.600000,43.600000 133.800000,43.600000 133.800000,34.600000 128.800000,34.600000 128.800000,30.500000 123.600000,30.500000 123.600000,27.100000 116.500000,27.100000 116.500000,23.500000 112.300000,23.500000 112.300000,20.300000 97.900000,20.300000 97.900000,17.900000 95,17.900000 95,14.700000 49.800000,14.700000 49.800000,20.400000 41.400000,20.400000 41.400000,22.200000 38,22.200000 38,30.500000 33.500000,30.500000 33.500000,74.300000 36.200000,74.300000 36.200000,80.100000 38,80.100000 38,82 41.500000,82 41.500000,85.500000 45.100000,85.500000 45.100000,87.800000 46.700000,87.800000 46.700000,88.800000 47,88.800000 47,91.600000 51.200000,91.600000 52.300000,91.600000 52.300000,88.800000 52.300000,87.800000 52.300000,86 52.300000,85.500000 52.300000,82.900000 52.300000,82 52.300000,80.300000 52.300000,80.200000 52.300000,74.500000 52.300000,74.400000 52.300000,67.100000 52.300000,67 52.300000,61.500000 51.200000,61.500000 51.200000,61.400000 51.200000,58.400000 51.200000,58.300000 54,58.300000 54,53.700000 54,53.600000 56,53.600000 58.500000,53.600000 61.200000,53.600000 80.300000,53.600000 80.300000,51 83.500000,51 83.500000,49 89.800000,49 89.800000,44.900000 91.300000,44.900000 91.600000,44.900000 95.100000,44.900000 95.600000,44.900000 95.600000,41 98.300000,41 102.900000,41 109.700000,41 109.700000,41.100000 109.800000,41.100000 109.800000,44.900000 111.800000,44.900000 111.800000,45 111.900000,45 111.900000,47.500000 111.900000,53.800000 111.900000,54.300000 111.900000,58.800000 115.900000,58.800000 115.900000,58.900000 116,58.900000 116,66 116,67.600000 116,71.600000 118.400000,71.600000 118.400000,71.700000 118.500000,71.700000 118.500000,79.300000 120.600000,79.300000 120.600000,79.400000 120.700000,79.400000 120.700000,86 120.700000,87.800000 120.700000,91.700000 125.800000,91.700000 125.800000,87.700000 125.800000,87.200000 130.900000,87.200000 133.700000,87.200000 134.500000,87.200000 134.700000,87.200000 134.800000,87.200000 135.100000,87.200000 135.100000,87.300000 135.100000,91.800000 135.100000,101.200000 135.100000,105.200000 134.800000,105.200000 134.800000,105.200000 134.500000,105.200000 132.800000,105.200000 132.500000,105.200000 131.100000,105.200000 131,105.200000 130.100000,105.200000 130,105.200000 129.800000,105.200000 129.700000,105.200000 126.400000,105.200000 126.300000,105.200000 125.600000,105.200000 125.600000,106.600000 125.600000,109.600000 125.600000,115 125.500000,115 119.100000,115 119,115 118.900000,115 118.500000,115 118.500000,115.200000 118.500000,119.300000 115.100000,119.300000 110.900000,119.300000 109.800000,119.300000 108.100000,119.300000 108.100000,123.200000 107.900000,123.200000 107,123.200000 99.800000,123.200000 97.700000,123.200000 97.700000,124.100000 97.700000,124.200000 97.700000,124.500000 97.700000,124.600000 97.700000,128.300000 97.700000,128.400000 93.600000,128.400000 91.200000,128.400000 91.200000,132.300000 91.200000,132.400000 91.200000,133 93.600000,133 93.600000,133.100000 93.600000,133.100000 93.600000,133.800000 93.600000,133.800000 93.600000,134.200000 93.600000,138.100000 93.600000,139.200000 93.600000,153 91.400000,153 91.400000,158.200000 88.500000,158.200000 88.500000,161.900000 88.500000,162.500000 83.800000,162.500000 82.700000,162.500000 82.700000,158.900000 80.700000,158.900000 80.700000,154.300000 80.700000,154.100000 77.100000,154.100000 75.200000,154.100000 75.200000,146.400000 75.200000,139.200000 75.200000,138.100000 75.200000,134.200000 75.200000,134.100000 81,134.100000 81,133.800000 81,128.900000 81,128.400000 71.600000,128.400000 71.600000,128.200000 71.500000,128.200000 71.500000,124.100000 71.500000,123.200000 60.800000,123.200000 60.800000,123.100000 60.700000,123.100000 60.700000,119.300000 52.400000,119.300000 52.400000,119.200000 52.400000,114.500000 52.400000,114.400000 52.400000,112.600000 52.400000,112.500000 52.400000,109.200000 52.300000,109.200000 49.200000,109.200000 48.700000,109.200000 46.700000,109.200000 45.600000,109.200000 45.600000,109.100000 45.600000,106.700000 45.600000,106.600000 45.600000,93.900000 45.600000,93.800000 41.100000,93.800000 41.100000,106.600000 37.600000,106.600000 37.600000,114.400000 29,114.400000 29,122.700000 34.600000,122.700000" fill="rgb(0,0,0)" stroke="none" stroke-width="1"/><polygon id="e9wuqxu891dc59" points="76,68.800000 76,66.900000 76,65.900000 61.300000,65.900000 58.600000,65.900000 58.600000,66.900000 58.600000,68.800000 61.300000,68.800000" fill="rgb(0,0,0)" stroke="none" stroke-width="1"/><polygon id="e9wuqxu891dc60" points="95.100000,66.300000 98.300000,66.300000 98.400000,66.300000 98.600000,66.300000 98.600000,63.400000 98.400000,63.400000 98.300000,63.400000 95.100000,63.400000 91.300000,63.400000 81.200000,63.400000 81.200000,66.300000 91.300000,66.300000" fill="rgb(0,0,0)" stroke="none" stroke-width="1"/><path id="e9wuqxu891dc61" d="M45.600000,106.600000L45.600000,106.700000L45.600000,109.100000L46.700000,109.100000L48.700000,109.100000L49.200000,109.100000L52.200000,109.100000L52.400000,109.100000L52.400000,109.200000L52.400000,112.500000L52.400000,112.600000L52.400000,114.400000L52.400000,114.500000L52.400000,119.200000L60.700000,119.200000L60.700000,119.300000L60.800000,119.300000L60.800000,123.100000L71.500000,123.100000L71.500000,123.200000L71.600000,123.200000L71.600000,124.200000L71.600000,128.200000L81,128.200000L81,128.400000L81,128.900000L81,133.800000L81,134.100000L75.200000,134.100000L75.200000,134.200000L75.200000,138.100000L75.200000,139.200000L75.200000,146.400000L75.200000,154.100000L77.100000,154.100000L80.700000,154.100000L80.700000,154.300000L80.700000,158.900000L82.700000,158.900000L82.700000,162.500000L83.800000,162.500000L88.500000,162.500000L88.500000,161.900000L88.500000,158.200000L91.400000,158.200000L91.400000,153L93.600000,153L93.600000,139.200000L93.600000,138.100000L93.600000,134.200000L93.600000,133.800000L93.600000,133.100000L91.200000,133.100000L91.200000,133L91.200000,132.400000L91.200000,132.300000L91.200000,128.400000L91.200000,128.300000L93.600000,128.300000L97.700000,128.300000L97.700000,124.600000L97.700000,124.500000L97.700000,124.200000L97.700000,124.100000L97.700000,123.200000L97.700000,123.100000L99.800000,123.100000L107,123.100000L107.800000,123.100000L108,123.100000L108,119.200000L109.700000,119.200000L110.800000,119.200000L115,119.200000L118.400000,119.200000L118.400000,115.100000L118.400000,115L118.500000,115L118.900000,115L119,115L119.100000,115L125.500000,115L125.500000,109.600000L125.500000,106.600000L125.500000,105.200000L125.600000,105.200000L126.300000,105.200000L126.400000,105.200000L129.700000,105.200000L129.800000,105.200000L130,105.200000L130.100000,105.200000L131,105.200000L131.100000,105.200000L132.500000,105.200000L132.800000,105.200000L134.500000,105.200000L134.800000,105.200000L134.800000,105.200000L134.800000,101.200000L134.800000,91.800000L134.800000,87.300000L134.800000,87.200000L134.700000,87.200000L134.700000,87.300000L133.900000,87.300000L131,87.300000L125.900000,87.300000L125.900000,87.800000L125.900000,91.700000L125.800000,91.700000L125.800000,91.900000L125.400000,91.900000L123.500000,91.900000L121.400000,91.900000L120.600000,91.900000L120.600000,87.700000L120.600000,85.900000L120.600000,79.400000L118.500000,79.400000L118.500000,79.300000L118.400000,79.300000L118.400000,71.700000L116,71.700000L116,71.600000L115.900000,71.600000L115.900000,67.500000L115.900000,65.900000L115.900000,58.900000L111.900000,58.900000L111.900000,58.800000L111.800000,58.800000L111.800000,54.200000L111.800000,53.700000L111.800000,47.400000L111.800000,45L109.800000,45L109.800000,44.900000L109.700000,44.900000L109.700000,41.100000L103,41.100000L98.400000,41.100000L95.700000,41.100000L95.700000,45L95.200000,45L91.700000,45L91.400000,45L89.900000,45L89.900000,49.100000L83.600000,49.100000L83.600000,51.100000L80.400000,51.100000L80.400000,53.700000L61.300000,53.700000L58.600000,53.700000L56,53.700000L54,53.700000L54,58.300000L54,58.400000L51.200000,58.400000L51.200000,61.400000L52.300000,61.400000L52.300000,61.500000L52.300000,67L52.300000,67.100000L52.300000,74.400000L52.300000,74.500000L52.300000,80.200000L52.300000,80.300000L52.300000,82L52.300000,82.900000L52.300000,85.500000L52.300000,86L52.300000,87.800000L52.300000,88.800000L52.300000,91.600000L51.200000,91.600000L47,91.600000L47,88.800000L46.700000,88.800000L45.600000,88.800000L45.600000,93.800000L45.600000,93.900000L45.600000,106.600000ZM103.100000,80L105.300000,80L105.300000,82L103,82L100.200000,82L100.200000,80.500000L99.200000,80.500000L99.200000,82L99.200000,86L99.200000,87.800000L99.200000,90L99.200000,92.300000L93.900000,92.300000L93.800000,92.300000L91.500000,92.300000L86.100000,92.300000L86.100000,89.900000L86.100000,87.700000L86.100000,85.900000L86.100000,85.400000L86.100000,82L86.100000,80.500000L83.800000,80.500000L83.800000,76.500000L98.400000,76.500000L100.700000,76.500000L100.700000,79.400000L100.700000,80L103.100000,80ZM81.200000,63.400000L91.300000,63.400000L95.100000,63.400000L98.300000,63.400000L98.400000,63.400000L98.600000,63.400000L98.700000,63.400000L98.700000,66.300000L98.600000,66.300000L98.400000,66.300000L98.300000,66.300000L95.100000,66.300000L91.300000,66.300000L81.200000,66.300000L81.200000,63.400000ZM71,80.400000L70,80.400000L70,82L70,85.500000L70,86L70,87.800000L70,88.100000L69.300000,88.100000L66.300000,88.100000L65.300000,88.100000L65.300000,89.900000L65.300000,91.800000L65.300000,91.900000L64.900000,91.900000L62,91.900000L61.200000,91.900000L61.200000,89.900000L61.200000,88.700000L61.200000,87.700000L61.200000,85.900000L61.200000,85.400000L61.200000,84.900000L61.200000,81.900000L61.200000,80.400000L59.700000,80.400000L59.700000,80.100000L59.700000,76.400000L61.400000,76.400000L71,76.400000L71,80.400000ZM58.600000,66.900000L58.600000,65.900000L61.300000,65.900000L76,65.900000L76,66.900000L76,68.800000L61.300000,68.800000L58.600000,68.800000L58.600000,66.900000ZM56.200000,80.100000L56.200000,79.500000L59.600000,79.500000L59.600000,80.100000L59.600000,81.500000L56.200000,81.500000L56.200000,80.100000ZM51.700000,92.100000L51.700000,92.100000L51.800000,92.300000L51.700000,92.300000L51.700000,92.100000Z" fill="rgb(84,254,84)" stroke="none" stroke-width="1"/><polygon id="e9wuqxu891dc62" points="111.800000,53.700000 111.800000,54.200000 111.800000,58.800000 111.900000,58.800000 111.900000,54.300000 111.900000,53.800000 111.900000,47.500000 111.900000,45 111.800000,45 111.800000,47.400000" fill="rgb(84,254,84)" stroke="none" stroke-width="1"/><polygon id="e9wuqxu891dc63" points="52.200000,109.100000 49.200000,109.100000 48.700000,109.100000 46.700000,109.100000 45.600000,109.100000 45.600000,109.200000 46.700000,109.200000 48.700000,109.200000 49.200000,109.200000 52.300000,109.200000 52.400000,109.200000 52.400000,109.100000" fill="rgb(84,254,84)" stroke="none" stroke-width="1"/><rect id="e9wuqxu891dc64" width="0.100000" height="7.600000" rx="0" ry="0" transform="matrix(1 0 0 1 118.40000000000001 71.70000000000000)" fill="rgb(84,254,84)" stroke="none" stroke-width="1"/><polygon id="e9wuqxu891dc65" points="120.600000,87.700000 120.600000,91.900000 121.400000,91.900000 123.500000,91.900000 125.400000,91.900000 125.800000,91.900000 125.800000,91.700000 120.700000,91.700000 120.700000,87.800000 120.700000,86 120.700000,79.400000 120.600000,79.400000 120.600000,85.900000" fill="rgb(84,254,84)" stroke="none" stroke-width="1"/><rect id="e9wuqxu891dc66" width="1.100000" height="0.100000" rx="0" ry="0" transform="matrix(1 0 0 1 51.20000000000000 61.40000000000000)" fill="rgb(84,254,84)" stroke="none" stroke-width="1"/><polygon id="e9wuqxu891dc67" points="134.800000,91.800000 134.800000,101.200000 134.800000,105.200000 135.100000,105.200000 135.100000,101.200000 135.100000,91.800000 135.100000,87.300000 135.100000,87.200000 134.800000,87.200000 134.800000,87.300000" fill="rgb(84,254,84)" stroke="none" stroke-width="1"/><rect id="e9wuqxu891dc68" width="0.100000" height="3.800000" rx="0" ry="0" transform="matrix(1 0 0 1 109.70000000000000 41.10000000000000)" fill="rgb(84,254,84)" stroke="none" stroke-width="1"/><polygon id="e9wuqxu891dc69" points="115.900000,67.500000 115.900000,71.600000 116,71.600000 116,67.600000 116,66 116,58.900000 115.900000,58.900000 115.900000,65.900000" fill="rgb(84,254,84)" stroke="none" stroke-width="1"/><rect id="e9wuqxu891dc70" width="10.700000" height="0.100000" rx="0" ry="0" transform="matrix(1 0 0 1 60.80000000000000 123.09999999999999)" fill="rgb(84,254,84)" stroke="none" stroke-width="1"/><rect id="e9wuqxu891dc71" width="8.300000" height="0.100000" rx="0" ry="0" transform="matrix(1 0 0 1 52.40000000000000 119.20000000000000)" fill="rgb(84,254,84)" stroke="none" stroke-width="1"/><rect id="e9wuqxu891dc72" width="9.400000" height="0.200000" rx="0" ry="0" transform="matrix(1 0 0 1 71.59999999999999 128.19999999999999)" fill="rgb(84,254,84)" stroke="none" stroke-width="1"/><polygon id="e9wuqxu891dc73" points="118.400000,115.100000 118.400000,119.200000 115,119.200000 110.800000,119.200000 109.700000,119.200000 108,119.200000 108,123.100000 107.800000,123.100000 107,123.100000 99.800000,123.100000 97.700000,123.100000 97.700000,123.200000 99.800000,123.200000 107,123.200000 107.900000,123.200000 108.100000,123.200000 108.100000,119.300000 109.800000,119.300000 110.900000,119.300000 115.100000,119.300000 118.500000,119.300000 118.500000,115.200000 118.500000,115 118.400000,115" fill="rgb(84,254,84)" stroke="none" stroke-width="1"/><polygon id="e9wuqxu891dc74" points="125.500000,106.600000 125.500000,109.600000 125.500000,115 125.600000,115 125.600000,109.600000 125.600000,106.600000 125.600000,105.200000 125.500000,105.200000" fill="rgb(84,254,84)" stroke="none" stroke-width="1"/><polygon id="e9wuqxu891dc75" points="91.200000,128.300000 91.200000,128.400000 93.600000,128.400000 97.700000,128.400000 97.700000,128.300000 93.600000,128.300000" fill="rgb(84,254,84)" stroke="none" stroke-width="1"/><rect id="e9wuqxu891dc76" width="2.400000" height="0.100000" rx="0" ry="0" transform="matrix(1 0 0 1 91.20000000000000 133)" fill="rgb(84,254,84)" stroke="none" stroke-width="1"/><polygon id="e9wuqxu891dc77" points="56.200000,80.100000 56.200000,81.500000 59.600000,81.500000 59.600000,80.100000 59.600000,79.500000 56.200000,79.500000" fill="rgb(0,0,0)" stroke="none" stroke-width="1"/><script><![CDATA[!function(t,n){"object"==typeof exports&&"undefined"!=typeof module?module.exports=n():"function"==typeof define&&define.amd?define(n):(t=t||self).__SVGATOR_PLAYER__=n()}(this,(function(){"use strict";function t(n){return(t="function"==typeof Symbol&&"symbol"==typeof Symbol.iterator?function(t){return typeof t}:function(t){return t&&"function"==typeof Symbol&&t.constructor===Symbol&&t!==Symbol.prototype?"symbol":typeof t})(n)}function n(t,n){if(!(t instanceof n))throw new TypeError("Cannot call a class as a function")}function e(t,n){for(var e=0;e<n.length;e++){var r=n[e];r.enumerable=r.enumerable||!1,r.configurable=!0,"value"in r&&(r.writable=!0),Object.defineProperty(t,r.key,r)}}function r(t,n,r){return n&&e(t.prototype,n),r&&e(t,r),t}function i(t){return(i=Object.setPrototypeOf?Object.getPrototypeOf:function(t){return t.__proto__||Object.getPrototypeOf(t)})(t)}function u(t,n){return(u=Object.setPrototypeOf||function(t,n){return t.__proto__=n,t})(t,n)}function o(t,n){return!n||"object"!=typeof n&&"function"!=typeof n?function(t){if(void 0===t)throw new ReferenceError("this hasn't been initialised - super() hasn't been called");return t}(t):n}function a(t){var n=function(){if("undefined"==typeof Reflect||!Reflect.construct)return!1;if(Reflect.construct.sham)return!1;if("function"==typeof Proxy)return!0;try{return Date.prototype.toString.call(Reflect.construct(Date,[],(function(){}))),!0}catch(t){return!1}}();return function(){var e,r=i(t);if(n){var u=i(this).constructor;e=Reflect.construct(r,arguments,u)}else e=r.apply(this,arguments);return o(this,e)}}function l(t,n,e){return(l="undefined"!=typeof Reflect&&Reflect.get?Reflect.get:function(t,n,e){var r=function(t,n){for(;!Object.prototype.hasOwnProperty.call(t,n)&&null!==(t=i(t)););return t}(t,n);if(r){var u=Object.getOwnPropertyDescriptor(r,n);return u.get?u.get.call(e):u.value}})(t,n,e||t)}var f=Math.abs;function s(t){return t}function c(t,n,e){var r=1-e;return 3*e*r*(t*r+n*e)+e*e*e}function h(){var t=arguments.length>0&&void 0!==arguments[0]?arguments[0]:0,n=arguments.length>1&&void 0!==arguments[1]?arguments[1]:0,e=arguments.length>2&&void 0!==arguments[2]?arguments[2]:1,r=arguments.length>3&&void 0!==arguments[3]?arguments[3]:1;return t<0||t>1||e<0||e>1?null:f(t-n)<=1e-5&&f(e-r)<=1e-5?s:function(i){if(i<=0)return t>0?i*n/t:0===n&&e>0?i*r/e:0;if(i>=1)return e<1?1+(i-1)*(r-1)/(e-1):1===e&&t<1?1+(i-1)*(n-1)/(t-1):1;for(var u,o=0,a=1;o<a;){var l=c(t,e,u=(o+a)/2);if(f(i-l)<1e-5)break;l<i?o=u:a=u}return c(n,r,u)}}function v(){return 1}function d(t){return 1===t?1:0}function y(){var t=arguments.length>0&&void 0!==arguments[0]?arguments[0]:1,n=arguments.length>1&&void 0!==arguments[1]?arguments[1]:0;if(1===t){if(0===n)return d;if(1===n)return v}var e=1/t;return function(t){return t>=1?1:(t+=n*e)-t%e}}function g(t){var n=arguments.length>1&&void 0!==arguments[1]?arguments[1]:2;if(Number.isInteger(t))return t;var e=Math.pow(10,n);return Math.round(t*e)/e}var p=Math.PI/180;function m(t,n,e){return t>=.5?e:n}function b(t,n,e){return 0===t||n===e?n:t*(e-n)+n}function w(t,n,e){var r=b(t,n,e);return r<=0?0:r}function x(t,n,e){return 0===t?n:1===t?e:{x:b(t,n.x,e.x),y:b(t,n.y,e.y)}}function k(t,n,e){return 0===t?n:1===t?e:{x:w(t,n.x,e.x),y:w(t,n.y,e.y)}}function A(t,n,e){var r=function(t,n,e){return Math.round(b(t,n,e))}(t,n,e);return r<=0?0:r>=255?255:r}function _(t,n,e){return 0===t?n:1===t?e:{r:A(t,n.r,e.r),g:A(t,n.g,e.g),b:A(t,n.b,e.b),a:b(t,null==n.a?1:n.a,null==e.a?1:e.a)}}function S(t,n,e){if(0===t)return n;if(1===t)return e;var r=n.length;if(r!==e.length)return m(t,n,e);for(var i=[],u=0;u<r;u++)i.push(_(t,n[u],e[u]));return i}function M(t,n,e){var r=n.length;if(r!==e.length)return m(t,n,e);for(var i=new Array(r),u=0;u<r;u++)i[u]=b(t,n[u],e[u]);return i}function O(t,n){for(var e=[],r=0;r<t;r++)e.push(n);return e}function E(t,n){if(--n<=0)return t;var e=(t=Object.assign([],t)).length;do{for(var r=0;r<e;r++)t.push(t[r])}while(--n>0);return t}var B,I=function(){function t(e){n(this,t),this.list=e,this.length=e.length}return r(t,[{key:"setAttribute",value:function(t,n){for(var e=this.list,r=0;r<this.length;r++)e[r].setAttribute(t,n)}},{key:"removeAttribute",value:function(t){for(var n=this.list,e=0;e<this.length;e++)n[e].removeAttribute(t)}},{key:"style",value:function(t,n){for(var e=this.list,r=0;r<this.length;r++)e[r].style[t]=n}}]),t}(),j=/-./g,P=function(t,n){return n.toUpperCase()};function F(t){return"function"==typeof t?t:m}function R(t){return t?"function"==typeof t?t:Array.isArray(t)?function(t){var n=arguments.length>1&&void 0!==arguments[1]?arguments[1]:s;if(!Array.isArray(t))return n;switch(t.length){case 1:return y(t[0])||n;case 2:return y(t[0],t[1])||n;case 4:return h(t[0],t[1],t[2],t[3])||n}return n}(t,null):function(t,n){var e=arguments.length>2&&void 0!==arguments[2]?arguments[2]:s;switch(t){case"linear":return s;case"steps":return y(n.steps||1,n.jump||0)||e;case"bezier":case"cubic-bezier":return h(n.x1||0,n.y1||0,n.x2||0,n.y2||0)||e}return e}(t.type,t.value,null):null}function T(t,n,e){var r=arguments.length>3&&void 0!==arguments[3]&&arguments[3],i=n.length-1;if(t<=n[0].t)return r?[0,0,n[0].v]:n[0].v;if(t>=n[i].t)return r?[i,1,n[i].v]:n[i].v;var u,o=n[0],a=null;for(u=1;u<=i;u++){if(!(t>n[u].t)){a=n[u];break}o=n[u]}return null==a?r?[i,1,n[i].v]:n[i].v:o.t===a.t?r?[u,1,a.v]:a.v:(t=(t-o.t)/(a.t-o.t),o.e&&(t=o.e(t)),r?[u,t,e(t,o.v,a.v)]:e(t,o.v,a.v))}function q(t,n){var e=arguments.length>2&&void 0!==arguments[2]?arguments[2]:null;return t&&t.length?"function"!=typeof n?null:("function"!=typeof e&&(e=null),function(r){var i=T(r,t,n);return null!=i&&e&&(i=e(i)),i}):null}function C(t,n){return t.t-n.t}function V(n,e,r,i,u){var o,a="@"===r[0],l="#"===r[0],f=B[r],s=m;switch(a?(o=r.substr(1),r=o.replace(j,P)):l&&(r=r.substr(1)),t(f)){case"function":if(s=f(i,u,T,R,r,a,e,n),l)return s;break;case"string":s=q(i,F(f));break;case"object":if((s=q(i,F(f.i),f.f))&&"function"==typeof f.u)return f.u(e,s,r,a,n)}return s?function(t,n,e){var r=arguments.length>3&&void 0!==arguments[3]&&arguments[3];if(r)return t instanceof I?function(r){return t.style(n,e(r))}:function(r){return t.style[n]=e(r)};if(Array.isArray(n)){var i=n.length;return function(r){var u=e(r);if(null==u)for(var o=0;o<i;o++)t[o].removeAttribute(n);else for(var a=0;a<i;a++)t[a].setAttribute(n,u)}}return function(r){var i=e(r);null==i?t.removeAttribute(n):t.setAttribute(n,i)}}(e,r,s,a):null}function N(n,e,r,i){if(!i||"object"!==t(i))return null;var u=null,o=null;return Array.isArray(i)?o=function(t){if(!t||!t.length)return null;for(var n=0;n<t.length;n++)t[n].e&&(t[n].e=R(t[n].e));return t.sort(C)}(i):(o=i.keys,u=i.data||null),o?V(n,e,r,o,u):null}function z(t,n,e){if(!e)return null;var r=[];for(var i in e)if(e.hasOwnProperty(i)){var u=N(t,n,i,e[i]);u&&r.push(u)}return r.length?r:null}function D(t,n){if(!n.duration||n.duration<0)return null;var e=function(t,n){if(!n)return null;var e=[];if(Array.isArray(n))for(var r=n.length,i=0;i<r;i++){var u=n[i];if(2===u.length){var o=null;if("string"==typeof u[0])o=t.getElementById(u[0]);else if(Array.isArray(u[0])){o=[];for(var a=0;a<u[0].length;a++)if("string"==typeof u[0][a]){var l=t.getElementById(u[0][a]);l&&o.push(l)}o=o.length?1===o.length?o[0]:new I(o):null}if(o){var f=z(t,o,u[1]);f&&(e=e.concat(f))}}}else for(var s in n)if(n.hasOwnProperty(s)){var c=t.getElementById(s);if(c){var h=z(t,c,n[s]);h&&(e=e.concat(h))}}return e.length?e:null}(t,n.elements);return e?function(t,n){var e=arguments.length>2&&void 0!==arguments[2]?arguments[2]:1/0,r=arguments.length>3&&void 0!==arguments[3]?arguments[3]:1,i=arguments.length>4&&void 0!==arguments[4]&&arguments[4],u=arguments.length>5&&void 0!==arguments[5]?arguments[5]:1,o=t.length,a=r>0?n:0;i&&e%2==0&&(a=n-a);var l=null;return function(f,s){var c=f%n,h=1+(f-c)/n;s*=r,i&&h%2==0&&(s=-s);var v=!1;if(h>e)c=a,v=!0,-1===u&&(c=r>0?0:n);else if(s<0&&(c=n-c),c===l)return!1;l=c;for(var d=0;d<o;d++)t[d](c);return v}}(e,n.duration,n.iterations||1/0,n.direction||1,!!n.alternate,n.fill||1):null}function L(t,n){if(B=n,!t||!t.root||!Array.isArray(t.animations))return null;var e=window.document.getElementById(t.root);if(!e)return null;var r=t.animations.map((function(t){return D(e,t)})).filter((function(t){return!!t}));return r.length?{element:e,animations:r,animationSettings:t.animationSettings,options:t.options||void 0}:null}var U=function(){function t(e,r){var i=arguments.length>2&&void 0!==arguments[2]?arguments[2]:{};n(this,t),this._id=0,this._running=!1,this._rollingBack=!1,this._animations=e,this.duration=r.duration,this.alternate=r.alternate,this.fill=r.fill,this.iterations=r.iterations,this.direction=i.direction||1,this.speed=i.speed||1,this.fps=i.fps||100,this.offset=i.offset||0,this.rollbackStartOffset=0}return r(t,[{key:"_rollback",value:function(){var t=this,n=1/0,e=null;this.rollbackStartOffset=this.offset,this._rollingBack||(this._rollingBack=!0,this._running=!0);this._id=window.requestAnimationFrame((function r(i){if(t._rollingBack){null==e&&(e=i);var u=i-e,o=t.rollbackStartOffset-u,a=Math.round(o*t.speed);if(a>t.duration&&n!=1/0){var l=!!t.alternate&&a/t.duration%2>1,f=a%t.duration;a=(f+=l?t.duration:0)||t.duration}var s=t.fps?1e3/t.fps:0,c=Math.max(0,a);if(c<n-s){t.offset=c,n=c;for(var h=t._animations,v=h.length,d=0;d<v;d++)h[d](c,t.direction)}var y=!1;if(t.iterations>0&&-1===t.fill){var g=t.iterations*t.duration,p=g==a;a=p?0:a,t.offset=p?0:t.offset,y=a>g}a>0&&t.offset>=a&&!y?t._id=window.requestAnimationFrame(r):t.stop()}}))}},{key:"_start",value:function(){var t=this,n=arguments.length>0&&void 0!==arguments[0]?arguments[0]:0,e=-1/0,r=null,i={},u=function u(o){t._running=!0,null==r&&(r=o);var a=Math.round((o-r+n)*t.speed),l=t.fps?1e3/t.fps:0;if(a>e+l&&!t._rollingBack){t.offset=a,e=a;for(var f=t._animations,s=f.length,c=0,h=0;h<s;h++)i[h]?c++:(i[h]=f[h](a,t.direction),i[h]&&c++);if(c===s)return void t._stop()}t._id=window.requestAnimationFrame(u)};this._id=window.requestAnimationFrame(u)}},{key:"_stop",value:function(){this._id&&window.cancelAnimationFrame(this._id),this._running=!1,this._rollingBack=!1}},{key:"play",value:function(){!this._rollingBack&&this._running||(this._rollingBack=!1,this.rollbackStartOffset>this.duration&&(this.offset=this.rollbackStartOffset-(this.rollbackStartOffset-this.offset)%this.duration,this.rollbackStartOffset=0),this._start(this.offset))}},{key:"stop",value:function(){this._stop(),this.offset=0,this.rollbackStartOffset=0;var t=this.direction,n=this._animations;window.requestAnimationFrame((function(){for(var e=0;e<n.length;e++)n[e](0,t)}))}},{key:"reachedToEnd",value:function(){return this.iterations>0&&this.offset>=this.iterations*this.duration}},{key:"restart",value:function(){this._stop(),this.offset=0,this._start()}},{key:"pause",value:function(){this._stop()}},{key:"reverse",value:function(){this.direction=-this.direction}}],[{key:"build",value:function(n,e){return(n=L(n,e))?{el:n.element,options:n.options||{},player:new t(n.animations,n.animationSettings,n.options)}:null}}]),t}();!function(){for(var t=0,n=["ms","moz","webkit","o"],e=0;e<n.length&&!window.requestAnimationFrame;++e)window.requestAnimationFrame=window[n[e]+"RequestAnimationFrame"],window.cancelAnimationFrame=window[n[e]+"CancelAnimationFrame"]||window[n[e]+"CancelRequestAnimationFrame"];window.requestAnimationFrame||(window.requestAnimationFrame=function(n){var e=Date.now(),r=Math.max(0,16-(e-t)),i=window.setTimeout((function(){n(e+r)}),r);return t=e+r,i},window.cancelAnimationFrame=window.clearTimeout)}();var W=function(t,n){var e=!1,r=null;return function(i){e&&clearTimeout(e),e=setTimeout((function(){return function(){for(var i=0,u=window.innerHeight,o=0,a=window.innerWidth,l=t.parentNode;l instanceof Element;){var f=window.getComputedStyle(l);if("visible"!==f.overflowY||"visible"!==f.overflowX){var s=l.getBoundingClientRect();"visible"!==f.overflowY&&(i=Math.max(i,s.top),u=Math.min(u,s.bottom)),"visible"!==f.overflowX&&(o=Math.max(o,s.left),a=Math.min(a,s.right))}if(l===l.parentNode)break;l=l.parentNode}e=!1;var c=t.getBoundingClientRect(),h=Math.min(c.height,Math.max(0,i-c.top)),v=Math.min(c.height,Math.max(0,c.bottom-u)),d=Math.min(c.width,Math.max(0,o-c.left)),y=Math.min(c.width,Math.max(0,c.right-a)),g=(c.height-h-v)/c.height,p=(c.width-d-y)/c.width,m=Math.round(g*p*100);null!==r&&r===m||(r=m,n(m))}()}),100)}},Y=function(){function t(e,r,i){n(this,t),r=Math.max(1,r||1),r=Math.min(r,100),this.el=e,this.onTresholdChange=i&&i.call?i:function(){},this.tresholdPercent=r||1,this.currentVisibility=null,this.visibilityCalculator=W(e,this.onVisibilityUpdate.bind(this)),this.bindScrollWatchers(),this.visibilityCalculator()}return r(t,[{key:"bindScrollWatchers",value:function(){for(var t=this.el.parentNode;t&&(t.addEventListener("scroll",this.visibilityCalculator),t!==t.parentNode&&t!==document);)t=t.parentNode}},{key:"onVisibilityUpdate",value:function(t){var n=this.currentVisibility>=this.tresholdPercent,e=t>=this.tresholdPercent;if(null===this.currentVisibility||n!==e)return this.currentVisibility=t,void this.onTresholdChange(e);this.currentVisibility=t}}]),t}(),G=/\.0+$/g;function H(t){return Number.isInteger(t)?t+"":t.toFixed(6).replace(G,"")}function X(t){var n=arguments.length>1&&void 0!==arguments[1]?arguments[1]:" ";return t&&t.length?t.map(H).join(n):""}function $(t){return H(t.x)+","+H(t.y)}function Q(t){return t?null==t.a||t.a>=1?"rgb("+t.r+","+t.g+","+t.b+")":"rgba("+t.r+","+t.g+","+t.b+","+t.a+")":"transparent"}var Z={f:null,i:k,u:function(t,n){return function(e){var r=n(e);t.setAttribute("rx",H(r.x)),t.setAttribute("ry",H(r.y))}}},J={f:null,i:function(t,n,e){return 0===t?n:1===t?e:{width:w(t,n.width,e.width),height:w(t,n.height,e.height)}},u:function(t,n){return function(e){var r=n(e);t.setAttribute("width",H(r.width)),t.setAttribute("height",H(r.height))}}},K=Math.sin,tt=Math.cos,nt=Math.acos,et=Math.asin,rt=Math.tan,it=Math.atan2,ut=Math.PI/180,ot=180/Math.PI,at=Math.sqrt,lt=function(){function t(){var e=arguments.length>0&&void 0!==arguments[0]?arguments[0]:1,r=arguments.length>1&&void 0!==arguments[1]?arguments[1]:0,i=arguments.length>2&&void 0!==arguments[2]?arguments[2]:0,u=arguments.length>3&&void 0!==arguments[3]?arguments[3]:1,o=arguments.length>4&&void 0!==arguments[4]?arguments[4]:0,a=arguments.length>5&&void 0!==arguments[5]?arguments[5]:0;n(this,t),this.m=[e,r,i,u,o,a],this.i=null,this.w=null,this.s=null}return r(t,[{key:"point",value:function(t,n){var e=this.m;return{x:e[0]*t+e[2]*n+e[4],y:e[1]*t+e[3]*n+e[5]}}},{key:"translateSelf",value:function(){var t=arguments.length>0&&void 0!==arguments[0]?arguments[0]:0,n=arguments.length>1&&void 0!==arguments[1]?arguments[1]:0;if(!t&&!n)return this;var e=this.m;return e[4]+=e[0]*t+e[2]*n,e[5]+=e[1]*t+e[3]*n,this.w=this.s=this.i=null,this}},{key:"rotateSelf",value:function(){var t=arguments.length>0&&void 0!==arguments[0]?arguments[0]:0;if(t%=360){var n=K(t*=ut),e=tt(t),r=this.m,i=r[0],u=r[1];r[0]=i*e+r[2]*n,r[1]=u*e+r[3]*n,r[2]=r[2]*e-i*n,r[3]=r[3]*e-u*n,this.w=this.s=this.i=null}return this}},{key:"scaleSelf",value:function(){var t=arguments.length>0&&void 0!==arguments[0]?arguments[0]:1,n=arguments.length>1&&void 0!==arguments[1]?arguments[1]:1;if(1!==t||1!==n){var e=this.m;e[0]*=t,e[1]*=t,e[2]*=n,e[3]*=n,this.w=this.s=this.i=null}return this}},{key:"skewSelf",value:function(t,n){if(n%=360,(t%=360)||n){var e=this.m,r=e[0],i=e[1],u=e[2],o=e[3];t&&(t=rt(t*ut),e[2]+=r*t,e[3]+=i*t),n&&(n=rt(n*ut),e[0]+=u*n,e[1]+=o*n),this.w=this.s=this.i=null}return this}},{key:"resetSelf",value:function(){var t=arguments.length>0&&void 0!==arguments[0]?arguments[0]:1,n=arguments.length>1&&void 0!==arguments[1]?arguments[1]:0,e=arguments.length>2&&void 0!==arguments[2]?arguments[2]:0,r=arguments.length>3&&void 0!==arguments[3]?arguments[3]:1,i=arguments.length>4&&void 0!==arguments[4]?arguments[4]:0,u=arguments.length>5&&void 0!==arguments[5]?arguments[5]:0,o=this.m;return o[0]=t,o[1]=n,o[2]=e,o[3]=r,o[4]=i,o[5]=u,this.w=this.s=this.i=null,this}},{key:"recomposeSelf",value:function(){var t=arguments.length>0&&void 0!==arguments[0]?arguments[0]:null,n=arguments.length>1&&void 0!==arguments[1]?arguments[1]:null,e=arguments.length>2&&void 0!==arguments[2]?arguments[2]:null,r=arguments.length>3&&void 0!==arguments[3]?arguments[3]:null,i=arguments.length>4&&void 0!==arguments[4]?arguments[4]:null;return this.isIdentity||this.resetSelf(),t&&(t.x||t.y)&&this.translateSelf(t.x,t.y),n&&this.rotateSelf(n),e&&(e.x&&this.skewSelf(e.x,0),e.y&&this.skewSelf(0,e.y)),!r||1===r.x&&1===r.y||this.scaleSelf(r.x,r.y),i&&(i.x||i.y)&&this.translateSelf(i.x,i.y),this}},{key:"decompose",value:function(){var t=arguments.length>0&&void 0!==arguments[0]?arguments[0]:0,n=arguments.length>1&&void 0!==arguments[1]?arguments[1]:0,e=this.m,r=e[0]*e[0]+e[1]*e[1],i=[[e[0],e[1]],[e[2],e[3]]],u=at(r);if(0===u)return{origin:{x:e[4],y:e[5]},translate:{x:t,y:n},scale:{x:0,y:0},skew:{x:0,y:0},rotate:0};i[0][0]/=u,i[0][1]/=u;var o=e[0]*e[3]-e[1]*e[2]<0;o&&(u=-u);var a=i[0][0]*i[1][0]+i[0][1]*i[1][1];i[1][0]-=i[0][0]*a,i[1][1]-=i[0][1]*a;var l=at(i[1][0]*i[1][0]+i[1][1]*i[1][1]);if(0===l)return{origin:{x:e[4],y:e[5]},translate:{x:t,y:n},scale:{x:u,y:0},skew:{x:0,y:0},rotate:0};i[1][0]/=l,i[1][1]/=l,a/=l;var f=0;return i[1][1]<0?(f=nt(i[1][1])*ot,i[0][1]<0&&(f=360-f)):f=et(i[0][1])*ot,o&&(f=-f),a=it(a,at(i[0][0]*i[0][0]+i[0][1]*i[0][1]))*ot,{origin:{x:e[4],y:e[5]},translate:{x:t,y:n},scale:{x:u,y:l},skew:{x:a,y:0},rotate:f}}},{key:"toString",value:function(){return null===this.s&&(this.s="matrix("+this.m.map(st).join(" ")+")"),this.s}},{key:"determinant",get:function(){var t=this.m;return t[0]*t[3]-t[1]*t[2]}},{key:"isIdentity",get:function(){if(null===this.i){var t=this.m;this.i=1===t[0]&&0===t[1]&&0===t[2]&&1===t[3]&&0===t[4]&&0===t[5]}return this.i}}]),t}(),ft=/\.0+$/;function st(t){return Number.isInteger(t)?t:t.toFixed(14).replace(ft,"")}Object.freeze({M:2,L:2,Z:0,H:1,V:1,C:6,Q:4,T:2,S:4,A:7});function ct(t,n,e){return t+(n-t)*e}function ht(t,n,e){var r=arguments.length>3&&void 0!==arguments[3]&&arguments[3],i={x:ct(t.x,n.x,e),y:ct(t.y,n.y,e)};return r&&(i.a=vt(t,n)),i}function vt(t,n){return Math.atan2(n.y-t.y,n.x-t.x)}function dt(t,n,e,r){var i=1-r;return i*i*t+2*i*r*n+r*r*e}function yt(t,n,e,r){return 2*(1-r)*(n-t)+2*r*(e-n)}function gt(t,n,e,r){var i=arguments.length>4&&void 0!==arguments[4]&&arguments[4],u={x:dt(t.x,n.x,e.x,r),y:dt(t.y,n.y,e.y,r)};return i&&(u.a=pt(t,n,e,r)),u}function pt(t,n,e,r){return Math.atan2(yt(t.y,n.y,e.y,r),yt(t.x,n.x,e.x,r))}function mt(t,n,e,r,i){var u=i*i;return i*u*(r-t+3*(n-e))+3*u*(t+e-2*n)+3*i*(n-t)+t}function bt(t,n,e,r,i){var u=1-i;return 3*(u*u*(n-t)+2*u*i*(e-n)+i*i*(r-e))}function wt(t,n,e,r,i){var u=arguments.length>5&&void 0!==arguments[5]&&arguments[5],o={x:mt(t.x,n.x,e.x,r.x,i),y:mt(t.y,n.y,e.y,r.y,i)};return u&&(o.a=xt(t,n,e,r,i)),o}function xt(t,n,e,r,i){return Math.atan2(bt(t.y,n.y,e.y,r.y,i),bt(t.x,n.x,e.x,r.x,i))}function kt(t,n,e){var r=arguments.length>3&&void 0!==arguments[3]&&arguments[3];if(_t(n)){if(St(e))return gt(n,e.start,e,t,r)}else if(_t(e)){if(n.end)return gt(n,n.end,e,t,r)}else{if(n.end)return e.start?wt(n,n.end,e.start,e,t,r):gt(n,n.end,e,t,r);if(e.start)return gt(n,e.start,e,t,r)}return ht(n,e,t,r)}function At(t,n,e){var r=kt(t,n,e,!0);return r.a=function(t){var n=arguments.length>1&&void 0!==arguments[1]&&arguments[1];return n?t+Math.PI:t}(r.a)/p,r}function _t(t){return!t.type||"corner"===t.type}function St(t){return null!=t.start&&!_t(t)}var Mt=new lt;var Ot={f:function(t){return t?t.join(" "):""},i:function(n,e,r){if(0===n)return e;if(1===n)return r;var i=e.length;if(i!==r.length)return m(n,e,r);for(var u,o=new Array(i),a=0;a<i;a++){if((u=t(e[a]))!==t(r[a]))return m(n,e,r);if("number"===u)o[a]=b(n,e[a],r[a]);else{if(e[a]!==r[a])return m(n,e,r);o[a]=e[a]}}return o}},Et={f:null,i:M,u:function(t,n){return function(e){var r=n(e);t.setAttribute("x1",H(r[0])),t.setAttribute("y1",H(r[1])),t.setAttribute("x2",H(r[2])),t.setAttribute("y2",H(r[3]))}}},Bt={f:H,i:b},It={f:H,i:function(t,n,e){var r=b(t,n,e);return r<=0?0:r>=1?1:r}},jt={f:function(t){var n=arguments.length>1&&void 0!==arguments[1]?arguments[1]:" ";return t&&t.length>0&&(t=t.map((function(t){return Math.floor(1e4*t)/1e4}))),X(t,n)},i:function(t,n,e){var r,i,u,o=n.length,a=e.length;if(o!==a)if(0===o)n=O(o=a,0);else if(0===a)a=o,e=O(o,0);else{var l=(u=(r=o)*(i=a)/function(t,n){for(var e;n;)e=n,n=t%n,t=e;return t||1}(r,i))<0?-u:u;n=E(n,Math.floor(l/o)),e=E(e,Math.floor(l/a)),o=a=l}for(var f=[],s=0;s<o;s++)f.push(g(w(t,n[s],e[s]),6));return f}};function Pt(t,n,e,r,i,u,o,a){return n=function(t,n,e){for(var r,i,u,o=t.length-1,a={},l=0;l<=o;l++)(r=t[l]).e&&(r.e=n(r.e)),r.v&&"g"===(i=r.v).t&&i.r&&(u=e.getElementById(i.r))&&(a[i.r]=u.querySelectorAll("stop"));return a}(t,r,a),function(r){var i,u=e(r,t,Ft);return u?"c"===u.t?Q(u.v):"g"===u.t?(n[u.r]&&function(t,n){for(var e=0,r=t.length;e<r;e++)t[e].setAttribute("stop-color",Q(n[e]))}(n[u.r],u.v),(i=u.r)?"url(#"+i+")":"none"):"none":"none"}}function Ft(t,n,e){if(0===t)return n;if(1===t)return e;if(n&&e){var r=n.t;if(r===e.t)switch(n.t){case"c":return{t:r,v:_(t,n.v,e.v)};case"g":if(n.r===e.r)return{t:r,v:S(t,n.v,e.v),r:n.r}}}return m(t,n,e)}var Rt={blur:k,brightness:w,contrast:w,"drop-shadow":function(t,n,e){return 0===t?n:1===t?e:{blur:k(t,n.blur,e.blur),offset:x(t,n.offset,e.offset),color:_(t,n.color,e.color)}},grayscale:w,"hue-rotate":b,invert:w,opacity:w,saturate:w,sepia:w};function Tt(t,n,e){if(0===t)return n;if(1===t)return e;var r=n.length;if(r!==e.length)return m(t,n,e);for(var i,u=[],o=0;o<r;o++){if(n[o].type!==e[o].type)return n;if(!(i=Rt[n[o].type]))return m(t,n,e);u.push({type:n.type,value:i(t,n[o].value,e[o].value)})}return u}var qt={blur:function(t){return t?function(n){t.setAttribute("stdDeviation",$(n))}:null},brightness:function(t,n,e){return(t=Vt(e,n))?function(n){n=H(n),t.map((function(t){return t.setAttribute("slope",n)}))}:null},contrast:function(t,n,e){return(t=Vt(e,n))?function(n){var e=H((1-n)/2);n=H(n),t.map((function(t){t.setAttribute("slope",n),t.setAttribute("intercept",e)}))}:null},"drop-shadow":function(t,n,e){var r=e.getElementById(n+"-blur");if(!r)return null;var i=e.getElementById(n+"-offset");if(!i)return null;var u=e.getElementById(n+"-flood");return u?function(t){r.setAttribute("stdDeviation",$(t.blur)),i.setAttribute("dx",H(t.offset.x)),i.setAttribute("dy",H(t.offset.y)),u.setAttribute("flood-color",Q(t.color))}:null},grayscale:function(t){return t?function(n){t.setAttribute("values",X(function(t){return[.2126+.7874*(t=1-t),.7152-.7152*t,.0722-.0722*t,0,0,.2126-.2126*t,.7152+.2848*t,.0722-.0722*t,0,0,.2126-.2126*t,.7152-.7152*t,.0722+.9278*t,0,0,0,0,0,1,0]}(n)))}:null},"hue-rotate":function(t){return t?function(n){return t.setAttribute("values",H(n))}:null},invert:function(t,n,e){return(t=Vt(e,n))?function(n){n=H(n)+" "+H(1-n),t.map((function(t){return t.setAttribute("tableValues",n)}))}:null},opacity:function(t,n,e){return(t=e.getElementById(n+"-A"))?function(n){return t.setAttribute("tableValues","0 "+H(n))}:null},saturate:function(t){return t?function(n){return t.setAttribute("values",H(n))}:null},sepia:function(t){return t?function(n){return t.setAttribute("values",X(function(t){return[.393+.607*(t=1-t),.769-.769*t,.189-.189*t,0,0,.349-.349*t,.686+.314*t,.168-.168*t,0,0,.272-.272*t,.534-.534*t,.131+.869*t,0,0,0,0,0,1,0]}(n)))}:null}};var Ct=["R","G","B"];function Vt(t,n){var e=Ct.map((function(e){return t.getElementById(n+"-"+e)||null}));return-1!==e.indexOf(null)?null:e}var Nt={fill:Pt,"fill-opacity":It,stroke:Pt,"stroke-opacity":It,"stroke-width":Bt,"stroke-dashoffset":{f:H,i:b},"stroke-dasharray":jt,opacity:It,transform:function(n,e,r,i){if(!(n=function(n,e){if(!n||"object"!==t(n))return null;var r=!1;for(var i in n)n.hasOwnProperty(i)&&(n[i]&&n[i].length?(n[i].forEach((function(t){t.e&&(t.e=e(t.e))})),r=!0):delete n[i]);return r?n:null}(n,i)))return null;var u=function(t,i,u){var o=arguments.length>3&&void 0!==arguments[3]?arguments[3]:null;return n[t]?r(i,n[t],u):e&&e[t]?e[t]:o};return e&&e.a&&n.o?function(t){var e=r(t,n.o,At);return Mt.recomposeSelf(e,u("r",t,b,0)+e.a,u("k",t,x),u("s",t,x),u("t",t,x)).toString()}:function(t){return Mt.recomposeSelf(u("o",t,kt,null),u("r",t,b,0),u("k",t,x),u("s",t,x),u("t",t,x)).toString()}},"#filter":function(t,n,e,r,i,u,o,a){if(!n.items||!t||!t.length)return null;var l=function(t,n){var e=(t=t.map((function(t){return t&&qt[t[0]]?(n.getElementById(t[1]),qt[t[0]](n.getElementById(t[1]),t[1],n)):null}))).length;return function(n){for(var r=0;r<e;r++)t[r]&&t[r](n[r].value)}}(n.items,a);return l?(t=function(t,n){return t.map((function(t){return t.e=n(t.e),t}))}(t,r),function(n){l(e(n,t,Tt))}):null},"#line":Et,points:{f:X,i:M},d:Ot,r:Bt,"#size":J,"#radius":Z,_:function(t,n){if(Array.isArray(t))for(var e=0;e<t.length;e++)this[t[e]]=n;else this[t]=n}};return function(t){!function(t,n){if("function"!=typeof n&&null!==n)throw new TypeError("Super expression must either be null or a function");t.prototype=Object.create(n&&n.prototype,{constructor:{value:t,writable:!0,configurable:!0}}),n&&u(t,n)}(o,t);var e=a(o);function o(){return n(this,o),e.apply(this,arguments)}return r(o,null,[{key:"build",value:function(t){var n=l(i(o),"build",this).call(this,t,Nt),e=n.el,r=n.options,u=n.player;return function(t,n,e){if("click"===e.start){return void n.addEventListener("click",(function(){switch(e.click){case"freeze":return!t._running&&t.reachedToEnd()&&(t.offset=0),t._running?t.pause():t.play();case"restart":return t.offset>0?t.restart():t.play();case"reverse":var n=!t._rollingBack&&t._running,r=t.reachedToEnd();return n||r&&1===t.fill?(t.pause(),r&&(t.offset=t.duration-1),t._rollback()):r?t.restart():t.play();case"none":default:return!t._running&&t.offset?t.restart():t.play()}}))}if("hover"===e.start)return n.addEventListener("mouseenter",(function(){return t.reachedToEnd()?t.restart():t.play()})),void n.addEventListener("mouseleave",(function(){switch(e.hover){case"freeze":return t.pause();case"reset":return t.stop();case"reverse":return t.pause(),t._rollback();case"none":default:return}}));if("scroll"===e.start)return void new Y(n,e.scroll||25,(function(n){n?t.reachedToEnd()?t.restart():t.play():t.pause()}));t.play()}(u,e,r),u}}]),o}(U)}));
__SVGATOR_PLAYER__.build({"root":"e9wuqxu891dc1","animations":[{"duration":1000,"direction":1,"iterations":0,"fill":1,"alternate":false,"elements":{"e9wuqxu891dc32":{"transform":{"data":{"o":{"x":224.64999389648438,"y":95.0999984741211,"type":"corner"},"t":{"x":-4.449993896484386,"y":-3.9999984741210994}},"keys":{"s":[{"t":0,"v":{"x":1,"y":1}},{"t":500,"v":{"x":1.5,"y":1.5}},{"t":1000,"v":{"x":1,"y":1}}]}}},"e9wuqxu891dc36":{"transform":{"data":{"o":{"x":234.34999084472656,"y":108,"type":"corner"},"t":{"x":-4.449990844726557,"y":-4}},"keys":{"s":[{"t":0,"v":{"x":1,"y":1}},{"t":500,"v":{"x":0.8,"y":0.8}},{"t":1000,"v":{"x":1,"y":1}}]}}},"e9wuqxu891dc77":{"transform":{"data":{"t":{"x":-57.89999961853027,"y":-80.5}},"keys":{"o":[{"t":0,"v":{"x":57.89999961853027,"y":80.5,"type":"corner"}},{"t":500,"v":{"x":57.89999961853027,"y":78.5,"type":"corner"}},{"t":1000,"v":{"x":57.89999961853027,"y":80.5,"type":"corner"}}]}}}}}],"options":{"start":"load","hover":"freeze","click":"freeze","scroll":25,"exportedIds":"unique","title":"main_menu_06"},"animationSettings":{"duration":1000,"direction":1,"iterations":0,"fill":1,"alternate":false}})]]></script></svg>