<svg id="e0tokwmtpcqq1" xmlns="http://www.w3.org/2000/svg" xmlns:xlink="http://www.w3.org/1999/xlink" viewBox="0 0 284 170" shape-rendering="geometricPrecision" text-rendering="geometricPrecision"><style><![CDATA[#e0tokwmtpcqq7_to {animation: e0tokwmtpcqq7_to__to 1000ms linear infinite normal forwards}@keyframes e0tokwmtpcqq7_to__to { 0% {transform: translate(142.100029px,70.949993px)} 50% {transform: translate(142.100029px,65.949993px)} 100% {transform: translate(142.100029px,70.949993px)} }]]></style><path id="e0tokwmtpcqq2" d="M161.900000,132L161.900000,125.600000C161.900000,125.300000,161.700000,125.100000,161.400000,125.100000L155,125.100000C155,125.100000,155,125.100000,155,125.100000C155,125.100000,155,125.100000,155,125.100000L148.600000,125.100000L142.200000,125.100000L135.800000,125.100000L129.400000,125.100000L123,125.100000C122.700000,125.100000,122.500000,125.300000,122.500000,125.600000L122.500000,132L116.500000,132L116.500000,138.400000L122.900000,138.400000L122.900000,132.500000C122.900000,132.500000,123,132.500000,123,132.500000L129.400000,132.500000L135.800000,132.500000L142.200000,132.500000L148.600000,132.500000L155,132.500000C155,132.500000,155,132.500000,155,132.500000C155,132.500000,155,132.500000,155,132.500000L161.400000,132.500000L161.400000,138.400000L167.900000,138.400000L167.900000,132L161.900000,132Z" fill="rgb(84,254,84)" stroke="none" stroke-width="1"/><path id="e0tokwmtpcqq3" d="M206.300000,28.800000L200.400000,28.800000L200.400000,22.900000C200.400000,22.600000,200.200000,22.400000,199.900000,22.400000L193.500000,22.400000L187.100000,22.400000L180.700000,22.400000L174.300000,22.400000C174.300000,22.400000,174.300000,22.400000,174.300000,22.400000C174.300000,22.400000,174.300000,22.400000,174.300000,22.400000L167.900000,22.400000L161.500000,22.400000L161.400000,22.400000L155,22.400000C155,22.400000,155,22.400000,155,22.400000C155,22.400000,155,22.400000,155,22.400000L148.600000,22.400000L142.200000,22.400000L135.800000,22.400000L129.400000,22.400000L123,22.400000L116.600000,22.400000L110,22.400000L103.600000,22.400000L97.200000,22.400000C97.200000,22.400000,97.200000,22.400000,97.200000,22.400000C97.200000,22.400000,97.200000,22.400000,97.100000,22.400000L90.700000,22.400000L84.300000,22.400000C84,22.400000,83.800000,22.600000,83.800000,22.900000L83.800000,28.800000L77.900000,28.800000C77.600000,28.800000,77.400000,29,77.400000,29.300000L77.400000,35.700000L77.400000,42.100000L77.400000,48.500000L77.400000,54.900000L77.400000,61.400000L77.400000,67.800000L77.400000,74.200000C77.400000,74.200000,77.400000,74.200000,77.400000,74.200000C77.400000,74.200000,77.400000,74.200000,77.400000,74.200000L77.400000,80.600000L77.400000,87L77.400000,93.400000L77.400000,99.800000C77.400000,100.100000,77.600000,100.300000,77.900000,100.300000L83.800000,100.300000L83.800000,106.200000C83.800000,106.500000,84,106.700000,84.300000,106.700000L90.700000,106.700000L97.100000,106.700000C97.100000,106.700000,97.100000,106.700000,97.200000,106.700000C97.200000,106.700000,97.200000,106.700000,97.200000,106.700000L103.600000,106.700000L110,106.700000L116.400000,106.700000C116.400000,106.700000,116.400000,106.700000,116.500000,106.700000C116.500000,106.700000,116.500000,106.700000,116.500000,106.700000L122.900000,106.700000L129.300000,106.700000L135.700000,106.700000L142.100000,106.700000L148.500000,106.700000L154.900000,106.700000C154.900000,106.700000,154.900000,106.700000,154.900000,106.700000C154.900000,106.700000,154.900000,106.700000,154.900000,106.700000L161.200000,106.700000L161.300000,106.700000L167.700000,106.700000L174.100000,106.700000C174.100000,106.700000,174.100000,106.700000,174.100000,106.700000C174.100000,106.700000,174.100000,106.700000,174.100000,106.700000L180.500000,106.700000L186.900000,106.700000L193.300000,106.700000L199.700000,106.700000C200,106.700000,200.200000,106.500000,200.200000,106.200000L200.200000,100.300000L206.100000,100.300000C206.400000,100.300000,206.600000,100.100000,206.600000,99.800000L206.600000,93.400000L206.600000,87L206.600000,80.600000L206.600000,74.200000C206.600000,74.200000,206.600000,74.200000,206.600000,74.200000C206.600000,74.200000,206.600000,74.200000,206.600000,74.200000L206.600000,67.800000L206.600000,61.400000L206.600000,54.900000L206.600000,48.500000L206.600000,42.100000L206.600000,35.700000L206.600000,29.300000C206.800000,29,206.600000,28.800000,206.300000,28.800000ZM174.200000,93L168.300000,93L168.300000,87.100000C168.300000,86.800000,168.100000,86.600000,167.800000,86.600000L161.400000,86.600000L161.300000,86.600000L155,86.600000C155,86.600000,155,86.600000,155,86.600000C155,86.600000,155,86.600000,155,86.600000L148.600000,86.600000L142.200000,86.600000L135.800000,86.600000L129.400000,86.600000L123,86.600000L116.600000,86.600000L110.600000,86.600000L110.600000,80.700000C110.600000,80.400000,110.400000,80.200000,110.100000,80.200000L104.200000,80.200000L104.200000,74.300000C104.200000,74.300000,104.200000,74.300000,104.200000,74.200000C104.200000,74.200000,104.200000,74.200000,104.200000,74.200000L104.200000,67.800000L104.200000,61.400000L104.200000,54.900000L104.200000,49L110.100000,49C110.400000,49,110.600000,48.800000,110.600000,48.500000L110.600000,42.600000L116.500000,42.600000C116.500000,42.600000,116.500000,42.600000,116.600000,42.600000C116.600000,42.600000,116.600000,42.600000,116.600000,42.600000L123,42.600000L129.400000,42.600000L135.800000,42.600000L142.200000,42.600000L148.600000,42.600000L155,42.600000C155,42.600000,155,42.600000,155,42.600000C155,42.600000,155,42.600000,155,42.600000L161.300000,42.600000L161.400000,42.600000L167.800000,42.600000L173.800000,42.600000L173.800000,48.500000C173.800000,48.800000,174,49,174.300000,49L180.200000,49L180.200000,54.900000L180.200000,61.400000L180.200000,67.800000L180.200000,74.200000C180.200000,74.200000,180.200000,74.200000,180.200000,74.200000C180.200000,74.200000,180.200000,74.200000,180.200000,74.200000L180.200000,80.600000L180.200000,87L180.200000,93.400000L180.200000,99.300000L174.700000,99.300000L174.700000,93.400000C174.700000,93.200000,174.500000,93,174.200000,93Z" fill="rgb(84,254,84)" stroke="none" stroke-width="1"/><path id="e0tokwmtpcqq4" d="M212.700000,144.400000L206.300000,144.400000L199.900000,144.400000L193.500000,144.400000L187.100000,144.400000L180.700000,144.400000L174.300000,144.400000C174.300000,144.400000,174.300000,144.400000,174.300000,144.400000C174.300000,144.400000,174.300000,144.400000,174.300000,144.400000L167.900000,144.400000L161.500000,144.400000L161.400000,144.400000L155,144.400000C155,144.400000,155,144.400000,155,144.400000C155,144.400000,155,144.400000,155,144.400000L148.600000,144.400000L142.200000,144.400000L135.800000,144.400000L129.400000,144.400000L123,144.400000L116.600000,144.400000L110,144.400000L103.600000,144.400000L97.200000,144.400000C97.200000,144.400000,97.200000,144.400000,97.200000,144.400000C97.200000,144.400000,97.200000,144.400000,97.100000,144.400000L90.700000,144.400000L84.300000,144.400000L77.900000,144.400000L71.500000,144.400000C71.200000,144.400000,71,144.600000,71,144.900000L71,151.300000C71,151.600000,71.200000,151.800000,71.500000,151.800000L77.900000,151.800000L84.300000,151.800000L90.700000,151.800000L97.100000,151.800000C97.100000,151.800000,97.100000,151.800000,97.200000,151.800000C97.200000,151.800000,97.200000,151.800000,97.200000,151.800000L103.600000,151.800000L110,151.800000L116.400000,151.800000C116.400000,151.800000,116.400000,151.800000,116.500000,151.800000C116.500000,151.800000,116.500000,151.800000,116.500000,151.800000L122.900000,151.800000L129.300000,151.800000L135.700000,151.800000L142.100000,151.800000L148.500000,151.800000L154.900000,151.800000C154.900000,151.800000,154.900000,151.800000,154.900000,151.800000C154.900000,151.800000,154.900000,151.800000,154.900000,151.800000L161.200000,151.800000L161.300000,151.800000L167.700000,151.800000L174.100000,151.800000C174.100000,151.800000,174.100000,151.800000,174.100000,151.800000C174.100000,151.800000,174.100000,151.800000,174.100000,151.800000L180.500000,151.800000L186.900000,151.800000L193.300000,151.800000L199.700000,151.800000L206.100000,151.800000L212.500000,151.800000C212.800000,151.800000,213,151.600000,213,151.300000L213,144.900000C213.200000,144.600000,213,144.400000,212.700000,144.400000Z" fill="rgb(84,254,84)" stroke="none" stroke-width="1"/><path id="e0tokwmtpcqq5" d="M212.700000,22.400000L206.800000,22.400000L206.800000,16.500000C206.800000,16.200000,206.600000,16,206.300000,16L199.900000,16L193.500000,16L187.100000,16L180.700000,16L174.300000,16C174.300000,16,174.300000,16,174.300000,16C174.300000,16,174.300000,16,174.300000,16L167.900000,16L161.500000,16L161.400000,16L155,16C155,16,155,16,155,16C155,16,155,16,155,16L148.600000,16L142.200000,16L135.800000,16L129.400000,16L123,16L116.600000,16L110,16L103.600000,16L97.200000,16C97.200000,16,97.200000,16,97.200000,16C97.200000,16,97.200000,16,97.100000,16L90.700000,16L84.300000,16L77.900000,16C77.600000,16,77.400000,16.200000,77.400000,16.500000L77.400000,22.400000L71.500000,22.400000C71.200000,22.400000,71,22.600000,71,22.900000L71,29.300000L71,35.700000L71,42.100000L71,48.500000L71,54.900000L71,61.400000L71,67.800000L71,74.200000C71,74.200000,71,74.200000,71,74.200000C71,74.200000,71,74.200000,71,74.200000L71,80.600000L71,87L71,93.400000L71,99.800000L71,106.200000C71,106.500000,71.200000,106.700000,71.500000,106.700000L77.400000,106.700000L77.400000,112.700000C77.400000,113,77.600000,113.200000,77.900000,113.200000L84.300000,113.200000L90.700000,113.200000L97.100000,113.200000C97.100000,113.200000,97.100000,113.200000,97.200000,113.200000C97.200000,113.200000,97.200000,113.200000,97.200000,113.200000L103.600000,113.200000L110,113.200000L116.400000,113.200000C116.400000,113.200000,116.400000,113.200000,116.500000,113.200000C116.500000,113.200000,116.500000,113.200000,116.500000,113.200000L122.900000,113.200000L129.300000,113.200000L135.700000,113.200000L142.100000,113.200000L148.500000,113.200000L154.900000,113.200000C154.900000,113.200000,154.900000,113.200000,154.900000,113.200000C154.900000,113.200000,154.900000,113.200000,154.900000,113.200000L161.200000,113.200000L161.300000,113.200000L167.700000,113.200000L174.100000,113.200000C174.100000,113.200000,174.100000,113.200000,174.100000,113.200000C174.100000,113.200000,174.100000,113.200000,174.100000,113.200000L180.500000,113.200000L186.900000,113.200000L193.300000,113.200000L199.700000,113.200000L206.100000,113.200000C206.400000,113.200000,206.600000,113,206.600000,112.700000L206.600000,106.700000L212.500000,106.700000C212.800000,106.700000,213,106.500000,213,106.200000L213,99.800000L213,93.400000L213,87L213,80.600000L213,74.200000C213,74.200000,213,74.200000,213,74.200000C213,74.200000,213,74.200000,213,74.200000L213,67.800000L213,61.400000L213,54.900000L213,48.500000L213,42.100000L213,35.700000L213,29.300000L213,22.900000C213.200000,22.600000,213,22.400000,212.700000,22.400000ZM161.300000,105.800000L155,105.800000C155,105.800000,155,105.800000,155,105.800000C155,105.800000,155,105.800000,155,105.800000L148.600000,105.800000L142.200000,105.800000L135.800000,105.800000L129.400000,105.800000L123,105.800000L116.600000,105.800000L110,105.800000L103.600000,105.800000L97.200000,105.800000C97.200000,105.800000,97.200000,105.800000,97.200000,105.800000C97.200000,105.800000,97.200000,105.800000,97.100000,105.800000L90.700000,105.800000L84.800000,105.800000L84.800000,99.900000C84.800000,99.600000,84.600000,99.400000,84.300000,99.400000L78.400000,99.400000L78.400000,93.500000L78.400000,87.100000L78.400000,80.700000L78.400000,74.300000C78.400000,74.300000,78.400000,74.300000,78.400000,74.300000C78.400000,74.300000,78.400000,74.300000,78.400000,74.300000L78.400000,67.900000L78.400000,61.500000L78.400000,55L78.400000,48.600000L78.400000,42.200000L78.400000,35.800000L78.400000,29.900000L84.300000,29.900000C84.600000,29.900000,84.800000,29.600000,84.800000,29.400000L84.800000,23.500000L90.700000,23.500000L97.100000,23.500000C97.100000,23.500000,97.100000,23.500000,97.100000,23.500000C97.100000,23.500000,97.100000,23.500000,97.200000,23.500000L103.600000,23.500000L110,23.500000L116.400000,23.500000C116.400000,23.500000,116.400000,23.500000,116.400000,23.500000C116.400000,23.500000,116.400000,23.500000,116.500000,23.500000L122.900000,23.500000L129.300000,23.500000L135.700000,23.500000L142.100000,23.500000L148.500000,23.500000L154.900000,23.500000C154.900000,23.500000,154.900000,23.500000,154.900000,23.500000C154.900000,23.500000,154.900000,23.500000,155,23.500000L161.300000,23.500000L161.400000,23.500000L167.800000,23.500000L174.200000,23.500000C174.200000,23.500000,174.200000,23.500000,174.200000,23.500000C174.200000,23.500000,174.200000,23.500000,174.300000,23.500000L180.700000,23.500000L187.100000,23.500000L193.500000,23.500000L199.400000,23.500000L199.400000,29.400000C199.400000,29.700000,199.600000,29.900000,199.900000,29.900000L205.800000,29.900000L205.800000,35.800000L205.800000,42.200000L205.800000,48.600000L205.800000,55L205.800000,61.500000L205.800000,67.900000L205.800000,74.300000C205.800000,74.300000,205.800000,74.300000,205.800000,74.300000C205.800000,74.300000,205.800000,74.300000,205.800000,74.300000L205.800000,80.700000L205.800000,87.100000L205.800000,93.500000L205.800000,99.400000L199.900000,99.400000C199.600000,99.400000,199.400000,99.600000,199.400000,99.900000L199.400000,105.800000L193.500000,105.800000L187.100000,105.800000L180.700000,105.800000L174.300000,105.800000C174.300000,105.800000,174.300000,105.800000,174.300000,105.800000C174.300000,105.800000,174.300000,105.800000,174.300000,105.800000L167.900000,105.800000L161.500000,105.800000L161.300000,105.800000Z" fill="rgb(0,0,0)" stroke="none" stroke-width="1"/><path id="e0tokwmtpcqq6" d="M226.100000,132C226.100000,131.700000,225.900000,131.500000,225.600000,131.500000L219.700000,131.500000L219.700000,125.600000C219.700000,125.300000,219.500000,125.100000,219.200000,125.100000L213.200000,125.100000L213.200000,119.200000C213.200000,118.900000,213,118.700000,212.700000,118.700000L206.300000,118.700000L199.900000,118.700000L193.500000,118.700000L187.100000,118.700000L180.700000,118.700000L174.300000,118.700000C174.300000,118.700000,174.300000,118.700000,174.300000,118.700000C174.300000,118.700000,174.300000,118.700000,174.300000,118.700000L167.900000,118.700000L161.500000,118.700000L161.400000,118.700000L155,118.700000C155,118.700000,155,118.700000,155,118.700000C155,118.700000,155,118.700000,155,118.700000L148.600000,118.700000L142.200000,118.700000L135.800000,118.700000L129.400000,118.700000L123,118.700000L116.600000,118.700000L110,118.700000L103.600000,118.700000L97.200000,118.700000C97.200000,118.700000,97.200000,118.700000,97.200000,118.700000C97.200000,118.700000,97.200000,118.700000,97.100000,118.700000L90.700000,118.700000L84.300000,118.700000L77.900000,118.700000L71.500000,118.700000C71.200000,118.700000,71,118.900000,71,119.200000L71,125.100000L65.100000,125.100000C64.800000,125.100000,64.600000,125.300000,64.600000,125.600000L64.600000,131.500000L58.600000,131.500000C58.300000,131.500000,58.100000,131.700000,58.100000,132L58.100000,138.500000L58.100000,144.900000L58.100000,144.900000L58.100000,144.900000L58.100000,151.300000C58.100000,151.600000,58.300000,151.800000,58.600000,151.800000L64.600000,151.800000L64.600000,157.700000C64.600000,158,64.800000,158.200000,65.100000,158.200000L71.500000,158.200000L77.900000,158.200000L84.300000,158.200000L90.700000,158.200000L97.100000,158.200000C97.100000,158.200000,97.100000,158.200000,97.200000,158.200000C97.200000,158.200000,97.200000,158.200000,97.200000,158.200000L103.600000,158.200000L110,158.200000L116.400000,158.200000C116.400000,158.200000,116.400000,158.200000,116.500000,158.200000C116.500000,158.200000,116.500000,158.200000,116.500000,158.200000L122.900000,158.200000L129.300000,158.200000L135.700000,158.200000L142.100000,158.200000L148.500000,158.200000L154.900000,158.200000C154.900000,158.200000,154.900000,158.200000,154.900000,158.200000C154.900000,158.200000,154.900000,158.200000,154.900000,158.200000L161.200000,158.200000L161.300000,158.200000L167.700000,158.200000L174.100000,158.200000C174.100000,158.200000,174.100000,158.200000,174.100000,158.200000C174.100000,158.200000,174.100000,158.200000,174.100000,158.200000L180.500000,158.200000L186.900000,158.200000L193.300000,158.200000L199.700000,158.200000L206.100000,158.200000L212.500000,158.200000L219,158.200000C219.300000,158.200000,219.500000,158,219.500000,157.700000L219.500000,151.800000L225.400000,151.800000C225.700000,151.800000,225.900000,151.600000,225.900000,151.300000L225.900000,144.900000L225.900000,144.900000L225.900000,144.900000L225.900000,138.500000C225.900000,138.500000,225.900000,138.500000,225.900000,138.500000C225.900000,138.500000,225.900000,138.500000,225.900000,138.400000L225.900000,132ZM161.900000,132.600000L167.300000,132.600000L167.300000,138L161.900000,138L161.900000,132.600000ZM122.300000,138L117,138L117,132.600000L122.300000,132.600000L122.300000,138ZM148.500000,126.100000L154.900000,126.100000C154.900000,126.100000,154.900000,126.100000,154.900000,126.100000C154.900000,126.100000,154.900000,126.100000,154.900000,126.100000L160.700000,126.100000L160.700000,131.500000L155,131.500000C155,131.500000,155,131.500000,155,131.500000C155,131.500000,155,131.500000,155,131.500000L148.600000,131.500000L142.200000,131.500000L135.800000,131.500000L129.400000,131.500000L123.500000,131.500000L123.500000,126.100000L129.400000,126.100000L135.800000,126.100000L142.200000,126.100000L148.500000,126.100000ZM161.300000,150.800000L155,150.800000C155,150.800000,155,150.800000,155,150.800000C155,150.800000,155,150.800000,155,150.800000L148.600000,150.800000L142.200000,150.800000L135.800000,150.800000L129.400000,150.800000L123,150.800000L116.600000,150.800000L110,150.800000L103.600000,150.800000L97.200000,150.800000C97.200000,150.800000,97.200000,150.800000,97.200000,150.800000C97.200000,150.800000,97.200000,150.800000,97.100000,150.800000L90.700000,150.800000L84.300000,150.800000L77.900000,150.800000L72,150.800000L72,145.400000L77.900000,145.400000L84.300000,145.400000L90.700000,145.400000L97.100000,145.400000C97.100000,145.400000,97.100000,145.400000,97.200000,145.400000C97.200000,145.400000,97.200000,145.400000,97.200000,145.400000L103.600000,145.400000L110,145.400000L116.400000,145.400000C116.400000,145.400000,116.400000,145.400000,116.500000,145.400000C116.500000,145.400000,116.500000,145.400000,116.500000,145.400000L122.900000,145.400000L129.300000,145.400000L135.700000,145.400000L142.100000,145.400000L148.500000,145.400000L154.900000,145.400000C154.900000,145.400000,154.900000,145.400000,154.900000,145.400000C154.900000,145.400000,154.900000,145.400000,154.900000,145.400000L161.200000,145.400000L161.300000,145.400000L167.700000,145.400000L174.100000,145.400000C174.100000,145.400000,174.100000,145.400000,174.100000,145.400000C174.100000,145.400000,174.100000,145.400000,174.100000,145.400000L180.500000,145.400000L186.900000,145.400000L193.300000,145.400000L199.700000,145.400000L206.100000,145.400000L212,145.400000L212,150.800000L206.100000,150.800000L199.700000,150.800000L193.300000,150.800000L186.900000,150.800000L180.500000,150.800000L174.100000,150.800000C174.100000,150.800000,174.100000,150.800000,174.100000,150.800000C174.100000,150.800000,174.100000,150.800000,174.100000,150.800000L167.700000,150.800000L161.300000,150.800000L161.300000,150.800000Z" fill="rgb(0,0,0)" stroke="none" stroke-width="1"/><g id="e0tokwmtpcqq7_to" transform="translate(142.100029,70.949993)"><path id="e0tokwmtpcqq7" d="M185.300000,46.100000C185.300000,45.700000,185,45.500000,184.700000,45.500000L178.200000,45.500000L178.200000,39C178.200000,38.600000,177.900000,38.400000,177.600000,38.400000L170.500000,38.400000L163.400000,38.400000L156.300000,38.400000L149.200000,38.400000L142.100000,38.400000L142.100000,38.400000L135,38.400000L127.900000,38.400000L120.900000,38.400000L120.800000,38.400000L113.800000,38.400000L106.700000,38.400000C106.300000,38.400000,106.100000,38.700000,106.100000,39L106.100000,45.500000L99.500000,45.500000C99.100000,45.500000,98.900000,45.800000,98.900000,46.100000L98.900000,53.200000C98.900000,53.200000,98.900000,53.200000,98.900000,53.200000C98.900000,53.200000,98.900000,53.200000,98.900000,53.300000L98.900000,60.300000L98.900000,60.400000L98.900000,67.400000L98.900000,74.500000L98.900000,81.600000C98.900000,82,99.200000,82.200000,99.500000,82.200000L106.100000,82.200000L106.100000,88.700000C106.100000,89.100000,106.400000,89.300000,106.700000,89.300000L113.800000,89.300000L120.800000,89.300000L120.900000,89.300000L127.900000,89.300000L135,89.300000L142.100000,89.300000L142.100000,89.300000L149.200000,89.300000L156.300000,89.300000L163.400000,89.300000L169.900000,89.300000L169.900000,95.800000C169.900000,96.200000,170.200000,96.400000,170.500000,96.400000L177,96.400000L177,102.900000C177,103.300000,177.300000,103.500000,177.600000,103.500000L184.700000,103.500000C185,103.500000,185.200000,103.200000,185.300000,102.900000L185.300000,95.800000L185.300000,88.700000L185.300000,81.600000L185.300000,74.500000L185.300000,67.400000L185.300000,60.400000L185.300000,60.300000L185.300000,53.300000C185.300000,53.300000,185.300000,53.300000,185.300000,53.200000C185.300000,53.200000,185.300000,53.200000,185.300000,53.200000L185.300000,46.100000Z" transform="translate(-142.100029,-70.949993)" fill="rgb(0,0,0)" stroke="none" stroke-width="1"/></g><g id="e0tokwmtpcqq8"><rect id="e0tokwmtpcqq9" width="2.200000" height="12.200000" rx="0" ry="0" transform="matrix(1 0 0 1 107.90000000000001 58.80000000000000)" fill="rgb(84,254,84)" stroke="none" stroke-width="1"/><rect id="e0tokwmtpcqq10" width="4.500000" height="2.100000" rx="0" ry="0" transform="matrix(1 0 0 1 143.50000000000000 64.09999999999999)" fill="rgb(84,254,84)" stroke="none" stroke-width="1"/><polygon id="e0tokwmtpcqq11" points="118.300000,65.100000 117.500000,65.100000 117.500000,62.700000 116.200000,62.700000 116.200000,60.300000 113.900000,60.300000 113.900000,58.800000 111.700000,58.800000 111.700000,71 113.900000,71 113.900000,62.700000 115.200000,62.700000 115.200000,65.100000 116.200000,65.100000 116.200000,67.500000 118.300000,67.500000 118.300000,71 120.500000,71 120.500000,58.800000 118.300000,58.800000" fill="rgb(84,254,84)" stroke="none" stroke-width="1"/><polygon id="e0tokwmtpcqq12" points="176.700000,58.800000 176.700000,65.100000 175.900000,65.100000 175.900000,62.700000 174.600000,62.700000 174.600000,60.300000 172.300000,60.300000 172.300000,58.800000 170.100000,58.800000 170.100000,71 172.300000,71 172.300000,62.700000 173.600000,62.700000 173.600000,65.100000 174.600000,65.100000 174.600000,67.500000 176.700000,67.500000 176.700000,71 178.900000,71 178.900000,58.800000" fill="rgb(84,254,84)" stroke="none" stroke-width="1"/><polygon id="e0tokwmtpcqq13" points="128.800000,65.100000 128,65.100000 128,62.700000 126.700000,62.700000 126.700000,60.300000 124.400000,60.300000 124.400000,58.800000 122.200000,58.800000 122.200000,71 124.400000,71 124.400000,62.700000 125.700000,62.700000 125.700000,65.100000 126.700000,65.100000 126.700000,67.500000 128.800000,67.500000 128.800000,71 131,71 131,58.800000 128.800000,58.800000" fill="rgb(84,254,84)" stroke="none" stroke-width="1"/><path id="e0tokwmtpcqq14" d="M140.600000,58.800000L133.800000,58.800000L133.800000,61.200000L132.700000,61.200000L132.700000,68.500000L133.800000,68.500000L133.800000,70.900000L140.600000,70.900000L140.600000,68.500000L141.800000,68.500000L141.800000,61.200000C141.700000,61.200000,140.500000,61.200000,140.600000,61.200000L140.600000,58.800000ZM139.400000,68.500000L134.900000,68.500000L134.900000,61.200000L139.400000,61.200000L139.400000,68.500000Z" fill="rgb(84,254,84)" stroke="none" stroke-width="1"/><path id="e0tokwmtpcqq15" d="M167.200000,58.800000L160.400000,58.800000L160.400000,61.200000L159.300000,61.200000L159.300000,68.500000L160.400000,68.500000L160.400000,70.900000L167.200000,70.900000L167.200000,68.500000L168.400000,68.500000L168.400000,61.200000C168.300000,61.200000,167.200000,61.200000,167.200000,61.200000L167.200000,58.800000ZM166,68.500000L161.500000,68.500000L161.500000,61.200000L166,61.200000L166,68.500000Z" fill="rgb(84,254,84)" stroke="none" stroke-width="1"/><polygon id="e0tokwmtpcqq16" points="150.700000,61.500000 149.500000,61.500000 149.500000,68.800000 150.700000,68.800000 150.700000,71.200000 157.500000,71.200000 157.500000,68.800000 151.800000,68.800000 151.800000,61.500000 157.500000,61.500000 157.500000,59.100000 150.700000,59.100000" fill="rgb(84,254,84)" stroke="none" stroke-width="1"/></g></svg>